<svg width="255" height="294" viewBox="0 0 255 294" fill="none" xmlns="http://www.w3.org/2000/svg">
<path d="M191.057 54.8397C190.461 55.2163 190.712 56.8795 191.371 57.0051C191.936 57.1306 192.878 55.6242 192.658 54.9338C192.501 54.4945 191.654 54.4317 191.057 54.8397Z" fill="#EFEFEF"/>
<path d="M208.007 56.5344C207.191 57.3817 207.159 57.57 207.756 57.7897C208.321 58.0094 209.827 56.8796 209.827 56.252C209.827 55.5616 208.76 55.7185 208.007 56.5344Z" fill="#EFEFEF"/>
<path d="M226.651 64.0975C226.149 64.3799 224.988 64.5996 223.921 64.5996C221.755 64.5996 218.773 65.6352 218.271 66.5139C218.082 66.8591 217.329 67.424 216.544 67.7378C214.818 68.491 214.347 69.3697 214.818 71.0957C215.006 71.7861 215.383 72.5393 215.634 72.759C216.23 73.2611 216.23 73.7004 215.665 73.7004C214.881 73.7004 214.849 74.1712 215.509 75.4578C216.795 77.9057 218.647 79.161 219.118 77.937C219.401 77.2466 220.436 77.3722 220.844 78.1253C221.033 78.5333 221.096 79.3493 221.001 80.1338C220.719 81.8912 221.347 82.4875 222.791 81.8912C223.356 81.6715 224.109 81.4205 224.517 81.3263C225.647 81.0439 228.566 82.7385 231.014 85.0294C232.27 86.222 233.462 87.1948 233.651 87.1948C233.839 87.1948 234.373 86.9751 234.781 86.6927C235.283 86.3789 235.848 86.2534 236.476 86.4103C237.637 86.6613 239.05 85.9709 239.928 84.7156C240.713 83.6172 240.745 82.6444 240.054 81.0439C239.332 79.2865 239.395 75.3637 240.242 72.759C240.588 71.6292 241.529 69.6521 242.314 68.3655L243.726 66.0118L239.866 65.8235C237.072 65.698 235.252 65.4155 233.117 64.7879C229.194 63.6581 227.781 63.5012 226.651 64.0975Z" fill="#EFEFEF"/>
<path d="M207.661 70.6877C207.159 71.3153 207.756 72.4451 208.572 72.4451C209.137 72.4451 210.141 71.6919 210.141 71.2212C210.141 70.3111 208.289 69.9345 207.661 70.6877Z" fill="#EFEFEF"/>
<path d="M207.756 75.9287C207.222 76.0856 206.563 76.4622 206.249 76.8074C205.558 77.5919 205.684 79.161 206.469 79.2866C207.159 79.4121 210.235 77.9057 210.989 77.0898C211.522 76.4935 211.522 76.4622 210.926 76.0228C210.267 75.5207 209.231 75.4893 207.756 75.9287Z" fill="#EFEFEF"/>
<path d="M33.4892 77.5289C33.1439 78.4389 32.6731 80.0394 32.4534 81.0437C32.0767 82.6128 31.857 82.9894 30.8526 83.617C29.2832 84.6212 28.7182 85.5313 28.7182 87.0691C28.7182 88.4185 29.2518 89.1403 30.5073 89.5169L31.2293 89.7366L30.4759 90.7408C29.2832 92.3413 27.7766 95.5737 27.7766 96.5465C27.7766 97.0173 27.9335 97.5821 28.1532 97.8018C28.4357 98.0843 28.3729 98.1784 27.8707 98.1784C26.113 98.1784 25.6108 99.3395 26.9605 100.218C28.1218 100.971 29.1263 100.532 31.1979 98.3353L33.0498 96.3268L32.014 98.5864C30.5073 101.882 30.1621 103.325 30.6329 104.675C30.9781 105.773 31.0095 105.773 31.3548 105.114C31.7001 104.518 31.7942 104.486 32.3278 104.926C32.6731 105.177 33.552 105.396 34.2739 105.396H35.5608V107.028C35.5608 107.938 35.655 109.194 35.7805 109.79C35.9375 110.669 35.7805 111.328 34.8703 113.242C34.2425 114.529 33.7403 115.878 33.7403 116.223C33.7403 116.945 36.0944 119.424 36.3141 118.985C36.4083 118.859 36.5652 118.326 36.6908 117.855C36.8477 117.165 37.036 117.008 37.4441 117.165C39.2332 117.918 39.6726 118.012 40.426 117.855C41.1793 117.635 41.4618 117.416 42.4662 116.223C42.8742 115.752 45.9816 115.501 45.9816 115.941C45.9816 116.066 45.5108 116.694 44.9144 117.353C43.5648 118.828 42.9684 120.68 43.345 122.092C43.5648 122.876 43.9728 123.284 45.0086 123.786C45.8247 124.163 46.5152 124.791 46.6722 125.199C47.1116 126.391 47.0174 128.713 46.4839 130C46.2014 130.659 45.9816 131.255 45.9816 131.287C45.9816 131.318 46.3897 131.883 46.9233 132.542C47.9277 133.797 47.8335 134.55 46.578 135.21C46.1072 135.492 45.7933 135.429 45.1656 134.927C43.4706 133.609 40.5515 133.829 38.9507 135.398C37.8521 136.528 37.8835 137.312 39.1077 137.563C39.7982 137.72 40.0179 137.908 39.861 138.254C39.7668 138.536 39.9237 139.007 40.2062 139.321C40.6771 139.854 40.6771 140.011 40.1435 141.517C39.296 143.871 37.5383 145.691 35.3725 146.507C34.3994 146.884 33.4264 147.323 33.2067 147.511C32.7673 147.857 32.6731 149.614 32.987 150.807L33.1753 151.528L34.5878 150.681C35.8433 149.959 36.0944 149.896 37.1616 150.242C37.8207 150.43 39.0449 150.65 39.8296 150.712C40.9596 150.838 41.5873 151.12 42.529 151.968C43.5961 152.94 43.8786 153.035 44.5692 152.784C46.1072 152.187 47.2999 151.466 48.5869 150.336L49.8738 149.175L49.1204 150.43C46.9861 154.07 46.2014 154.635 42.937 155.012C41.0537 155.231 40.2062 155.482 39.2332 156.173C37.193 157.616 31.4804 164.74 31.9512 165.242C32.0767 165.337 33.2067 164.991 34.4622 164.458C37.5383 163.14 38.0719 163.046 39.6726 163.61C41.7443 164.332 42.0581 164.238 43.1253 162.512C44.6947 159.97 46.7663 159.091 48.7752 160.158C49.2774 160.409 50.2504 160.692 50.9723 160.817C52.1337 161.006 52.2593 160.943 52.2593 160.378C52.2593 159.499 52.7929 159.437 60.5771 159.06C67.5766 158.746 68.8949 158.527 70.9979 157.303C72.2221 156.581 73.6031 155.2 73.6031 154.635C73.6031 154.51 72.787 154.321 71.814 154.196C68.3299 153.819 67.2941 152.846 69.1774 151.779C69.6796 151.497 70.1505 150.963 70.2132 150.555C70.276 150.085 70.9665 149.363 72.1593 148.547C76.3025 145.628 77.0244 140.858 73.5404 139.289C71.6257 138.41 68.7066 138.442 67.765 139.321C67.2314 139.823 66.8547 139.917 66.07 139.76C64.7517 139.477 64.5948 138.881 65.5678 137.626C67.6394 134.927 66.5408 132.479 62.5859 130.942C60.6085 130.188 60.5143 130 61.4246 129.027C62.5545 127.803 63.559 126.077 63.559 125.293C63.559 124.194 62.4604 123.127 60.1377 121.903C58.9135 121.276 57.7208 120.428 57.4383 120.052C56.9675 119.393 56.0886 116.788 54.8959 112.489C54.2995 110.292 52.3534 108.032 49.9052 106.62C48.5869 105.867 47.9905 105.71 46.0444 105.71C43.7217 105.71 41.3676 105.051 41.7129 104.486C41.8384 104.329 42.4348 104.016 43.0939 103.827C46.3269 102.76 48.7438 100.658 46.1072 101.128C45.5108 101.254 44.7889 101.442 44.5378 101.536C43.5334 101.913 44.1925 101.097 45.6992 100.061C47.9905 98.5236 49.2146 96.9545 51.0037 93.3455C52.8556 89.611 53.5776 86.9749 52.8556 86.5669C51.2548 85.5627 44.3181 86.0335 41.1479 87.3829C37.6952 88.8265 37.5383 88.7637 38.9507 86.3159C39.3901 85.5627 39.8296 84.4016 39.8924 83.7739C39.9551 82.8011 40.3946 82.2676 42.9056 79.9139C45.6992 77.2778 45.7933 77.1523 45.2597 76.6188C44.7889 76.1166 43.9728 76.0539 39.4215 75.9597L34.117 75.8656L33.4892 77.5289Z" fill="#EFEFEF"/>
<path d="M223.199 82.801C222.351 83.1463 221.315 83.7111 220.907 84.1191C220.185 84.7781 220.123 84.9978 220.311 86.818C220.562 89.3599 220.123 90.9918 218.71 92.5296C216.293 95.2284 213.311 94.7263 211.554 91.3684C211.051 90.3642 210.016 88.9206 209.294 88.1674C208.007 86.8494 207.913 86.7866 206.532 86.9749C205.778 87.1004 204.429 87.5398 203.612 87.9477C201.949 88.7951 201.541 89.4541 201.196 91.9019C201.07 92.6865 200.474 94.5694 199.877 96.1385C199.093 98.1156 198.716 99.6533 198.59 101.285L198.433 103.639L199.814 102.823C204.397 100.124 205.433 99.9985 214.253 100.846C219.871 101.379 219.871 101.379 221.127 100.72C221.849 100.344 222.445 100.061 222.539 100.061C222.602 100.061 223.324 100.626 224.109 101.317C224.894 102.007 225.772 102.572 226.023 102.572C226.965 102.572 228.503 103.639 230.889 105.898C232.238 107.185 233.462 108.221 233.619 108.221C233.776 108.221 234.31 107.907 234.749 107.562C235.314 107.122 236.287 106.808 237.543 106.683C239.928 106.432 240.839 105.867 242.345 103.67C243.412 102.101 243.475 101.85 243.318 100.407C243.099 98.555 242.094 96.4523 241.215 95.9816C240.65 95.6678 240.619 95.4167 240.807 92.8748L240.996 90.0817L239.646 89.1089C237.794 87.7594 236.225 87.3201 234.906 87.7908C234.373 87.9791 233.682 88.136 233.431 88.136C233.18 88.136 231.83 87.0063 230.418 85.6255C228.095 83.3659 226.212 82.142 225.145 82.1734C224.925 82.2048 224.046 82.4872 223.199 82.801Z" fill="#EFEFEF"/>
<path d="M184.874 83.0522C182.708 84.4017 180.856 87.4771 180.825 89.7681C180.825 93.8164 183.869 91.9648 184.403 87.5713C184.591 86.1277 184.842 85.3745 185.25 85.0921C186.569 84.1192 186.945 83.6799 186.851 83.1778C186.694 82.4246 185.972 82.3932 184.874 83.0522Z" fill="#EFEFEF"/>
<path d="M128.877 88.1991C128.187 88.764 126.9 89.831 126.052 90.5527C124.891 91.4942 123.949 91.965 122.757 92.216C121.815 92.4043 120.465 92.9692 119.775 93.4713C117.735 94.9777 117.452 95.7936 117.295 101.191C117.076 107.907 117.295 109.194 118.802 110.7C119.743 111.642 120.057 112.207 120.214 113.43C120.34 114.278 120.497 115.219 120.591 115.533C120.811 116.38 122.003 117.008 123.698 117.196C124.923 117.322 125.456 117.228 126.304 116.694C127.057 116.223 127.277 115.941 126.994 115.784C125.582 114.905 125.801 108.19 127.245 107.813C127.591 107.75 127.904 107.342 127.967 106.934C128.03 106.464 128.344 106.15 128.846 106.024C129.505 105.867 129.662 105.616 129.819 104.455C130.039 102.917 131.075 101.819 132.016 102.101C132.581 102.29 134.182 101.066 134.182 100.438C134.182 100.281 133.617 100.062 132.958 99.9361C131.106 99.6536 130.415 98.5866 130.415 96.1074C130.415 94.9777 130.698 93.0633 131.043 91.8394C131.765 89.2347 131.828 88.1049 131.294 87.5714C130.698 86.9752 130.258 87.1007 128.877 88.1991Z" fill="#EFEFEF"/>
<path d="M221.409 101.694C220.593 102.29 220.405 102.321 216.984 101.976C215.006 101.788 211.24 101.631 208.635 101.631C203.267 101.631 202.357 101.85 200.787 103.545C199.909 104.487 199.783 104.832 199.783 106.369C199.783 108.347 200.474 111.045 201.384 112.52C202.137 113.744 204.272 114.811 205.935 114.811C207.599 114.843 209.733 115.847 210.204 116.851C210.486 117.447 210.486 118.012 210.204 119.205C209.764 121.151 209.859 121.402 211.428 122.343C212.15 122.782 213.123 123.724 213.594 124.414C214.787 126.14 216.168 126.737 218.773 126.737C220.719 126.737 220.939 126.674 221.755 125.795C222.257 125.262 223.261 124.634 224.015 124.352C226.463 123.504 228.346 121.088 228.817 118.201C228.974 117.259 229.225 116.945 230.167 116.475C230.889 116.129 231.391 115.627 231.485 115.125C231.611 114.592 231.987 114.246 232.678 113.995C233.4 113.776 233.588 113.587 233.337 113.336C233.149 113.148 232.96 112.301 232.929 111.422C232.803 109.006 230.92 106.338 227.907 104.33C227.248 103.89 226.337 103.514 225.929 103.514C225.49 103.514 224.611 102.98 223.826 102.258C223.073 101.568 222.414 101.003 222.351 101.034C222.288 101.034 221.849 101.317 221.409 101.694Z" fill="#EFEFEF"/>
<path d="M141.715 105.208C139.863 105.899 136.85 107.499 136.379 108.064C136.034 108.503 136.034 108.817 136.505 110.104C136.819 110.951 136.976 111.767 136.881 111.924C136.63 112.332 138.482 113.995 140.585 115.251C142.939 116.663 143.567 116.726 142.688 115.47C141.809 114.246 141.841 113.964 142.971 113.399L143.912 112.897L143.222 111.987C142.312 110.732 142.688 109.413 144.069 109.162C144.948 109.005 145.011 108.88 144.98 107.687C144.948 106.212 144.163 104.769 143.347 104.8C143.065 104.8 142.312 104.989 141.715 105.208Z" fill="#EFEFEF"/>
<path d="M15.849 113.901C13.0241 115.439 12.9299 115.502 11.9569 117.416C11.078 119.205 11.2663 119.393 13.5577 119.048C15.3154 118.797 16.3826 118.295 17.3242 117.259C18.0461 116.475 19.6155 113.556 19.6155 112.96C19.6155 112.269 18.1717 112.646 15.849 113.901Z" fill="#EFEFEF"/>
<path d="M197.523 114.874C196.236 116.161 196.111 116.38 196.644 116.537C197.492 116.82 198.81 116.38 199.155 115.753C199.532 115.062 199.563 113.65 199.25 113.493C199.093 113.431 198.339 114.058 197.523 114.874Z" fill="#EFEFEF"/>
<path d="M158.665 114.027C158.665 114.623 159.795 115.753 160.391 115.753C161.019 115.753 160.987 115.376 160.203 114.372C159.512 113.462 158.665 113.273 158.665 114.027Z" fill="#EFEFEF"/>
<path d="M22.5661 114.811C20.8711 115.659 16.6651 119.299 15.8177 120.68L15.1585 121.747L15.9746 122.908C17.4498 124.948 18.0776 125.607 18.2973 125.293C19.082 124.132 20.9967 122.029 21.3106 122.029C21.4989 122.029 21.9383 122.531 22.2522 123.128C23.9472 126.266 27.3999 126.172 29.032 122.939C29.8795 121.307 29.8481 120.523 28.8751 120.146C28.4043 119.958 28.0276 119.519 27.9334 118.985C27.4312 116.6 27.0546 115.721 26.1757 115C25.0144 114.027 24.261 113.995 22.5661 114.811Z" fill="#EFEFEF"/>
<path d="M121.093 118.954C122.663 121.433 122.694 121.621 121.627 122.406C120.528 123.222 120.465 123.473 121.313 123.692C121.658 123.787 121.941 124.1 121.941 124.383C121.941 125.45 125.864 129.937 128.218 131.569L129.003 132.134L127.904 131.915C126.712 131.663 125.205 130.91 123.541 129.718C122.317 128.808 120.089 128.149 119.712 128.525C119.587 128.651 119.587 129.404 119.775 130.157C119.995 131.13 119.963 131.632 119.712 131.946C119.053 132.73 116.762 132.385 116.511 131.475C116.259 130.534 112.242 130.094 111.175 130.91C110.672 131.256 110.641 131.507 111.018 133.578C111.614 137.155 110.578 140.827 108.883 141.11C107.659 141.361 107.659 141.8 108.883 142.93C109.888 143.84 110.045 144.154 109.856 144.875C109.48 146.35 108.13 147.794 106.372 148.579C105.431 148.987 104.677 149.489 104.646 149.708C104.646 149.928 104.646 150.744 104.677 151.497C104.709 152.25 104.489 153.819 104.175 155.012C103.579 157.334 103.484 156.832 105.462 162.167C105.933 163.454 105.933 163.611 105.368 164.678L104.771 165.839L105.525 167.345C105.933 168.161 106.372 169.542 106.466 170.389C106.592 171.425 106.906 172.178 107.408 172.712C107.847 173.151 110.17 174.249 112.775 175.253C115.318 176.258 117.421 177.074 117.452 177.074C117.484 177.105 116.95 178.235 116.259 179.616C115.035 182.095 113.654 186.018 113.372 187.712C113.183 188.936 113.686 189.062 116.573 188.434C119.712 187.775 122.757 187.744 123.008 188.403C123.133 188.748 123.416 188.842 123.981 188.685C124.577 188.528 125.519 188.842 127.496 189.815L130.164 191.164L133.209 190.631C134.873 190.317 137.729 189.752 139.549 189.313C143.567 188.403 144.823 188.371 146.423 189.187C147.93 189.94 147.961 189.783 147.051 187.116C146.674 186.112 146.486 184.951 146.58 184.574C146.674 184.197 148.087 182.722 149.719 181.31L152.701 178.737L148.84 174.751C145.136 170.891 143.222 168.318 142.782 166.498C142.625 165.745 142.751 165.462 143.818 164.458C145.262 163.109 151.665 159.719 154.584 158.778C157.158 157.93 158.822 156.832 159.481 155.545C160.14 154.29 159.952 152.093 158.822 147.449C157.817 143.306 156.687 140.576 155.495 139.415C154.427 138.379 154.396 138.034 155.243 136.151C156.122 134.205 156.122 131.224 155.212 128.808C154.239 126.266 153.297 125.356 151.916 125.575C151.1 125.701 150.567 125.575 149.719 124.979C145.733 122.249 146.204 122.28 142.186 124.351C140.805 125.042 139.141 126.109 138.482 126.705C137.415 127.678 137.195 127.741 135.877 127.552C133.021 127.176 132.393 126.046 134.37 124.885C136.034 123.881 135.406 123.41 132.236 123.222C130.353 123.096 129.599 122.939 129.317 122.563C129.097 122.249 128.501 122.029 127.999 122.029C126.68 122.029 126.492 121.684 127.434 120.962C128.407 120.178 128.25 119.424 127.026 118.922C126.272 118.608 120.905 117.353 120.277 117.322C120.152 117.322 120.497 118.075 121.093 118.954Z" fill="#EFEFEF"/>
<path d="M176.085 119.33C172.915 120.24 170.875 121.119 168.866 122.531C167.924 123.159 165.256 124.32 162.463 125.324C159.826 126.234 157.378 127.27 157.033 127.584C156.53 128.055 156.436 128.4 156.593 129.467C156.687 130.22 156.876 131.412 156.97 132.166C157.127 133.201 156.97 133.986 156.342 135.555C155.338 138.034 155.338 138.411 156.216 139.164C158.006 140.733 160.014 147.072 160.548 152.784C160.831 155.953 160.893 156.11 161.866 156.958C164.189 158.935 164.88 159.343 166.575 159.845C167.548 160.127 168.74 160.661 169.211 161.006C170.027 161.665 170.027 161.696 169.368 161.916C169.023 162.073 168.709 162.324 168.709 162.481C168.709 163.046 170.906 165.023 171.534 165.023C172.193 165.023 172.287 164.772 172.162 163.485C172.099 162.826 172.193 162.763 173.009 162.952C175.834 163.611 183.336 167.941 184.905 169.824C186.067 171.237 186.475 171.393 187.353 170.829C188.326 170.201 188.797 170.421 190.618 172.366C191.371 173.151 192.156 173.81 192.376 173.81C192.595 173.81 193.662 173.371 194.73 172.806C198.151 171.048 201.917 171.488 207.065 174.249C208.383 174.94 209.576 175.442 209.702 175.285C209.827 175.159 209.702 174.563 209.419 173.967C208.258 171.55 208.603 170.954 214.284 165.117L218.02 161.32L217.36 159.719C217.015 158.841 216.45 157.397 216.105 156.518C215.728 155.608 215.32 153.443 215.132 151.56C214.661 146.947 214.661 146.947 213.28 145.44C212.589 144.687 212.024 143.965 212.024 143.808C212.024 143.62 212.746 142.804 213.625 141.957C215.948 139.666 216.419 138.599 216.074 136.402C215.697 133.986 214.127 127.929 213.28 125.732C212.778 124.351 212.464 123.943 211.773 123.755C210.173 123.347 198.057 123.096 193.819 123.379C186.632 123.881 185.69 123.849 184.183 122.876C183.242 122.28 182.771 121.715 182.551 120.899C181.861 118.389 180.574 118.075 176.085 119.33Z" fill="#EFEFEF"/>
<path d="M148.934 120.931C148.934 122.594 150.472 123.598 151.132 122.374C151.383 121.872 151.289 121.652 150.629 121.119C149.656 120.366 148.934 120.272 148.934 120.931Z" fill="#EFEFEF"/>
<path d="M11.5489 122.845L11.7058 124.32L9.66558 124.1C7.7823 123.912 7.62536 123.943 7.46842 124.54C7.31148 125.167 7.28009 125.167 6.55817 124.383C5.36542 123.096 3.54491 123.504 2.32078 125.356C1.50469 126.642 1.56747 127.05 2.63466 127.05C5.08293 127.05 5.20848 128.274 2.97993 130.502C2.13245 131.381 1.41053 132.228 1.41053 132.385C1.41053 133.076 3.0427 133.672 5.64791 133.986C7.15454 134.143 8.53561 134.362 8.69255 134.456C9.22615 134.802 8.78672 135.429 7.37426 136.528C6.30706 137.344 5.93041 137.814 5.86763 138.599C5.77347 139.446 5.89902 139.666 6.58955 139.917C7.02899 140.105 7.84508 140.231 8.41006 140.231C9.69697 140.231 9.19476 140.639 7.06038 141.329C4.58072 142.114 3.60769 142.898 3.60769 144.028C3.60769 145.346 2.88576 146.57 1.34775 147.919C0.594435 148.547 0.249167 148.986 0.531659 148.892C0.84554 148.798 1.78718 148.641 2.66605 148.516C4.14129 148.327 4.23545 148.359 4.23545 149.018C4.23545 149.426 4.48655 149.771 4.86321 149.865C5.30264 149.991 5.49097 150.305 5.49097 150.932C5.49097 151.623 5.64791 151.842 6.11873 151.842C7.06038 151.842 10.6072 150.148 11.3605 149.363C11.8 148.892 12.4591 148.641 13.3066 148.579C14.2482 148.516 14.9074 148.202 15.8176 147.355C17.2929 146.037 17.8579 145.723 19.3017 145.409C19.8981 145.283 20.7142 144.875 21.1222 144.53C21.8128 143.871 21.8442 143.871 22.7858 144.436C24.0413 145.158 24.3552 144.875 25.2968 142.114C27.086 136.81 26.0502 129.09 23.0683 125.638C22.4091 124.854 21.75 123.912 21.6244 123.535C21.4361 122.876 21.3106 122.939 19.7412 124.697L18.0776 126.548L16.1315 124.446C14.2169 122.343 12.8986 121.401 11.8941 121.401C11.4547 121.401 11.3919 121.653 11.5489 122.845Z" fill="#EFEFEF"/>
<path d="M102.166 133.641C100.44 134.049 99.7179 135.304 99.9062 137.501C99.9376 137.815 100.377 138.411 100.879 138.85C101.915 139.729 102.888 141.894 102.637 142.773C102.292 143.871 100.628 144.938 99.3099 144.938C97.5835 144.938 96.8302 143.715 96.8302 140.796C96.8302 137.72 96.0769 137.595 95.1353 140.514C94.8214 141.455 93.817 143.746 92.9067 145.597L91.1804 148.987L93.0009 149.332C96.5477 150.022 96.5791 150.054 94.5075 150.995C93.5031 151.466 92.5614 151.843 92.4045 151.843C92.2789 151.843 92.0906 151.968 91.9964 152.094C91.9337 152.219 92.8439 152.282 94.0367 152.219C96.1083 152.094 96.2966 152.125 98.3368 153.38C99.4982 154.071 100.911 154.824 101.507 155.012C102.48 155.357 102.637 155.326 103.202 154.636C103.704 154.008 103.767 153.6 103.61 152.156C103.202 148.767 103.139 149.018 104.74 148.39C106.749 147.637 107.91 146.759 108.601 145.441L109.197 144.311L108.193 143.275C106.969 142.02 106.969 141.8 108.004 140.827C109.228 139.729 110.641 137.407 110.641 136.528C110.641 135.524 109.134 134.08 107.628 133.672C106.215 133.296 103.767 133.264 102.166 133.641Z" fill="#EFEFEF"/>
<path d="M93.6914 153.757C89.1088 155.451 89.0774 155.451 87.4138 155.012C86.5663 154.792 85.4364 154.698 84.9342 154.823C83.1764 155.2 81.7012 157.271 82.2034 158.621C82.3603 159.06 82.6742 159.091 83.9611 158.935C85.4991 158.715 85.4991 158.715 86.1269 159.907C86.8802 161.382 87.4452 161.916 89.5168 162.952C91.4315 163.924 92.2476 164.929 91.9651 166.058C91.5884 167.533 92.7498 167.408 94.7272 165.776C95.7944 164.866 96.2025 164.834 96.2025 165.588C96.2025 166.717 97.8346 169.448 98.9646 170.201C101.13 171.676 102.355 171.048 102.009 168.694C101.758 167.063 102.574 164.866 103.296 165.148C103.987 165.399 104.771 163.956 104.52 162.857C104.269 161.696 103.014 160.315 102.229 160.315C101.381 160.315 101.005 159.782 100.754 158.119C100.471 156.424 99.969 155.765 98.0544 154.823C97.2697 154.416 96.4536 153.851 96.2339 153.6C95.7316 152.972 95.7944 152.972 93.6914 153.757Z" fill="#EFEFEF"/>
<path d="M78.1229 157.93C76.8674 158.495 75.8002 159.876 75.8002 160.943C75.8002 164.175 73.6658 167.094 69.8679 169.071C66.886 170.609 66.3838 171.08 66.3838 172.209C66.3838 173.527 65.8502 173.81 63.2764 173.81C60.1689 173.81 57.7521 173.151 56.936 172.115C56.2454 171.236 53.8286 169.824 53.8286 170.295C53.8286 170.452 54.0483 171.268 54.2994 172.115C54.5505 172.963 54.9899 174.783 55.241 176.164C55.5235 177.544 55.806 178.988 55.9002 179.364C56.0257 180.024 55.9316 180.086 54.7074 180.086C53.295 180.086 50.0934 180.526 48.9006 180.902C48.367 181.059 47.8334 180.745 46.4837 179.459L44.7574 177.827L43.2822 178.768C42.4347 179.333 41.2419 179.835 40.3631 179.929C37.0359 180.369 36.5965 180.463 36.1885 180.934C35.8746 181.342 35.906 181.498 36.4082 181.844C38.1973 183.13 38.2287 183.193 38.0404 185.139L37.8834 186.99H38.9192C39.4842 186.99 41.1478 187.493 42.5916 188.12C44.0041 188.748 46.2013 189.501 47.394 189.783C49.4342 190.286 49.5912 190.38 49.5912 191.196C49.6226 191.761 50.0306 192.42 50.9409 193.235C52.008 194.208 52.2591 194.648 52.2591 195.526C52.2591 197.315 54.3622 199.951 56.8104 201.207C58.9134 202.274 58.9134 202.242 58.3798 208.519C57.6893 216.678 56.7476 222.201 55.4293 225.685C54.9271 226.971 54.9899 227.474 55.6804 227.474C56.4024 227.474 56.8418 228.038 56.7163 228.792C56.6535 229.074 56.9674 229.545 57.4068 229.827C59.0076 230.894 61.2361 231.302 66.5407 231.553C72.5672 231.867 74.6702 232.338 76.5849 233.844C77.6835 234.723 78.0601 234.848 79.7551 234.848C82.3917 234.848 83.145 234.284 83.8355 231.836C84.4633 229.576 85.5933 228.352 88.3554 226.877C91.0548 225.434 92.3731 225.528 98.5565 227.474C101.287 228.321 103.736 229.043 103.987 229.043C104.709 229.043 106.09 228.195 108.35 226.312C109.574 225.308 111.018 224.241 111.551 223.959C112.461 223.457 113.78 221.731 113.78 221.009C113.78 220.821 113.372 220.726 112.838 220.821C111.645 220.977 110.61 220.318 109.385 218.624C108.632 217.62 108.444 216.992 108.444 215.737C108.412 214.858 108.224 213.791 107.973 213.352C107.282 212.159 107.408 211.845 108.758 210.998C109.448 210.558 110.013 210.025 110.013 209.837C110.013 209.617 109.637 208.487 109.166 207.295C108.475 205.537 108.381 205.035 108.695 204.533C109.228 203.686 109.166 202.995 108.381 201.834C107.471 200.516 106.843 200.548 104.677 201.897C103.736 202.462 102.919 202.901 102.857 202.87C102.825 202.807 103.076 202.274 103.422 201.646C103.861 200.924 104.018 200.265 103.893 199.763C103.736 199.135 103.893 198.853 104.677 198.288C105.242 197.88 105.901 197.064 106.152 196.436C106.404 195.809 107.188 194.71 107.847 193.957C108.538 193.235 109.166 192.231 109.26 191.729C109.417 191.07 109.731 190.694 110.327 190.474C111.426 190.097 111.896 189.219 113.183 185.233C113.717 183.507 114.502 181.373 114.91 180.431C115.318 179.521 115.663 178.392 115.663 177.921C115.663 177.199 115.412 177.042 113.686 176.446C112.618 176.069 110.045 175.065 107.942 174.218C105.87 173.339 103.328 172.429 102.292 172.209C101.005 171.927 99.6865 171.299 97.9916 170.138C94.8528 168.004 93.9111 167.533 92.7811 167.533C91.6826 167.533 91.4315 167.188 91.1804 165.494C91.0234 164.364 90.9292 164.238 89.8934 164.081C88.1043 163.767 86.5977 162.669 85.8758 161.069L85.2166 159.656L83.6472 159.876L82.0464 160.096L81.5442 158.778C81.1048 157.648 80.9165 157.491 80.069 157.491C79.5354 157.522 78.6565 157.711 78.1229 157.93Z" fill="#EFEFEF"/>
<path d="M156.781 159.029C152.042 160.347 145.827 163.36 144.415 165.054C143.787 165.776 143.661 166.215 143.787 166.843C144.132 168.318 146.172 170.954 149.688 174.5C153.109 177.984 155.463 179.772 156.562 179.772C156.876 179.772 157.974 178.957 159.01 177.984L160.893 176.195L162.369 176.603C163.185 176.854 164.566 177.23 165.413 177.482C167.83 178.172 173.103 178.423 173.543 177.858C173.762 177.576 174.453 177.419 175.332 177.419C177.152 177.419 179.193 176.163 179.82 174.594C180.166 173.81 180.856 173.151 182.206 172.303C184.654 170.797 184.654 170.107 182.206 168.443C180.009 166.968 174.924 164.395 174.202 164.395C173.919 164.395 173.26 164.74 172.727 165.18C172.224 165.619 171.659 165.964 171.502 165.964C170.937 165.964 168.081 163.046 167.893 162.293C167.642 161.351 166.575 160.786 164.095 160.284C162.525 159.97 162.117 159.751 162.055 159.248C161.96 158.684 161.709 158.589 160.391 158.527C159.544 158.495 157.911 158.715 156.781 159.029Z" fill="#EFEFEF"/>
<path d="M103.014 166.811C102.888 166.906 102.794 167.627 102.794 168.349C102.794 171.017 103.924 172.366 105.054 171.017C105.776 170.075 105.776 168.883 104.991 167.596C104.426 166.686 103.516 166.309 103.014 166.811Z" fill="#EFEFEF"/>
<path d="M186.945 172.146C186.066 172.837 185.815 172.9 185.282 172.586C184.905 172.366 184.277 172.272 183.712 172.397C182.551 172.68 180.636 174.312 180.636 175.065C180.636 175.912 178.439 177.732 176.681 178.329C174.296 179.176 173.637 179.553 173.135 180.431C172.193 182.095 173.7 185.201 176.305 186.896C177.435 187.649 177.906 187.775 179.601 187.712C182.645 187.618 183.963 187.147 184.34 186.08C184.685 185.107 184.999 184.95 187.291 184.637C188.075 184.542 188.923 184.229 189.111 184.009C189.362 183.695 190.084 183.538 191.183 183.538C192.595 183.538 192.972 183.413 193.662 182.691C194.102 182.22 194.447 181.718 194.447 181.624C194.447 180.557 201.384 180.4 202.514 181.404C203.361 182.157 204.24 182.095 205.056 181.247C205.684 180.588 207.944 176.038 207.944 175.473C207.944 175.096 203.33 173.245 201.384 172.837C198.81 172.303 196.644 172.648 194.259 173.967C191.716 175.379 190.963 175.316 190.429 173.653C190.053 172.397 189.048 171.299 188.358 171.299C188.169 171.299 187.542 171.676 186.945 172.146Z" fill="#EFEFEF"/>
<path d="M158.979 178.988C157.001 180.62 156.311 180.871 155.086 180.432C153.36 179.773 152.638 180.024 149.939 182.126C147.114 184.354 146.988 184.637 147.836 186.99C148.432 188.654 148.432 190.097 147.867 190.317C147.616 190.411 146.957 190.254 146.423 189.972C145.136 189.313 143.065 189.313 140.617 189.972C139.581 190.254 137.195 190.756 135.281 191.102C133.397 191.447 131.42 191.823 130.949 191.917C130.415 192.012 129.568 191.855 128.846 191.541C127.12 190.756 126.649 191.039 126.649 192.796C126.649 193.926 126.837 194.428 127.465 195.056C128.281 195.872 128.281 195.872 131.043 195.275C131.608 195.15 132.016 195.307 132.424 195.746C133.178 196.562 134.151 196.593 135.5 195.778C136.097 195.464 137.603 194.93 138.89 194.648C140.177 194.365 141.527 194.083 141.903 193.989C142.374 193.895 142.782 194.114 143.316 194.836C145.293 197.441 146.549 198.006 152.167 198.822C155.432 199.292 155.651 199.292 158.979 198.633C167.171 197.001 169.305 195.683 169.368 192.106C169.431 189.595 169.682 189.093 171.345 188.309L172.884 187.555L172.695 185.641C172.444 183.099 171.659 180.526 170.875 179.741C170.529 179.396 169.839 179.145 169.211 179.145C168.615 179.145 166.92 178.8 165.445 178.36C161.615 177.262 161.019 177.293 158.979 178.988Z" fill="#EFEFEF"/>
<path d="M196.895 181.624C196.205 181.781 195.169 182.377 194.322 183.162C193.066 184.323 192.721 184.48 191.434 184.48C190.492 184.48 189.739 184.668 189.394 184.982C189.08 185.265 188.169 185.578 187.416 185.641C186.255 185.798 185.815 186.018 185.188 186.865C184.183 188.183 182.52 188.654 179.506 188.497C177.654 188.403 177.058 188.246 175.96 187.493C175.238 186.991 174.61 186.645 174.578 186.708C174.516 186.771 174.233 187.242 173.919 187.712C173.605 188.214 172.883 188.811 172.318 189.062C171.565 189.376 171.283 189.658 171.44 189.972C171.534 190.254 171.377 190.725 171.094 191.039C170.372 191.855 169.651 194.303 169.651 195.997C169.651 197.347 170.341 199.041 171.44 200.391C172.978 202.211 179.192 205.506 181.233 205.569C181.704 205.6 182.52 205.318 183.022 204.941C184.215 204.063 186.412 203.498 192.093 202.525C194.698 202.085 197.335 201.583 197.963 201.395C199.187 201.081 200.411 199.826 200.411 198.916C200.411 196.468 207.191 186.991 208.948 186.991C210.047 186.991 209.921 186.237 208.572 185.045C207.316 183.947 204.899 182.911 203.487 182.911C203.173 182.911 202.514 182.628 202.043 182.283C201.07 181.561 198.653 181.248 196.895 181.624Z" fill="#EFEFEF"/>
<path d="M237.355 182.66C236.476 182.911 236.193 183.099 236.35 183.476C236.727 184.449 241.655 192.514 242.628 193.738C243.915 195.37 243.977 195.652 244.386 201.583C244.542 204.345 244.825 206.73 245.013 206.918C245.484 207.389 246.677 205.914 248.435 202.588C249.345 200.924 250.318 199.387 250.663 199.23C250.977 199.041 251.824 199.01 252.515 199.104C254.492 199.418 255.811 197.943 254.43 196.97C254.116 196.75 253.488 195.84 253.049 194.993C252.609 194.114 251.699 192.702 250.977 191.855C249.502 190.097 249.439 189.595 250.349 188.434C251.165 187.399 250.977 186.802 249.721 186.52C249.188 186.394 248.592 186.049 248.435 185.704C248.183 185.265 247.775 185.108 246.897 185.108C246.112 185.108 245.61 184.951 245.515 184.637C245.264 184.009 243.256 183.068 241.278 182.628C239.363 182.22 238.987 182.22 237.355 182.66Z" fill="#EFEFEF"/>
<path d="M232.144 185.139C230.543 186.174 227.059 187.555 224.58 188.12C223.073 188.497 222.791 188.465 222.1 187.995C220.468 186.834 219.997 186.645 218.898 186.834C218.239 186.928 216.513 186.771 215.006 186.52C213.5 186.237 211.962 186.112 211.585 186.237C211.24 186.331 210.204 186.99 209.294 187.681C208.383 188.371 207.536 188.842 207.379 188.748C206.971 188.497 203.675 193.612 201.917 197.252C200.285 200.673 199.658 201.332 196.738 202.807C195.828 203.278 195.075 203.686 195.075 203.749C195.075 203.78 195.64 204.408 196.33 205.129C197.021 205.82 197.586 206.636 197.586 206.918C197.586 207.954 198.559 209.272 199.783 209.899C201.133 210.59 201.792 211.531 201.572 212.41C201.196 213.854 203.832 215.517 206.406 215.548C208.823 215.548 210.706 216.49 209.356 216.992C208.603 217.306 208.791 217.839 210.141 219.157C210.989 219.973 211.397 220.664 211.397 221.228C211.397 222.107 211.993 222.452 213.594 222.452C214.033 222.452 215.257 222.766 216.262 223.111C217.925 223.708 218.585 223.77 222.069 223.614C226.463 223.394 228.252 222.986 231.014 221.574C234.059 220.005 235.189 219.785 237.825 220.224C240.556 220.664 242.596 221.542 243.067 222.421C243.35 222.923 243.726 223.08 244.668 223.08C246.049 223.08 246.551 222.515 246.551 221.009C246.551 218.938 248.623 212.724 249.313 212.724C249.47 212.724 249.816 213.038 250.098 213.414C250.538 214.105 250.632 214.105 251.448 213.665C251.95 213.383 252.672 212.693 253.049 212.128C253.708 211.186 253.739 210.966 253.331 210.402C252.735 209.46 250.914 209.366 249.565 210.182C248.089 211.092 245.924 211.061 245.076 210.119C244.166 209.115 244.103 208.864 243.569 203.403C243.287 200.673 242.942 197.88 242.753 197.19C242.063 194.679 237.606 186.802 235.848 185.013C234.781 183.946 233.902 183.978 232.144 185.139Z" fill="#EFEFEF"/>
<path d="M119.273 189.846C115.506 190.286 113.372 190.788 111.896 191.541C110.076 192.451 107.408 195.307 106.906 196.813C106.655 197.566 106.184 198.163 105.587 198.445C103.987 199.292 104.583 199.983 106.874 200.014C108.099 200.014 108.35 200.14 108.915 201.05C110.892 204.251 110.704 204.094 112.43 204.094C114.408 204.063 115.537 203.498 115.946 202.337C116.259 201.458 117.923 200.171 118.739 200.171C118.959 200.171 119.335 200.642 119.587 201.207C119.838 201.803 120.246 202.431 120.497 202.65C121.219 203.247 122.349 202.431 123.541 200.485C124.075 199.606 124.64 198.916 124.828 198.916C124.985 198.916 125.55 199.198 126.052 199.575C126.586 199.952 127.214 200.14 127.559 200.014C128.218 199.826 130.729 197.221 130.729 196.751C130.729 196.594 130.164 196.531 129.474 196.625C128.375 196.782 128.124 196.688 127.151 195.715C126.115 194.679 125.393 192.922 125.393 191.447C125.393 191.039 125.236 190.443 125.079 190.097C124.703 189.438 123.259 189.376 119.273 189.846Z" fill="#EFEFEF"/>
<path d="M137.666 195.746C137.101 195.903 136.191 196.342 135.657 196.75C134.967 197.253 134.308 197.441 133.335 197.378C132.142 197.347 131.985 197.41 131.985 198.006C131.985 198.351 131.577 199.041 131.043 199.481C130.541 199.951 130.102 200.548 130.102 200.862C130.102 201.144 129.788 201.552 129.442 201.772C128.532 202.242 126.523 201.646 125.864 200.705L125.362 200.014L124.452 201.018C123.604 201.96 122.882 203.749 122.882 204.941C122.882 205.945 122.098 205.538 119.995 203.466C117.641 201.113 116.919 200.893 116.919 202.493C116.919 204 115.946 204.659 112.807 205.286C111.363 205.6 110.076 205.945 109.919 206.102C109.762 206.259 109.919 207.012 110.296 207.86C110.672 208.676 110.955 209.523 110.955 209.711C110.955 209.9 110.358 210.559 109.637 211.186L108.35 212.316L109.166 213.822C110.17 215.58 110.202 215.831 109.48 216.333C108.977 216.71 109.009 216.835 109.762 217.965C110.547 219.126 112.21 220.256 113.215 220.256C113.811 220.256 114.408 220.915 114.408 221.574C114.408 222.515 115.067 222.233 117.86 220.099C122.349 216.647 121.533 216.835 124.86 218.436C129.694 220.789 130.572 221.825 131.514 226.438C132.079 229.137 132.424 229.671 136.85 234.503C140.114 238.05 144.509 242.035 146.109 242.851C146.706 243.165 148.056 243.573 149.091 243.793C152.01 244.389 153.109 244.954 154.678 246.617C155.777 247.778 156.53 248.28 157.566 248.531C158.853 248.845 159.073 249.065 160.014 250.791C160.83 252.391 161.301 252.862 162.588 253.521C164.44 254.431 165.413 256 166.637 259.954C167.83 263.814 167.893 264.568 167.108 265.572C166.323 266.545 165.256 269.244 165.256 270.154C165.256 270.938 166.48 271.503 167.077 271.001C167.924 270.311 169.399 267.894 169.933 266.294C170.404 264.944 170.718 264.536 171.879 263.877C173.072 263.155 173.26 262.904 173.354 261.869C173.448 260.77 173.292 260.519 171.565 258.856C169.745 257.13 169.682 256.973 169.996 256.126C170.184 255.655 171.094 254.211 172.036 252.956C173.417 251.105 173.919 250.697 174.61 250.697C175.865 250.697 178.502 252.329 179.914 253.992C181.107 255.404 181.139 255.435 181.704 254.808C182.206 254.243 182.206 254.149 181.766 253.239C181.013 251.826 177.968 249.504 172.664 246.335C170.027 244.797 167.516 243.165 167.014 242.694C166.198 241.941 166.166 241.847 166.637 241.188C167.359 240.184 167.548 239.713 167.328 239.462C167.202 239.368 165.664 239.273 163.907 239.242C160.956 239.242 160.579 239.179 159.167 238.332C156.028 236.48 154.333 234.127 152.356 228.76C151.194 225.716 149.719 224.022 147.114 222.798C145.544 222.045 145.45 222.045 145.042 222.609C144.289 223.645 143.693 222.986 143.504 220.821C143.379 219.754 143.222 217.902 143.096 216.772C142.939 215.14 143.002 214.544 143.41 213.948C143.85 213.226 143.85 213.007 143.379 211.375C142.657 208.77 142.908 208.393 146.392 206.95C147.961 206.291 149.468 205.538 149.719 205.286C150.315 204.69 150.347 201.772 149.75 200.359C149.374 199.449 149.06 199.23 147.177 198.633C145.136 198.037 144.571 197.723 142.594 196.311C141.652 195.652 139.173 195.37 137.666 195.746Z" fill="#EFEFEF"/>
<path d="M164.471 198.131C162.494 198.79 158.853 199.481 154.49 200.014C151.634 200.391 151.1 201.897 152.732 205.13C154.208 208.079 155.746 209.021 156.938 207.703C157.66 206.918 158.382 206.918 159.952 207.734C161.552 208.519 161.929 208.393 161.929 207.044C161.96 206.134 162.117 205.914 163.153 205.443C163.781 205.13 164.315 204.69 164.346 204.47C164.346 204.282 164.377 203.623 164.409 203.027C164.471 202.085 164.723 201.74 166.292 200.548C170.09 197.661 169.274 196.562 164.471 198.131Z" fill="#EFEFEF"/>
<path d="M166.92 201.238C165.696 201.803 165.131 202.776 165.382 204.063C165.57 205.098 165.35 205.632 164.66 205.851C164.44 205.945 163.938 206.573 163.53 207.232C163.153 207.923 162.494 208.676 162.086 208.895C161.082 209.429 159.575 209.115 158.884 208.236C158.351 207.546 158.351 207.546 157.88 208.142C157.158 209.084 157.315 209.711 158.665 211.343C159.387 212.191 160.014 213.226 160.109 213.665C160.454 215.235 161.019 216.302 162.18 217.651C163.216 218.844 163.31 219.095 162.996 219.754C162.557 220.727 163.373 221.95 165.507 223.488C167.673 225.057 168.175 225.277 170.435 225.559C172.193 225.748 172.476 225.716 172.319 225.34C172.224 225.089 171.032 223.3 169.682 221.386C166.951 217.557 164.942 213.917 164.942 212.787C164.942 212.379 165.099 211.783 165.256 211.437C165.57 210.904 165.947 210.841 168.96 210.841C173.762 210.872 181.798 211.626 183.461 212.253C184.246 212.536 185.094 212.85 185.376 212.912C185.69 213.038 186.035 212.661 186.475 211.72C186.945 210.653 187.228 210.37 187.856 210.37C188.954 210.37 189.08 211.375 188.013 211.783C187.322 212.034 187.259 212.191 187.542 212.693C187.699 213.038 188.013 213.414 188.17 213.509C188.546 213.76 188.578 215.768 188.201 215.988C188.044 216.082 187.761 216.615 187.573 217.149C187.259 218.059 187.322 218.185 188.735 219.691L190.178 221.26L189.111 222.139L188.013 223.017L188.891 223.833C189.362 224.273 189.739 224.743 189.739 224.9C189.739 225.371 188.986 225.905 188.295 225.905C187.856 225.905 187.259 226.313 186.726 227.003C186.161 227.756 185.658 228.101 185.25 228.039C184.748 227.976 184.529 228.196 184.34 229.011C184.152 229.639 183.807 230.11 183.43 230.204C183.085 230.298 182.834 230.643 182.834 231.051C182.865 232.558 185.25 236.575 186.129 236.575C186.349 236.575 187.259 235.853 188.107 234.943C189.425 233.593 189.864 233.311 190.775 233.311C192.501 233.311 194.792 234.88 195.609 236.637L196.33 238.112L198.653 237.014C200.505 236.135 201.572 235.853 203.895 235.633C207.379 235.319 207.787 235.005 207.787 232.777C207.787 231.302 207.881 231.114 209.137 230.047C210.518 228.855 210.769 228.196 209.984 227.913C209.294 227.631 207.724 224.963 207.316 223.363C207.002 222.139 207.034 221.731 207.442 220.946C208.007 219.848 208.101 217.212 207.63 216.49C207.348 216.082 207.191 216.145 206.594 216.866C206.186 217.369 205.778 217.745 205.684 217.745C205.559 217.745 204.554 217.118 203.456 216.333C202.074 215.392 201.321 214.607 201.07 213.917C200.285 211.814 199.752 210.967 198.622 210.213C197.868 209.711 197.241 208.864 196.738 207.703C195.828 205.632 194.07 203.717 192.815 203.466C191.811 203.215 187.165 204.157 186.38 204.753C185.847 205.098 185.847 205.255 186.38 207.264C186.883 209.084 186.883 209.429 186.506 209.805C185.721 210.59 185.031 209.523 185.031 207.577C185.031 205.977 184.654 205.192 183.901 205.192C183.712 205.192 183.461 205.475 183.367 205.82C182.991 207.295 179.318 206.259 173.668 203.121C169.651 200.893 168.458 200.548 166.92 201.238Z" fill="#EFEFEF"/>
<path d="M165.758 211.971C165.601 212.504 165.821 213.352 166.355 214.544C167.642 217.337 171.597 223.08 173.543 224.9C174.516 225.842 175.3 226.846 175.3 227.128C175.3 228.164 177.121 230.235 179.412 231.867C180.668 232.714 181.829 233.436 182.017 233.436C182.237 233.436 182.331 232.903 182.269 232.024C182.08 229.765 184.089 226.815 185.47 227.348C185.878 227.505 185.941 227.317 185.878 226.312C185.815 225.183 185.878 225.12 186.757 225.026C188.452 224.869 188.515 224.775 187.824 223.582C187.448 222.892 187.228 222.076 187.259 221.291C187.322 220.381 187.165 219.879 186.663 219.377C186.286 219 185.972 218.498 185.972 218.247C185.972 217.369 186.6 216.176 187.071 216.176C187.573 216.176 188.044 214.827 187.699 214.293C187.573 214.105 187.071 214.042 186.475 214.168C185.753 214.293 184.905 214.105 183.587 213.571C181.829 212.818 180.479 212.567 174.076 211.782C170.027 211.312 169.682 211.343 169.274 212.316C169.054 212.818 168.866 213.257 168.834 213.32C168.772 213.383 168.301 212.912 167.767 212.285C166.575 210.935 166.041 210.872 165.758 211.971Z" fill="#EFEFEF"/>
<path d="M208.729 221.04C208.258 221.479 207.944 222.17 207.944 222.672C207.944 223.896 209.67 226.783 210.8 227.411C212.307 228.289 211.93 230.298 210.235 230.298C209.325 230.298 209.011 230.957 208.76 233.279C208.509 235.664 208.886 236.919 210.298 238.489C211.397 239.713 211.522 240.058 211.397 241.658C211.365 242.317 211.554 242.631 212.15 242.882C212.809 243.196 213.468 243.133 215.634 242.6C219.087 241.721 220.279 241.721 222.853 242.694C224.36 243.259 225.615 243.51 227.122 243.51C229.978 243.51 231.485 242.757 232.584 240.717C234.027 238.081 236.884 237.108 239.52 238.363C240.65 238.897 240.65 238.897 241.278 238.143C242.22 236.982 241.466 234.785 240.211 235.099C239.175 235.382 239.238 234.66 240.368 233.028C240.996 232.118 241.906 230.392 242.377 229.199C243.13 227.379 243.444 226.909 244.511 226.344C246.363 225.308 246.645 224.994 246.206 224.461C246.018 224.21 245.547 224.021 245.202 224.021C244.856 224.021 243.13 223.362 241.404 222.515C238.547 221.197 238.014 221.04 235.974 221.04C233.902 221.04 233.525 221.166 230.669 222.609L227.624 224.178L221.943 224.147C216.262 224.084 211.836 223.519 210.894 222.735C210.643 222.546 210.455 221.887 210.455 221.322C210.455 220.004 209.827 219.91 208.729 221.04Z" fill="#EFEFEF"/>
<path d="M14.0599 224.806C13.4322 225.057 12.9613 225.528 12.8358 226.03C12.5219 227.285 11.5489 227.913 9.6342 228.101C8.0648 228.227 7.81369 228.384 7.31148 229.231C6.7465 230.204 6.7465 230.204 7.84508 232.275C8.44145 233.405 9.06921 235.099 9.19477 236.01L9.44587 237.673H11.3605C12.8358 237.673 13.4008 237.798 13.7146 238.206C14.1855 238.834 15.5665 239.399 16.6337 239.399C17.0104 239.399 17.952 239.116 18.7053 238.771C20.4003 238.018 23.1311 237.924 23.8216 238.646C24.1041 238.897 24.3238 239.462 24.3238 239.87C24.3238 240.246 24.6063 240.905 24.9202 241.313C25.6107 242.192 25.4852 242.694 23.853 245.142C22.88 246.585 22.6916 247.244 22.4719 249.41C22.315 250.791 22.0011 252.171 21.7814 252.454C21.5303 252.736 21.3419 253.741 21.3419 254.651C21.3106 256.031 21.1536 256.534 20.3061 257.569C19.1134 259.075 19.082 259.452 20.0236 260.99C21.185 262.841 21.185 263.061 20.1806 265.101L19.2389 267.015L19.8981 268.271C20.7456 269.934 20.7456 270.153 19.5842 271.597C17.544 274.139 17.7637 275.175 20.6514 276.618C22.9427 277.779 23.8216 278.689 25.7677 281.985C27.4626 284.84 28.9692 286.378 29.7853 286.064C30.0364 285.97 30.5386 285.28 30.9467 284.558C31.9197 282.832 32.83 282.204 35.1527 281.608C37.601 281.012 44.5691 280.196 47.4568 280.196C48.681 280.196 50.0934 280.039 50.5328 279.882C51.0037 279.694 52.4475 278.47 53.7972 277.12C55.1155 275.771 56.6849 274.484 57.2813 274.265C57.8777 274.045 58.6937 273.731 59.1018 273.574C59.5412 273.417 59.7923 273.041 59.7923 272.601C59.7923 271.597 61.0478 269.526 62.9311 267.36C63.9356 266.231 64.5005 265.258 64.5005 264.756C64.5005 264.316 63.9983 262.873 63.3706 261.492C62.6486 259.954 62.3348 258.919 62.4917 258.668C64.8458 255.341 69.2401 248.751 69.6168 247.966C70.2759 246.679 71.5628 245.926 75.5805 244.451C82.7998 241.752 85.5619 238.928 84.432 235.35C84.1808 234.503 83.4589 234.503 83.0195 235.319C82.737 235.853 82.3603 235.947 80.8223 235.947C79.7865 235.947 78.4054 235.727 77.7463 235.476C77.0871 235.194 76.0827 235.037 75.5177 235.068C74.5761 235.162 74.4192 235.037 74.1367 234.221C73.9797 233.687 73.6658 233.185 73.4775 233.06C73.2892 232.934 71.657 232.809 69.8365 232.809C62.9625 232.809 58.4113 231.804 56.1199 229.827C55.398 229.231 54.4564 228.603 53.9541 228.415C53.0753 228.07 49.1204 227.756 38.6054 227.16C34.933 226.971 32.0767 226.626 30.4445 226.218C28.5612 225.748 26.9604 225.591 23.9785 225.622C20.5886 225.622 19.7725 225.528 18.5798 224.994C16.9162 224.241 15.5038 224.178 14.0599 224.806Z" fill="#EFEFEF"/>
<path d="M123.039 233.373C122.694 233.436 122.035 233.781 121.564 234.126C120.811 234.66 120.685 234.942 120.717 236.198C120.748 238.332 121.407 241.815 121.847 242.254C122.725 243.133 125.142 239.524 125.582 236.7C125.896 234.503 124.766 233.028 123.039 233.373Z" fill="#EFEFEF"/>
<path d="M189.708 234.441C188.358 234.88 188.013 236.135 188.64 238.269C189.048 239.682 189.111 240.843 188.986 243.887C188.609 251.544 188.735 252.58 190.178 253.584C191.528 254.494 192.25 255.435 192.25 256.251C192.25 256.659 192.376 256.973 192.532 256.973C193.035 256.973 194.949 254.525 196.017 252.548C196.55 251.513 197.209 250.571 197.46 250.477C198.151 250.226 197.994 249.598 196.582 246.837C195.263 244.389 195.232 244.201 195.295 241.627C195.389 237.736 194.322 235.696 191.622 234.598C190.869 234.284 190.273 234.221 189.708 234.441Z" fill="#EFEFEF"/>
<path d="M200.536 237.171C200.222 237.516 199.626 237.83 199.249 237.83C197.178 237.83 195.2 242.6 196.362 244.828C197.868 247.778 201.039 248.249 204.366 246.021C205.182 245.487 206.249 245.048 206.751 245.048C207.881 245.048 209.388 244.295 209.827 243.51C210.361 242.506 210.172 240.56 209.419 239.273C208.383 237.39 207.065 236.794 203.832 236.637C201.352 236.512 201.039 236.574 200.536 237.171Z" fill="#EFEFEF"/>
<path d="M10.5758 238.803C9.22616 239.211 9.06922 239.713 9.69698 241.941C10.9211 246.366 9.60282 254.839 6.87205 260.205C6.02458 261.837 5.80486 262.653 5.86764 263.657C5.9618 264.881 6.02458 264.975 6.93483 265.007C8.09619 265.07 8.88089 265.446 9.82253 266.482C10.5131 267.204 10.5445 267.392 10.2306 269.086C9.69698 272.35 9.50865 275.614 9.85392 276.493C10.105 277.183 10.4817 277.371 11.9883 277.717C14.7191 278.281 15.441 278.219 16.4454 277.246C17.136 276.587 17.3871 276.022 17.5126 274.704C17.6068 273.731 18.0148 272.444 18.4856 271.628C19.4273 270.028 19.4901 269.243 18.7995 267.925C18.3287 267.015 18.3601 266.89 19.2703 265.132C20.3689 263.061 20.3689 263.061 18.6112 260.048C17.952 258.919 17.4184 257.852 17.4184 257.695C17.4184 257.569 18.0776 257.224 18.9251 256.973L20.4003 256.502L20.4317 254.713C20.4317 253.678 20.6514 252.705 20.9025 252.391C21.1536 252.077 21.4047 250.822 21.5303 249.473C21.6558 247.401 21.8755 246.805 22.8486 245.173C24.2924 242.882 24.3866 241.439 23.1938 240.058C22.5347 239.242 22.158 239.085 21.0595 239.085C20.1492 239.085 19.4587 239.305 18.9565 239.744C18.2973 240.309 17.8893 240.372 15.9118 240.278C13.9344 240.183 13.5577 240.058 12.8672 239.305C11.9883 238.363 12.0511 238.395 10.5758 238.803Z" fill="#EFEFEF"/>
<path d="M235.346 238.928C233.996 239.493 233.243 240.686 233.525 241.878C233.651 242.506 233.525 243.165 233.086 243.949C232.144 245.707 232.803 248.217 234.467 249.316C235.534 250.006 236.507 249.692 238.39 248.029C240.274 246.366 241.372 246.021 246.018 245.738L249.533 245.519L247.713 244.671C245.421 243.604 244.511 242.882 243.287 241.188C242.094 239.525 241.906 239.43 240.713 239.462C240.179 239.493 239.395 239.274 238.987 238.991C238.108 238.363 236.695 238.332 235.346 238.928Z" fill="#EFEFEF"/>
<path d="M216.576 243.353C215.728 243.604 214.033 243.949 212.841 244.106C211.177 244.295 210.549 244.514 210.141 245.048C209.764 245.55 209.137 245.769 207.505 245.989C205.558 246.24 203.33 247.276 202.734 248.249C202.639 248.374 201.949 248.5 201.196 248.5C199.344 248.5 198.841 248.751 198.841 249.629C198.841 250.037 198.433 250.822 197.931 251.418C197.429 251.983 196.895 252.925 196.738 253.521C196.55 254.211 196.236 254.651 195.828 254.745C195.514 254.808 195.138 254.996 195.012 255.216C194.541 255.937 194.792 257.82 195.546 259.358C196.519 261.304 197.555 262.308 198.904 262.622L199.94 262.873L198.936 263.093C197.021 263.532 196.864 264.567 198.433 266.388C199.218 267.329 199.218 267.329 202.608 267.329C204.491 267.329 206.783 267.486 207.693 267.674C209.859 268.114 214.692 270.467 216.387 271.911C217.109 272.539 217.768 272.978 217.863 272.884C217.988 272.79 217.8 272.005 217.517 271.126C216.89 269.243 215.603 268.02 211.805 265.729C210.392 264.85 209.137 264.034 209.043 263.908C208.98 263.752 209.325 263.563 209.859 263.438C210.832 263.249 210.832 263.249 210.329 262.433C210.016 261.994 209.827 261.335 209.89 260.959C209.984 260.362 210.173 260.268 211.334 260.331C212.432 260.394 212.684 260.299 212.589 259.892C212.527 259.609 212.056 259.264 211.491 259.107C210.518 258.856 210.424 258.699 209.984 256.847C209.89 256.314 209.513 255.529 209.168 255.059C208.383 253.929 208.415 253.176 209.388 251.261L210.204 249.629L210.894 251.042C211.459 252.234 211.679 252.423 212.684 252.517C214.63 252.674 215.414 252.171 215.634 250.571C215.76 249.786 216.136 248.908 216.45 248.625C217.172 247.966 222.131 246.962 224.611 246.931C225.553 246.931 227.091 247.15 228.001 247.433C228.911 247.684 230.167 247.872 230.794 247.809C231.893 247.715 231.956 247.652 231.893 246.617C231.83 245.236 231.14 244.734 229.288 244.734C227.467 244.734 224.705 244.232 222.1 243.447C219.809 242.757 218.741 242.725 216.576 243.353Z" fill="#EFEFEF"/>
<path d="M120.717 247.496C118.268 248.688 118.111 249.127 118.833 251.795C119.555 254.525 119.587 256.565 118.896 258.982L118.362 260.833L119.587 261.9C121.062 263.187 121.438 263.187 122.474 261.994C122.914 261.461 123.479 261.084 123.761 261.116C124.985 261.335 126.555 255.875 126.209 252.642C125.864 249.598 124.326 246.617 123.102 246.617C122.725 246.617 121.658 247.025 120.717 247.496Z" fill="#EFEFEF"/>
<path d="M203.393 268.961C203.047 269.149 202.012 269.871 201.101 270.562L199.469 271.817L201.384 273.825C202.953 275.457 203.267 275.959 203.079 276.524C202.577 278.125 202.577 278.815 203.047 279.223C203.393 279.506 203.675 279.537 204.177 279.255C205.15 278.721 205.621 279.035 206.532 280.824C206.971 281.671 207.442 282.393 207.599 282.393C207.756 282.393 208.038 281.985 208.258 281.451C208.697 280.416 209.325 280.227 209.764 281.043C209.953 281.357 210.267 281.483 210.581 281.357C211.397 281.043 211.208 278.941 210.11 276.618C209.576 275.457 209.2 274.422 209.325 274.328C209.419 274.233 210.204 274.453 211.083 274.83C212.935 275.614 214.316 275.614 214.473 274.767C214.567 274.359 214.379 274.233 213.657 274.233C213.092 274.233 212.495 273.92 211.993 273.417C210.643 271.974 206.469 269.338 204.648 268.804C204.303 268.679 203.738 268.773 203.393 268.961Z" fill="#EFEFEF"/>
<path d="M147.993 270.624C147.71 270.969 147.271 271.095 146.706 270.969C146.204 270.875 145.639 271.001 145.293 271.283C144.728 271.691 144.791 271.785 146.235 273.166C147.899 274.672 153.015 277.371 154.27 277.371C155.275 277.371 156.907 278.376 157.566 279.38C157.849 279.788 158.476 280.29 158.979 280.51C159.763 280.823 160.046 280.823 160.705 280.384C161.772 279.694 161.96 278.627 161.364 276.806C160.799 275.175 160.987 274.139 162.18 272.193C162.902 271.001 162.902 270.153 162.212 270.153C161.898 270.153 159.857 270.373 157.692 270.593C155.118 270.875 153.235 270.907 152.199 270.75C148.432 270.059 148.464 270.059 147.993 270.624Z" fill="#EFEFEF"/>
<path d="M216.105 291.117C216.105 291.525 217.611 291.996 219.714 292.309C220.562 292.435 221.661 292.812 222.1 293.125C224.109 294.632 229.131 294.004 227.31 292.498C226.369 291.713 216.105 290.458 216.105 291.117Z" fill="#EFEFEF"/>
</svg>
