<svg width="306" height="247" viewBox="0 0 306 247" fill="none" xmlns="http://www.w3.org/2000/svg">
<path fill-rule="evenodd" clip-rule="evenodd" d="M183.811 1.05817C181.71 2.00058 178.859 2.49372 175.355 2.52095C169.222 2.5686 165.869 3.43915 163.803 5.52138C162.845 6.48648 161.102 7.08703 158.81 7.24132C154.944 7.50151 153.975 9.12841 156.873 10.4936C158.654 11.3324 158.724 11.5487 157.737 13.1507C157.137 14.1249 156.865 14.0575 155.812 12.6719C155.136 11.7847 153.872 10.6668 153 10.1873C151.617 9.42717 151.415 9.50659 151.415 10.8105C151.415 13.106 150.072 13.4873 147.942 11.7953C145.478 9.83938 144.234 10.5761 144.961 13.5591C145.36 15.1936 146.115 15.993 147.757 16.5217C148.995 16.9196 150.007 17.6857 150.007 18.2235C150.007 19.3913 149.891 19.4042 147.657 18.492C146.282 17.9308 145.663 18.0881 144.685 19.2484C142.453 21.8979 141.904 21.0273 141.918 14.8525C141.925 11.6281 141.608 8.74041 141.215 8.43484C139.838 7.36612 137.373 7.86985 135.949 9.51188C134.124 11.6145 134.136 13.0002 135.995 15.1263C136.81 16.0581 137.25 17.2168 136.971 17.7009C136.372 18.7431 132.357 18.0949 129.466 16.4892C126.935 15.0831 124.712 15.1316 124.186 16.6042C123.868 17.4944 123.132 17.6842 121.215 17.3681C119.679 17.1155 117.999 17.3537 116.984 17.9694C115.742 18.7219 114.803 18.7885 113.406 18.222C111.836 17.5859 110.904 17.8098 107.952 19.5358C104.997 21.2625 104.136 21.4698 102.888 20.752C101.3 19.8391 99.7009 20.3315 100.387 21.5227C100.609 21.91 99.6749 22.2269 98.31 22.2269C96.5494 22.2269 95.6092 22.6663 95.0747 23.7396C94.6599 24.5715 93.7774 25.2628 93.1133 25.2765C92.4492 25.2893 91.316 25.7794 90.5963 26.3656C89.5554 27.212 88.9835 27.246 87.811 26.5305C86.1898 25.5412 83.8671 22.9257 83.8298 22.0476C83.8171 21.7405 86.1109 21.6989 88.9279 21.9546C93.0872 22.332 94.2211 22.1974 94.9641 21.236C95.7465 20.2233 95.5634 19.8769 93.6978 18.8407C89.9427 16.7554 77.995 13.6151 73.947 13.6499C67.8671 13.7013 63.6747 15.2942 59.9766 18.9579C58.1702 20.7467 56.1793 22.214 55.5511 22.2185C54.9229 22.2231 53.6552 23.4264 52.734 24.8922C51.5375 26.796 50.1522 27.8503 47.8895 28.5787C45.6795 29.2904 44.7809 29.9605 44.9196 30.794C45.0295 31.4505 44.633 33.237 44.0393 34.7633C42.7089 38.1828 42.6653 37.8508 44.5182 38.3711C45.4464 38.6321 46.5655 38.3341 47.2845 37.6352C48.9895 35.978 50.8276 36.8796 52.4671 40.1765C53.2418 41.7339 54.3602 43.1081 54.9524 43.2299C56.5469 43.5574 59.1576 40.5955 59.1576 38.4589C59.1576 36.9779 59.5174 36.5975 60.9182 36.5975C63.0472 36.5975 63.0803 36.3025 61.2591 33.5547L59.8393 31.4135L63.3718 28.2149C65.3149 26.4549 66.9044 24.5579 66.9044 23.999C66.9044 23.3183 67.8326 22.9832 69.7214 22.9832C71.2708 22.9832 72.5384 23.2245 72.5384 23.5202C72.5384 23.8152 71.1257 25.4497 69.3989 27.1522C66.8276 29.6875 66.3382 30.583 66.6959 32.0987C67.5354 35.6543 70.1658 35.9674 76.0597 33.2151C79.3204 31.6918 80.1501 31.5572 81.3029 32.365C82.0565 32.8921 82.7868 33.6908 82.9262 34.1401C83.1847 34.9721 77.7563 36.4591 73.2427 36.7934C71.1285 36.95 70.7778 37.2449 70.7778 38.8665C70.7778 40.2438 70.3954 40.765 69.3686 40.7854C67.3347 40.8262 66.2001 41.7709 66.2001 43.4228C66.2001 44.9741 63.7831 46.7847 62.6852 46.0556C62.3169 45.8113 61.0231 46.163 59.809 46.8377C57.5857 48.0728 51.7657 47.8429 49.3416 46.4247C48.6677 46.0307 47.8838 46.4391 47.0014 47.644C46.1781 48.7679 44.9414 49.4554 43.7449 49.4554C42.5096 49.4554 41.0701 50.2912 39.7461 51.7766C37.0171 54.8391 31.7782 58.5316 30.1626 58.5316C28.628 58.5316 28.4499 59.7077 29.8943 60.303C31.407 60.9262 33.0825 64.869 32.6282 66.7357C32.2874 68.1342 31.7211 68.3656 28.6161 68.3747C22.2461 68.3929 22.032 68.5752 21.6622 74.2924C21.3031 79.85 22.0996 82.312 24.2969 82.436C25.0715 82.4791 26.8801 82.7696 28.3161 83.0812C30.8676 83.6341 30.9732 83.5645 33.0254 79.9764C34.1804 77.9577 36.296 74.6638 37.727 72.6564C39.8891 69.6235 40.6117 69.0827 42.0026 69.4578C42.959 69.7157 44.6203 69.3845 45.8788 68.6856C48.0099 67.5019 48.1289 67.5223 49.5698 69.3118C50.3889 70.3284 52.7594 72.431 54.8384 73.9846C57.6695 76.1001 58.8188 76.5917 59.416 75.9435C60.0118 75.2976 59.4625 74.3234 57.2434 72.0945C53.4749 68.3089 52.3636 66.235 53.7904 65.6473C55.2187 65.0589 57.5624 66.5406 58.1047 68.3762C58.3526 69.2158 59.6646 70.4002 61.0203 71.0083C62.831 71.8206 63.7803 72.9211 64.5972 75.1554C65.8783 78.658 67.1791 78.9871 69.1432 76.3058C70.8841 73.9286 74.7245 73.5723 74.1723 75.8391C73.8195 77.289 75.678 81.9557 76.9626 82.8459C77.3513 83.1152 79.8198 83.1939 82.4487 83.0207C88.0152 82.6531 88.6469 83.2135 87.106 87.1496C86.5095 88.6736 85.8334 90.8587 85.6031 92.0061C85.2256 93.8917 84.8996 94.0883 82.2072 94.0543C80.5691 94.0331 78.5951 94.083 77.8204 94.1647C77.0457 94.2464 74.2512 93.4167 71.6102 92.32L66.8079 90.327L64.4275 93.1179L62.0471 95.9081L59.235 93.4817C57.6885 92.1468 55.6828 91.0546 54.7778 91.0546C52.8228 91.0546 49.9226 89.0404 50.067 87.7834C50.1234 87.2948 50.1318 85.8706 50.0853 84.6196L50.0022 82.3445L43.84 82.3505C38.8109 82.3558 37.2249 82.6516 35.2128 83.9616C31.9866 86.0612 28.9766 86.7926 27.8153 85.7579C27.1202 85.1377 26.4758 85.379 25.2173 86.7313C24.2969 87.7199 20.7023 90.1803 17.2296 92.199C13.757 94.2177 10.6646 96.3143 10.3568 96.8581C10.049 97.4019 8.49122 99.4675 6.89467 101.447C2.49025 106.91 1.21132 110.597 1.76064 116.249C2.09657 119.705 1.92544 121.666 1.1078 123.742C0.498614 125.289 0 127.378 0 128.386C0 131.135 5.1284 140.064 9.32295 144.618C13.0189 148.632 13.0379 148.641 16.55 148.191C18.4867 147.943 21.108 147.725 22.3742 147.707C23.6412 147.69 25.5427 147.191 26.5998 146.598C29.4661 144.992 31.9373 145.268 33.8043 147.403C34.8121 148.555 36.2361 149.293 37.4482 149.293C39.6595 149.293 39.7152 149.505 39.4609 156.987C39.3264 160.938 39.5968 161.772 42.8921 167.576C47.643 175.943 48.3303 179.802 46.0535 185.33C43.8808 190.607 43.9111 193.74 46.1704 197.315C47.4908 199.405 48.1416 201.759 48.605 206.128C49.5818 215.325 54.3095 223.416 58.7068 223.416C59.197 223.416 60.4879 224.413 61.5753 225.632C63.2331 227.49 63.8296 227.734 65.274 227.144C66.2213 226.757 68.0974 226.441 69.4432 226.441C74.0146 226.441 77.2056 223.941 79.8388 218.296C81.1445 215.496 82.4558 212.367 82.753 211.343C83.0495 210.319 83.9953 208.887 84.8545 208.161C86.0482 207.153 86.525 205.725 86.8764 202.114C87.3018 197.747 87.5814 197.138 90.5392 194.137C94.9162 189.697 95.7831 185.479 94.131 176.673C93.488 173.245 92.9619 169.464 92.9619 168.27C92.9619 166.059 96.4761 160.335 102.536 152.674C105.836 148.501 110.568 138.614 110.568 135.889C110.568 134.942 110.425 134.166 110.251 134.166C109.942 134.166 103.181 136.041 101.765 136.519C100.654 136.894 97.8058 134.927 98.2755 134.111C98.5086 133.706 97.4487 131.766 95.9205 129.8C94.3922 127.834 92.9041 125.034 92.6147 123.578C92.3252 122.122 91.5879 119.909 90.9766 118.661C90.3653 117.413 89.947 115.802 90.0477 115.082C90.1477 114.361 89.2695 112.272 88.0955 110.441C86.3123 107.656 83.1023 100.265 83.1023 98.9418C83.1023 98.7346 83.6565 98.8715 84.3347 99.2459C85.0122 99.6203 85.9637 99.7738 86.4475 99.5877C86.932 99.4009 87.3278 99.6278 87.3278 100.091C87.3278 100.554 88.5955 103.336 90.1449 106.272C91.6942 109.209 92.9619 112.057 92.9619 112.601C92.9619 113.146 93.8457 115.413 94.9261 117.639C96.0057 119.865 97.4825 123.814 98.2065 126.414C99.4256 130.792 99.6735 131.141 101.552 131.141C103.981 131.141 107.803 129.14 112.097 125.619C113.83 124.199 115.592 122.904 116.016 122.74C117.083 122.327 123.245 113.681 123.245 112.595C123.245 111.55 121.289 109.631 119.548 108.967C118.869 108.709 118.315 107.807 118.315 106.961C118.315 105.008 118.078 105.033 115.889 107.212C114.654 108.44 113.54 108.884 112.321 108.634C110.374 108.234 109.923 107.714 109.506 105.391C109.353 104.538 108.42 102.808 107.433 101.549C105.39 98.9411 105.148 97.2604 106.721 96.6115C107.891 96.1297 110.568 98.2989 110.568 99.7299C110.568 100.978 115.399 103.292 116.921 102.773C117.717 102.502 118.549 102.878 119.136 103.773C120.438 105.761 122.912 106.495 127.576 106.28C131.133 106.115 131.816 106.341 134.007 108.408C135.356 109.679 136.972 110.72 137.599 110.72C138.881 110.72 139.125 111.887 138 112.633C136.797 113.432 138.598 115.156 140.173 114.713C140.934 114.5 141.556 114.024 141.556 113.657C141.556 113.29 141.825 112.989 142.153 112.989C142.481 112.989 142.795 115.516 142.849 118.606C142.931 123.207 143.387 125.295 145.367 130.14C146.697 133.395 148.004 136.997 148.27 138.144C149.299 142.579 151.43 141.331 152.731 135.533C153.169 133.581 153.528 130.819 153.528 129.395C153.528 126.585 154.32 125.284 159.749 119.171C161.716 116.956 163.52 114.489 163.757 113.688C163.993 112.887 164.783 112.232 165.513 112.232C166.242 112.232 167.138 111.658 167.503 110.957C168.059 109.891 168.559 110.355 170.561 113.793C173.454 118.763 174.656 121.644 174.656 123.613C174.656 125.375 175.559 125.521 176.768 123.956C177.251 123.332 177.857 122.821 178.116 122.821C178.741 122.821 180.994 131.982 180.994 134.524C180.994 137.088 182.154 136.349 182.757 133.402C183.348 130.511 184.037 130.553 186.018 133.599C188.034 136.7 188.675 137.171 190.854 137.156C193.313 137.139 194.711 135.778 195.749 132.393C196.523 129.871 196.472 129.066 195.369 126.342C194.669 124.614 193.525 122.591 192.827 121.846C192.129 121.102 191.558 119.85 191.558 119.065C191.558 117.093 196.296 113.058 198.539 113.12C202.905 113.24 209.259 108.883 212.817 103.329C214.688 100.409 214.922 99.4849 214.653 96.0858C214.484 93.9423 213.768 90.892 213.062 89.3067C211.8 86.4696 211.804 86.3894 213.283 84.2414C214.688 82.1985 214.326 80.5111 212.711 81.5828C212.028 82.0367 209.157 79.4416 209.173 78.3858C209.184 77.6521 213.829 74.4149 214.871 74.4149C215.336 74.4149 215.529 75.1856 215.336 76.2733C215.053 77.8646 215.186 78.0272 216.264 77.4078C219.107 75.7733 222.208 77.4993 220.237 79.6171C219.653 80.2441 219.771 80.4657 220.691 80.4657C221.721 80.4657 221.897 81.0201 221.712 83.6802C221.518 86.4726 221.685 86.9249 222.985 87.1238C224.806 87.4029 226.771 85.4516 226.771 83.3648C226.771 82.523 226.081 80.794 225.239 79.5233L223.706 77.2127L225.415 75.6228C226.354 74.7485 227.521 73.077 228.008 71.9084C228.559 70.584 229.355 69.8557 230.121 69.9752C232.566 70.3571 234.622 68.9185 238.161 64.3532C241.854 59.5859 244.027 55.2211 243.319 53.9912C243.1 53.61 243.314 52.623 243.794 51.7978C244.522 50.5446 244.452 50.0416 243.366 48.7535C242.517 47.7461 241.541 47.3528 240.55 47.6198C239.575 47.8822 238.592 47.5048 237.8 46.5647C236.607 45.1488 236.71 44.9801 241 41.3284C243.438 39.253 246.226 37.2865 247.194 36.9583C249.556 36.1573 258.472 36.003 258.905 36.7556C259.095 37.0846 260.16 37.3538 261.274 37.3538C262.701 37.3538 263.434 36.8932 263.76 35.789C264.691 32.638 271.843 29.6724 271.843 32.4376C271.843 34.3005 273.808 33.7256 275.414 31.3938C276.412 29.9431 277.35 29.3373 278.218 29.5816C279.462 29.931 279.453 30.0513 278.026 32.1229C277.203 33.3187 275.554 34.6544 274.362 35.0908C273.171 35.5273 270.775 37.2033 269.039 38.8151L265.883 41.7452L266.099 46.9179C266.218 49.7633 266.452 52.2373 266.619 52.4165C266.786 52.5958 268.054 51.3221 269.437 49.5863C270.821 47.8504 272.324 46.4157 272.778 46.3983C273.233 46.3801 274.262 45.2547 275.066 43.897C276.19 41.9963 276.369 41.0448 275.838 39.7673C275.308 38.4921 275.443 37.7577 276.421 36.596C277.438 35.3896 278.591 35.0848 282.133 35.0848C285.663 35.0848 287.083 34.7112 289.076 33.259C290.454 32.2545 292.815 31.2085 294.324 30.9347C295.832 30.6609 297.644 29.9832 298.351 29.4288C299.54 28.4947 299.441 28.3208 297.007 27.0743C294.386 25.7318 293.441 23.7396 295.426 23.7396C296.001 23.7396 297.882 24.145 299.606 24.6396C302.018 25.3324 303.159 25.3339 304.566 24.6457C306.344 23.7759 306.361 23.7017 305.208 21.8116C303.735 19.3966 300.179 17.4119 294.488 15.8282C289.957 14.5673 288.745 14.7292 288.745 16.5989C288.745 18.1668 286.893 17.9406 284.56 16.0883C282.731 14.6361 282.163 14.5598 278.426 15.2685C274.929 15.9318 274.055 15.8592 272.63 14.7889C268.577 11.7439 267.972 11.5563 263.375 11.9171C260.084 12.1757 257.727 11.8944 255.066 10.927C251.194 9.51945 245.059 9.7524 238.391 11.5601C236.842 11.9806 234.855 12.1311 233.976 11.8951C233.096 11.6599 231.451 11.8785 230.319 12.3822C228.607 13.1439 227.99 13.0947 226.654 12.0895C225.771 11.4254 223.994 10.8816 222.706 10.8816C221.417 10.8816 219.507 10.4104 218.46 9.83409C213.554 7.1309 209.847 6.29059 206.817 7.19594C202.88 8.37206 192.933 8.64132 194.68 7.5242C197.717 5.58265 199.305 3.86044 199.305 2.50658C199.305 0.950011 199.22 0.919003 194.375 0.711763C192.632 0.636885 190.255 0.365356 189.093 0.106685C187.739 -0.194342 185.841 0.147527 183.811 1.05817ZM118.667 4.06919C117.118 4.8679 114.907 6.34883 113.752 7.36083C111.804 9.06866 111.723 9.33716 112.61 11.1176C113.456 12.8156 116.59 14.4992 117.362 13.6703C117.52 13.5001 117.31 12.3996 116.894 11.225C116.315 9.58827 116.352 8.95596 117.05 8.51879C117.552 8.20491 119.706 6.74516 121.836 5.27406C125.526 2.72743 125.609 2.60112 123.597 2.60869C122.435 2.61322 120.217 3.27049 118.667 4.06919ZM220.902 3.82263C219.935 4.86109 220.515 5.41398 223.425 6.2263C228.045 7.51739 229.989 7.55521 231.307 6.37984C232.41 5.39734 232.246 5.21279 229.469 4.32106C226.186 3.26671 221.665 3.0035 220.902 3.82263ZM55.182 10.7674C56.9258 12.7218 57.4462 12.889 60.7724 12.5653C64.1761 12.234 66.9044 10.7599 66.9044 9.2517C66.9044 8.9 63.8345 8.61258 60.0823 8.61258H53.2601L55.182 10.7674ZM27.528 39.1645C26.9906 39.8596 26.8519 41.2596 27.1505 42.969C27.6026 45.5572 27.5364 45.6744 25.6075 45.6843C22.1996 45.7017 20.3432 46.5578 19.6847 48.4177C18.9572 50.4735 19.4776 52.4808 20.7375 52.4808C21.215 52.4808 22.6151 51.2896 23.8489 49.8336C26.2476 47.0026 29.4365 46.0995 28.5245 48.51C27.4963 51.2268 26.797 54.2832 27.123 54.6334C27.3083 54.8323 28.2689 54.6001 29.2569 54.116C30.245 53.6327 31.9507 53.2372 33.0472 53.2372C35.6262 53.2372 37.3876 51.1958 35.8903 49.941C34.0818 48.4238 30.6387 43.0605 30.8464 42.084C30.957 41.5659 30.4471 40.4496 29.7126 39.6032C28.5618 38.2766 28.2611 38.2161 27.528 39.1645ZM246.49 55.0607C246.49 55.2324 245.393 58.1254 244.052 61.4897L241.614 67.6078H243.252C244.619 67.6078 245.278 66.6555 247.22 61.8709C249.155 57.1044 249.38 56.019 248.548 55.454C247.487 54.7325 246.49 54.5426 246.49 55.0607ZM112.681 62.3406C113.586 62.991 113.51 63.3057 112.153 64.5302C110.222 66.2713 110.144 67.7175 111.889 69.4132C113.114 70.6044 114.038 74.6547 114.323 80.0875C114.427 82.0677 114.18 82.3884 112.391 82.6077C109.999 82.9004 107.047 81.4225 107.047 79.9333C107.047 79.3645 107.516 78.1309 108.09 77.19C109.054 75.6107 108.982 75.2832 107.141 72.8682C103.063 67.5163 103.077 66.7561 107.318 63.2414C109.525 61.411 111.037 61.1576 112.681 62.3406ZM83.8967 64.3207C84.4277 65.0082 84.7045 65.7744 84.5108 66.0225C84.3171 66.2706 85.5848 66.4884 87.3278 66.5073C91.0125 66.5466 96.6867 70.0576 96.331 72.0786C96.0254 73.8121 91.4301 74.0216 87.6581 72.4749C84.7707 71.2905 84.4094 71.2867 82.7889 72.4272C80.5881 73.9762 77.8922 74.0065 76.4879 72.4976C75.516 71.4538 75.5513 71.0529 76.8344 68.5267C78.4084 65.4295 80.6585 63.0697 82.0375 63.0697C82.5283 63.0697 83.365 63.6324 83.8967 64.3207ZM239.84 70.5636C239.254 71.5809 239.163 76.8201 239.699 78.6248C240.017 79.692 239.703 80.651 238.71 81.6502C237.91 82.4549 236.547 83.8519 235.681 84.755C234.815 85.6581 233.043 86.5089 231.742 86.6458C228.75 86.9605 227.607 88.7273 228.712 91.3314C229.445 93.0589 229.74 93.1716 231.843 92.5249C233.12 92.1324 234.979 91.1658 235.975 90.3769C237.122 89.4678 238.462 89.082 239.64 89.3241C241.201 89.6448 241.571 89.38 241.974 87.6548C242.238 86.5279 242.251 83.268 242.004 80.4105C241.657 76.4087 241.757 75.2961 242.438 75.5638C242.924 75.7552 243.783 75.5956 244.349 75.2098C245.226 74.6108 245.176 74.2674 244.005 72.878C242.181 70.7134 240.342 69.6915 239.84 70.5636ZM212.567 122.421C211.939 123.901 212.026 125 212.99 127.707C213.658 129.588 214.472 131.302 214.797 131.519C215.523 132 216.545 122.507 215.889 121.368C215.072 119.949 213.389 120.483 212.567 122.421ZM217.259 140.354C217.398 143.122 217.839 144.573 218.76 145.296C219.88 146.177 220.189 146.136 220.952 145.015C222.218 143.156 222.062 141.794 220.256 138.946C217.943 135.296 217.027 135.726 217.259 140.354ZM181.317 139.663C180.739 141.263 181.082 143.045 183.009 148.444C184.643 153.028 186.31 155.344 187.975 155.344C189.83 155.344 189.05 148.607 186.946 146.457C186.03 145.521 184.951 144.755 184.546 144.755C184.142 144.755 183.8 144.16 183.786 143.432C183.772 142.703 183.32 141.257 182.781 140.217C181.914 138.545 181.744 138.481 181.317 139.663ZM153.647 141.374C152.555 143.946 153.224 145.364 155.324 144.933C157.444 144.498 157.72 141.412 155.741 140.275C154.679 139.664 154.284 139.872 153.647 141.374ZM203.706 148.232C201.673 150.476 200.009 153.007 200.009 153.857C200.009 155.09 199.619 155.358 198.072 155.184C196.403 154.996 196.147 155.228 196.223 156.857C196.293 158.367 197.61 162.94 198.371 164.315C198.454 164.466 200.164 164.603 202.171 164.622C205.544 164.653 205.884 164.489 206.68 162.458C207.153 161.249 208.031 159.822 208.633 159.286C209.724 158.313 209.847 155.593 208.933 152.646C208.583 151.519 208.936 150.59 210.2 149.315L211.952 147.547L210.17 145.773C209.19 144.797 208.166 144.033 207.895 144.075C207.625 144.117 205.739 145.987 203.706 148.232ZM176.064 147.256C176.064 147.799 176.806 149.323 177.713 150.643C178.619 151.963 180.252 155.347 181.34 158.165C183.438 163.595 188.326 169.912 190.139 169.536C190.726 169.415 191.256 168.47 191.316 167.435C191.377 166.401 191.641 164.833 191.903 163.951C192.286 162.66 192.028 162.252 190.58 161.862C189.591 161.595 188.407 160.615 187.95 159.684C187.492 158.753 185.582 156.177 183.704 153.959C181.826 151.743 180.29 149.499 180.29 148.976C180.29 148.452 179.483 147.629 178.496 147.146C176.237 146.04 176.064 146.048 176.064 147.256ZM218.638 155.403C218.367 155.874 216.941 156.118 215.395 155.96C212.913 155.706 212.599 155.87 212.278 157.591C212.083 158.643 211.67 160.535 211.362 161.795C211.053 163.054 211.04 164.756 211.332 165.577C211.624 166.397 212.106 167.748 212.402 168.58C212.836 169.797 213.02 169.5 213.342 167.068L213.742 164.042L215.315 166.689C216.723 169.061 216.889 169.154 216.899 167.585C216.905 166.622 216.565 165.139 216.141 164.29C215.585 163.172 215.585 162.517 216.141 161.919C217.302 160.673 217.07 159.882 215.544 159.882C212.977 159.882 213.409 158.56 216.128 158.093C218.944 157.61 221.056 155.847 219.811 155.021C219.432 154.769 218.903 154.941 218.638 155.403ZM229.822 160.317C229.269 161.864 233.015 165.752 237.031 167.798C238.473 168.533 239.609 169.764 239.868 170.874C240.106 171.892 241.395 173.756 242.733 175.018C245.123 177.271 246.49 177.419 246.49 175.424C246.49 174.621 247.897 173.497 248.901 173.497C249.001 173.497 250.376 174.858 251.956 176.522C254.796 179.511 257.064 180.438 257.043 178.602C257.027 177.199 256.195 176.104 254.351 175.061C253.116 174.362 252.805 173.698 253.107 172.406C253.612 170.246 252.778 169.441 244.869 164.448L238.671 160.534L237.273 162.443C235.622 164.697 233.813 164.304 233.813 161.692C233.813 160.697 233.522 159.882 233.167 159.882C232.811 159.882 232.022 159.677 231.412 159.426C230.724 159.142 230.122 159.479 229.822 160.317ZM192.321 172.321C193.438 173.466 204.481 176.521 208.018 176.664C209.277 176.715 210.886 176.409 211.593 175.984C212.652 175.347 212.275 175.117 209.436 174.673C207.544 174.378 205.261 173.628 204.363 173.008C202.129 171.467 190.859 170.824 192.321 172.321ZM245.551 181.565C245.293 181.841 245.081 183.589 245.081 185.448C245.081 187.306 244.725 190.103 244.29 191.664L243.498 194.501L240.945 192.744C236.065 189.386 235.758 188.896 236.97 186.38C237.558 185.159 238.039 183.974 238.039 183.745C238.039 183.516 236.324 183.329 234.228 183.329C230.837 183.329 230.216 183.586 228.594 185.656C227.591 186.936 226.771 188.298 226.771 188.682C226.771 190.117 224.106 189.334 223.73 187.788C223.225 185.711 221.836 186.254 220.08 189.215C219.306 190.521 218.296 191.604 217.837 191.619C217.378 191.636 216.626 192.755 216.167 194.107C215.494 196.083 214.455 196.991 210.871 198.737C205.23 201.483 204.28 202.646 203.261 208.056C202.503 212.076 202.574 212.834 204.087 216.987C205.313 220.352 205.647 222.442 205.378 225.072C205.018 228.597 205.031 228.625 207.582 229.53C209.925 230.36 210.236 230.298 211.151 228.818C211.855 227.679 212.88 227.197 214.6 227.197C215.945 227.197 217.887 226.697 218.915 226.085C219.944 225.473 222.118 224.613 223.748 224.174C225.378 223.734 226.89 223.064 227.109 222.684C227.798 221.485 231.951 223.445 234.001 225.936C235.691 227.992 236.13 228.181 237.327 227.378C238.604 226.521 238.675 226.62 238.284 228.716C237.92 230.668 238.071 230.979 239.377 230.979C240.297 230.979 241.128 231.645 241.497 232.681C242.683 236.011 244.455 236.99 248.623 236.615C256.34 235.922 257.054 235.613 257.054 232.952C257.054 231.636 257.467 229.888 257.973 229.068C258.478 228.247 259.797 225.237 260.905 222.378C262.444 218.407 262.743 216.877 262.173 215.896C261.762 215.19 261.583 213.73 261.775 212.652C262.044 211.141 261.704 210.396 260.293 209.403C259.286 208.695 258.462 207.494 258.462 206.734C258.462 205.975 256.93 203.206 255.059 200.581C250.87 194.71 250.011 193.02 250.011 190.657C250.011 189.64 249.56 188.407 249.01 187.916C248.459 187.426 247.798 185.682 247.539 184.042C247.088 181.169 246.546 180.495 245.551 181.565ZM106.737 186.147C106.175 188.897 105.319 189.814 102.641 190.536C100.817 191.027 100.709 191.298 100.709 195.361C100.709 197.729 100.336 200.066 99.8805 200.556C99.0685 201.428 98.6009 208.544 99.3051 209.301C99.5023 209.513 100.569 209.798 101.675 209.933C104.1 210.23 104.213 210.031 106.929 200.725C109.726 191.139 110.087 187.574 108.477 185.439L107.222 183.775L106.737 186.147ZM287.723 222.268C287.032 224.629 286.685 227.321 286.935 228.389L287.38 230.296L290.822 227.423C294.075 224.708 294.193 224.488 292.967 223.416C292.253 222.792 291.567 221.434 291.44 220.398C290.997 216.765 289.048 217.746 287.723 222.268ZM276.773 232.921C272.614 235.951 270.082 238.295 270.082 239.114C270.082 241.296 271.914 240.516 278.298 235.612C283.146 231.887 284.305 230.638 284.015 229.448C283.815 228.626 283.609 227.975 283.557 228C283.506 228.026 280.453 230.24 276.773 232.921ZM252.863 241.891C251.915 242.456 250.714 242.743 250.196 242.529C249.596 242.282 249.805 243.144 250.77 244.9C252.556 248.154 253.92 247.598 254.373 243.432C254.53 241.991 254.642 240.824 254.623 240.838C254.604 240.853 253.813 241.327 252.863 241.891Z" fill="#EFEFEF"/>
</svg>
