<svg xmlns="http://www.w3.org/2000/svg" xmlns:xlink="http://www.w3.org/1999/xlink" width="0" height="0" style="position:absolute">
  <symbol id="angle-down" viewBox="0 0 14 10">
    <path d="M7.21989e-05 2.67598L2.27472 0.401306L8.95075 7.07733L6.6761 9.352L7.21989e-05 2.67598Z"/>
    <path d="M11.0774 0.401365L13.3521 2.67597L6.6761 9.352L4.40137 7.07739L11.0774 0.401365Z"/>
  </symbol>
  <symbol id="zoom-plus" viewBox="0 0 19 19">
    <path fill-rule="evenodd" clip-rule="evenodd" d="M7.15811 0.0420348C5.32671 0.229333 3.62901 1.03989 2.31397 2.35484C1.40125 3.26753 0.784616 4.26305 0.391529 5.45853C-0.13051 7.04616 -0.13051 8.6949 0.391529 10.2825C0.786397 11.4835 1.40515 12.4803 2.32161 13.392C4.13083 15.1917 6.59831 16.0081 9.14284 15.6488C10.4524 15.464 11.7652 14.9243 12.7952 14.1476C12.9064 14.0637 13.0092 13.9995 13.0236 14.0049C13.0379 14.0103 14.1617 15.1091 15.5208 16.4465C17.0675 17.9685 18.0438 18.9022 18.1304 18.9422C18.495 19.1107 18.9027 18.8953 18.9784 18.4941C19.0373 18.1822 19.244 18.4054 15.1801 14.3911L13.9092 13.1356L14.1263 12.8837C15.0518 11.8102 15.6655 10.4523 15.8971 8.96573C15.9874 8.3862 15.9879 7.32312 15.8982 6.73821C15.6368 5.03292 14.8901 3.57322 13.6454 2.33379C11.9413 0.637007 9.56145 -0.203736 7.15811 0.0420348ZM8.93406 1.28306C10.4347 1.50385 11.7505 2.157 12.7919 3.19814C14.0696 4.47545 14.7322 6.07095 14.7322 7.87053C14.7322 8.53385 14.6749 8.99124 14.5195 9.56854C13.7321 12.4941 11.0648 14.516 7.99281 14.516C6.16416 14.516 4.4653 13.8199 3.1976 12.5513C2.33649 11.6895 1.75925 10.6946 1.45026 9.53973C1.17581 8.51377 1.17581 7.2273 1.45026 6.20133C2.07209 3.87702 3.91681 2.04532 6.24121 1.44419C7.08622 1.22567 8.12232 1.16367 8.93406 1.28306Z"/>
    <path d="M7.632 8.654H5V7.674H7.632V5H8.682V7.674H11.356V8.654H8.682V11.356H7.632V8.654Z"/>
  </symbol>
  <symbol id="star" viewBox="0 0 19 19">
    <path opacity="0.73" d="M6.5 7L9.5 0.5L12 7H18.5L13.5 12L15.5 19L9 16L3 19L5 12L0 7H6.5Z"/>
  </symbol>
  <symbol id="heart" viewBox="0 0 23 19">
    <path d="M21.1521 1.8618C18.6507 -0.620263 14.5814 -0.620263 12.0806 1.8618L11.4998 2.43797L10.9193 1.8618C8.41852 -0.620599 4.34887 -0.620599 1.84812 1.8618C-0.601864 4.29346 -0.617773 8.14791 1.81122 10.8279C4.02663 13.2713 10.5605 18.5502 10.8377 18.7736C11.0259 18.9255 11.2524 18.9994 11.4774 18.9994C11.4849 18.9994 11.4923 18.9994 11.4994 18.999C11.7323 19.0098 11.9669 18.9305 12.1612 18.7736C12.4384 18.5502 18.9729 13.2713 21.189 10.8275C23.6177 8.14791 23.6018 4.29346 21.1521 1.8618ZM19.6794 9.47932C17.9521 11.3839 13.2041 15.3119 11.4994 16.7058C9.79482 15.3122 5.04785 11.3845 3.32088 9.47965C1.62641 7.61038 1.6105 4.94825 3.28399 3.28727C4.13867 2.43931 5.2611 2.01499 6.38353 2.01499C7.50596 2.01499 8.62839 2.43897 9.48307 3.28727L10.7599 4.5545C10.9118 4.70535 11.1034 4.79539 11.3045 4.82697C11.6308 4.89651 11.9848 4.80614 12.2387 4.55484L13.5162 3.28727C15.2259 1.59102 18.0069 1.59135 19.7156 3.28727C21.3891 4.94825 21.3732 7.61038 19.6794 9.47932Z"/>
  </symbol>
  <symbol id="discount" viewBox="0 0 21 23">
    <path fill-rule="evenodd" clip-rule="evenodd" d="M10.1191 0.0389555C9.67238 0.129392 9.44458 0.292823 8.58019 1.1431C8.03525 1.67905 7.69811 1.97761 7.591 2.01894C7.44341 2.0759 7.33844 2.06875 6.4481 1.94087C5.90886 1.86341 5.34002 1.79828 5.184 1.79611C4.54424 1.78728 3.95814 2.10544 3.60237 2.65473C3.38567 2.98937 3.34113 3.15262 3.13393 4.37162C3.03932 4.92824 2.93255 5.4422 2.89662 5.51378C2.81747 5.6716 2.70539 5.74539 1.82734 6.21749C0.631935 6.86017 0.42512 7.0293 0.18006 7.56437C0.0426263 7.86447 0.00112637 8.07476 1.28541e-05 8.47713C-0.00105784 8.85133 0.0636976 9.03454 0.593861 10.1573C0.942221 10.8951 1.04672 11.1577 1.04672 11.2958C1.04672 11.4338 0.942221 11.6965 0.593861 12.4343C0.0636976 13.557 -0.00105784 13.7402 1.28541e-05 14.1144C0.00112637 14.5168 0.0426263 14.7271 0.18006 15.0272C0.42512 15.5622 0.631935 15.7314 1.82734 16.3741C2.70539 16.8462 2.81747 16.9199 2.89662 17.0778C2.93255 17.1493 3.03949 17.6644 3.13431 18.2222C3.22913 18.7801 3.33329 19.3275 3.36571 19.4387C3.59771 20.2335 4.31571 20.7876 5.12507 20.7964C5.28995 20.7982 5.87567 20.7345 6.42669 20.6548C7.33767 20.523 7.4432 20.5156 7.591 20.5726C7.69811 20.6139 8.03525 20.9125 8.58019 21.4484C9.23785 22.0954 9.46098 22.2877 9.67169 22.3894C10.2159 22.652 10.784 22.652 11.3282 22.3894C11.5389 22.2877 11.762 22.0954 12.4197 21.4484C12.9646 20.9125 13.3018 20.6139 13.4089 20.5726C13.5565 20.5156 13.6614 20.5228 14.5518 20.6507C15.091 20.7281 15.6599 20.7933 15.8159 20.7954C16.4556 20.8043 17.0417 20.4861 17.3975 19.9368C17.6142 19.6022 17.6588 19.4389 17.8659 18.2199C17.9606 17.6633 18.0673 17.1493 18.1033 17.0778C18.1832 16.9184 18.2793 16.856 19.2854 16.3107C20.2335 15.7968 20.4437 15.6423 20.6734 15.2899C20.9001 14.9423 20.9963 14.6159 20.9998 14.1831C21.0034 13.7354 20.9597 13.6069 20.406 12.4343C20.0577 11.6965 19.9532 11.4338 19.9532 11.2958C19.9532 11.1577 20.0577 10.8951 20.406 10.1573C20.9597 8.98464 21.0034 8.85619 20.9998 8.40846C20.9963 7.97566 20.9001 7.64929 20.6734 7.30163C20.4437 6.94929 20.2335 6.79478 19.2854 6.28086C18.2793 5.73554 18.1832 5.67319 18.1033 5.51378C18.0673 5.4422 17.9606 4.92824 17.8659 4.37162C17.6588 3.15262 17.6142 2.98937 17.3975 2.65473C17.0417 2.10544 16.4556 1.78728 15.8159 1.79611C15.6599 1.79828 15.091 1.86341 14.5518 1.94087C13.6614 2.06875 13.5565 2.0759 13.4089 2.01894C13.3018 1.97761 12.9646 1.67905 12.4197 1.1431C11.772 0.506021 11.5372 0.303024 11.3354 0.20561C10.9237 0.00702887 10.5379 -0.0458731 10.1191 0.0389555ZM10.8211 1.40041C10.8918 1.44669 11.3014 1.8329 11.7314 2.25863C12.5901 3.10895 12.8162 3.26341 13.3205 3.34431C13.6128 3.39121 13.7136 3.38198 15.0289 3.18781C15.4823 3.12083 15.8728 3.08448 15.9591 3.10118C16.1389 3.13597 16.3391 3.30117 16.4034 3.46778C16.4293 3.53503 16.5298 4.05619 16.6266 4.62584C16.8178 5.75091 16.8852 5.98411 17.1219 6.33835C17.3326 6.65387 17.5289 6.79283 18.5754 7.36734C19.0687 7.63816 19.5087 7.89265 19.5532 7.93283C19.6603 8.02971 19.7507 8.25687 19.7507 8.42926C19.7507 8.51652 19.5677 8.95753 19.26 9.61196C18.7485 10.6999 18.6821 10.8934 18.6821 11.2958C18.6821 11.6982 18.7485 11.8916 19.26 12.9796C19.5677 13.634 19.7507 14.075 19.7507 14.1623C19.7507 14.3347 19.6603 14.5618 19.5532 14.6587C19.5087 14.6989 19.0687 14.9534 18.5754 15.2242C17.5289 15.7987 17.3326 15.9377 17.1219 16.2532C16.8852 16.6074 16.8178 16.8406 16.6266 17.9657C16.5298 18.5353 16.4293 19.0565 16.4034 19.1238C16.3391 19.2904 16.1389 19.4556 15.9591 19.4904C15.8728 19.5071 15.4823 19.4707 15.0289 19.4037C13.7136 19.2096 13.6128 19.2003 13.3205 19.2472C12.8162 19.3281 12.5901 19.4826 11.7314 20.3329C11.3014 20.7586 10.8918 21.1449 10.8211 21.1911C10.6742 21.2874 10.3581 21.3017 10.2132 21.2186C10.1614 21.1889 9.77024 20.8217 9.34385 20.4024C8.51385 19.5863 8.34078 19.4498 7.97311 19.3212C7.63061 19.2014 7.22606 19.2135 6.14227 19.3761C5.57069 19.4619 5.12987 19.5076 5.0407 19.4904C4.86095 19.4556 4.66073 19.2904 4.59649 19.1238C4.57054 19.0565 4.47011 18.5353 4.37327 17.9657C4.18209 16.8406 4.11464 16.6074 3.87801 16.2532C3.66726 15.9377 3.47098 15.7987 2.42449 15.2242C1.93115 14.9534 1.49114 14.6989 1.44669 14.6587C1.33953 14.5618 1.24917 14.3347 1.24917 14.1623C1.24917 14.075 1.43213 13.634 1.73984 12.9796C2.25138 11.8916 2.31776 11.6982 2.31776 11.2958C2.31776 10.8934 2.25138 10.6999 1.73984 9.61196C1.43213 8.95753 1.24917 8.51652 1.24917 8.42926C1.24917 8.25687 1.33953 8.02971 1.44669 7.93283C1.49114 7.89265 1.93115 7.63816 2.42449 7.36734C3.47098 6.79283 3.66726 6.65387 3.87801 6.33835C4.11464 5.98411 4.18209 5.75091 4.37327 4.62584C4.47011 4.05619 4.57054 3.53503 4.59649 3.46778C4.66073 3.30117 4.86095 3.13597 5.04078 3.10118C5.12708 3.08448 5.51758 3.12083 5.971 3.18781C7.28628 3.38198 7.3871 3.39121 7.67939 3.34431C8.18369 3.26341 8.40978 3.10895 9.26851 2.25863C9.69846 1.8329 10.1081 1.44669 10.1787 1.40041C10.3473 1.28997 10.6525 1.28997 10.8211 1.40041ZM14.4187 6.40062C14.2853 6.47516 5.83399 15.1887 5.76474 15.323C5.62243 15.599 5.73626 15.9793 6.01336 16.1534C6.16715 16.2501 6.42806 16.2685 6.57333 16.1928C6.70614 16.1236 15.1607 7.41286 15.2351 7.26851C15.3774 6.99256 15.2636 6.61227 14.9865 6.43811C14.834 6.34224 14.5559 6.32387 14.4187 6.40062ZM8.51214 6.90411C9.07849 7.26511 9.18457 8.06301 8.73111 8.55079C8.31324 9.00028 7.65601 9.01017 7.22748 8.57344C6.95629 8.29705 6.85231 7.76821 6.99844 7.40867C7.24332 6.8059 7.97533 6.56193 8.51214 6.90411ZM13.4939 13.8107C13.8529 13.9996 14.0698 14.369 14.066 14.7854C14.0602 15.421 13.5803 15.8767 12.9594 15.8359C12.0828 15.7784 11.6642 14.6906 12.2688 14.0409C12.5956 13.6896 13.0878 13.5971 13.4939 13.8107Z"/>
  </symbol>
  <symbol id="box" viewBox="0 0 32 35">
    <path fill-rule="evenodd" clip-rule="evenodd" d="M8.1357 3.23956C3.85924 5.05304 0.433081 6.54354 0.344354 6.62898C-0.0208005 6.98059 0.000224193 6.31861 0.000224193 17.4518C0.000224193 28.5849 -0.0208005 27.923 0.344354 28.2746C0.558501 28.4808 15.7319 34.9061 16.0047 34.9061C16.2272 34.9061 31.2448 28.5851 31.5372 28.3684C31.6281 28.3011 31.7695 28.1445 31.8512 28.0205L32 27.7951V17.4518V7.10842L31.8512 6.88302C31.7694 6.75907 31.6281 6.60245 31.5372 6.53509C31.2218 6.30137 16.2256 -0.00272636 15.9914 8.84627e-07C15.8533 0.00163723 12.8696 1.23203 8.1357 3.23956ZM17.8257 3.03842C18.767 3.43606 19.5576 3.78119 19.5824 3.80546C19.637 3.85891 7.81881 9.17663 7.71177 9.14677C7.56374 9.10545 3.86691 7.54035 3.81772 7.49815C3.75775 7.44674 15.7726 2.33077 15.9745 2.32177C16.0513 2.31836 16.8843 2.64086 17.8257 3.03842ZM25.3739 6.23946C26.9477 6.90661 28.2121 7.47319 28.1838 7.49863C28.1555 7.52406 25.4041 8.69895 22.0696 10.1096L16.0069 12.6742L13.3457 11.5474C11.8821 10.9277 10.6476 10.3994 10.6025 10.3733C10.5562 10.3466 11.6616 9.81344 13.1446 9.14724C14.5879 8.49884 17.2563 7.29667 19.0745 6.4757C20.8926 5.65474 22.41 4.99277 22.4463 5.00477C22.4827 5.01677 23.8001 5.57237 25.3739 6.23946ZM4.53718 10.1779L6.84315 11.1538L6.87621 14.1835C6.90708 17.0105 6.91773 17.2275 7.03555 17.4283C7.43376 18.1068 8.46892 18.0684 8.84413 17.3612C8.94528 17.1705 8.96274 16.8462 8.9919 14.6117L9.02495 12.0784L11.9671 13.3252L14.9092 14.572L14.926 23.3744L14.9428 32.1768L14.6536 32.0585C14.4946 31.9935 11.6092 30.7744 8.24169 29.3494L2.11889 26.7585L2.11743 17.9802C2.11657 13.0309 2.14104 9.20186 2.17356 9.20186C2.2053 9.20186 3.2689 9.64108 4.53718 10.1779ZM29.8842 17.9802L29.8842 26.7585L28.314 27.4195C27.163 27.904 17.8169 31.8676 17.1403 32.1581C17.0741 32.1865 17.0608 30.4249 17.0742 23.3853L17.091 14.577L23.405 11.8951C26.8777 10.4201 29.7562 9.21072 29.8017 9.20758C29.8674 9.20302 29.8843 10.9999 29.8842 17.9802Z"/>
  </symbol>
  <symbol id="clock" viewBox="0 0 31 32">
    <path fill-rule="evenodd" clip-rule="evenodd" d="M14.3158 0.0299339C12.0693 0.250977 10.3618 0.741673 8.49569 1.70255C6.03972 2.96709 3.76243 5.1125 2.26468 7.57282C1.18337 9.34893 0.394509 11.6455 0.0759712 13.9443C-0.0253237 14.6754 -0.0253237 17.1293 0.0759712 17.8604C0.329663 19.6913 0.801021 21.2952 1.53745 22.8333C2.37064 24.5734 3.18675 25.7424 4.5341 27.1258C5.86674 28.4939 7.02318 29.3482 8.65462 30.1698C9.79296 30.7431 10.5279 31.0222 11.682 31.3194C14.7102 32.0992 17.7473 31.9496 20.7058 30.8751C21.6088 30.5472 23.1741 29.741 23.973 29.1925C27.3637 26.8645 29.734 23.3346 30.6017 19.3212C30.8038 18.3862 30.9076 17.5123 30.9451 16.4307C31.0371 13.7796 30.5061 11.2565 29.3572 8.88484C28.6028 7.32753 27.7629 6.10701 26.5837 4.85428C25.2847 3.47419 23.9793 2.49846 22.2777 1.63585C20.4833 0.726133 18.8126 0.240721 16.8285 0.0524982C16.2116 -0.00599497 14.8093 -0.0186136 14.3158 0.0299339ZM17.6156 2.16043C21.4183 2.81647 24.6274 4.94647 26.7663 8.23421C27.8458 9.8934 28.5582 11.7907 28.887 13.8821C29.0368 14.8357 29.0368 16.969 28.887 17.9226C28.2345 22.073 26.0217 25.5193 22.5804 27.7447C21.1068 28.6976 19.3312 29.3655 17.4339 29.6806C16.5018 29.8354 14.4263 29.835 13.4984 29.6798C9.52087 29.0149 6.24473 26.8412 4.06886 23.4238C3.05294 21.8281 2.36713 19.9635 2.04556 17.9226C1.89529 16.9685 1.89529 14.8362 2.04556 13.8821C2.53194 10.7952 3.80475 8.2145 5.89423 6.07872C8.2096 3.71208 11.1113 2.32242 14.3763 2.01659C15.0313 1.95524 16.9095 2.03866 17.6156 2.16043ZM14.4974 11.1318V16.3068L17.5405 19.4306L20.5836 22.5543L21.2638 21.854L21.9439 21.1537L19.1894 18.3262L16.4349 15.4988V10.7277V5.95664H15.4661H14.4974V11.1318Z"/>
  </symbol>
  <symbol id="car" viewBox="0 0 30 31">
    <path fill-rule="evenodd" clip-rule="evenodd" d="M0.376589 0.0858542C0.179447 0.187985 0 0.491867 0 0.723603C0 0.96256 0.180877 1.26142 0.385943 1.36141C0.556096 1.44433 0.921068 1.45791 2.97548 1.45791C4.92837 1.45791 5.45122 1.47572 5.8262 1.55515C6.72427 1.74527 7.60596 2.29607 8.14877 3.00608C8.30826 3.21475 10.3108 6.44205 12.5987 10.1779C14.8866 13.9137 16.8209 17.0397 16.8971 17.1246C16.9733 17.2095 17.6956 17.6357 18.5022 18.0716C20.1112 18.9412 20.4549 19.2031 20.8186 19.8367C21.1775 20.462 21.2096 20.7489 21.2096 23.3338V25.6345L21.0633 25.7847L20.9171 25.9349H19.3635C18.1701 25.9349 17.8057 25.9172 17.7917 25.8584C17.4234 24.3092 16.3741 23.1345 14.9539 22.6816C14.5956 22.5673 14.3714 22.5391 13.822 22.5389C13.2273 22.5387 13.0675 22.5621 12.6122 22.7153C11.2161 23.1854 10.2359 24.3019 9.85287 25.8584C9.83797 25.9188 8.85929 25.9349 5.20904 25.9349C0.0804296 25.9349 0.284423 25.9191 0.0939537 26.3313C-0.0246055 26.588 -0.0246055 26.7505 0.0939537 27.0071C0.284423 27.4193 0.0804296 27.4036 5.20904 27.4036C8.85929 27.4036 9.83797 27.4196 9.85287 27.48C10.2359 29.0366 11.2161 30.1531 12.6122 30.6231C13.0675 30.7764 13.2273 30.7997 13.822 30.7996C14.61 30.7994 15.1373 30.6646 15.778 30.2994C16.6981 29.7751 17.5469 28.6332 17.7447 27.6537L17.7891 27.4342L19.5142 27.4036L21.2394 27.373L21.5502 27.2047C21.9449 26.991 22.2378 26.6902 22.4458 26.2848L22.6097 25.9655V23.2731C22.6097 20.8471 22.5989 20.5414 22.5005 20.185C22.243 19.2523 21.6385 18.33 20.9471 17.815C20.744 17.6638 19.9761 17.2153 19.2405 16.8184L17.903 16.0968L14.5235 10.5978C12.6648 7.57337 10.7479 4.45457 10.2637 3.66715C8.83242 1.3392 8.06435 0.654149 6.3291 0.158C5.89478 0.0337793 5.71664 0.0251512 3.21718 0.00703816C0.878828 -0.00997336 0.543645 -0.000672095 0.376589 0.0858542ZM20.5921 0.0544012C18.0688 0.41403 15.8335 1.93968 14.5069 4.20754C14.2087 4.7174 13.8832 5.48518 13.8825 5.6802C13.8817 5.91334 14.0986 6.22806 14.3278 6.32639C14.5886 6.43831 14.6811 6.43709 14.9246 6.31838C15.0886 6.23846 15.1827 6.09692 15.4841 5.47698C16.1422 4.12334 17.0004 3.15901 18.2009 2.42408C19.7576 1.47113 21.7868 1.21216 23.5796 1.73762C24.7294 2.07455 25.7642 2.71622 26.6143 3.61923C27.2378 4.28152 27.5551 4.74426 27.9137 5.51376C28.8487 7.52001 28.8158 9.78555 27.8224 11.7995C27.4651 12.5239 27.4602 12.5404 27.5283 12.7938C27.6563 13.2698 28.1953 13.473 28.5972 13.1967C29.0008 12.9191 29.6306 11.4341 29.8907 10.1473C30.049 9.36356 30.0328 7.69539 29.8586 6.86195C29.492 5.10725 28.8007 3.80569 27.556 2.52731C26.3178 1.25549 25.0305 0.531642 23.3662 0.171401C22.6944 0.0260079 21.2259 -0.0359802 20.5921 0.0544012ZM21.3479 4.24909C20.978 4.43646 20.9648 4.52966 20.9839 6.81073L21.0011 8.86135L22.3389 10.2364C23.0747 10.9927 23.7512 11.6431 23.8423 11.6818C24.1861 11.8282 24.6317 11.5846 24.756 11.1825C24.8596 10.8472 24.755 10.6974 23.5629 9.47414L22.4011 8.28205V6.51615C22.4011 4.54336 22.3811 4.4252 22.0152 4.24689C21.7672 4.12603 21.5897 4.12664 21.3479 4.24909ZM7.52589 6.69679C7.14197 6.89126 7.14918 6.81085 7.15019 10.8602C7.15115 14.8992 7.15621 14.9651 7.52184 15.6795C7.77462 16.1736 8.34031 16.7534 8.804 16.9938C9.46591 17.337 9.7097 17.3661 11.9363 17.3671C14.1839 17.3681 14.2657 17.3552 14.443 16.9716C14.5615 16.7149 14.5615 16.5524 14.443 16.2958C14.2664 15.9136 14.1781 15.8994 11.9918 15.8994C9.78709 15.8994 9.61545 15.8747 9.18482 15.4961C9.04571 15.3738 8.85923 15.1322 8.7704 14.9593L8.60895 14.6449L8.57916 10.851C8.54645 6.68841 8.56426 6.87547 8.18344 6.68988C7.94502 6.57367 7.76527 6.57557 7.52589 6.69679ZM23.9204 15.2667C23.7893 15.3179 23.3834 15.4235 23.0184 15.5014C22.6534 15.5793 22.2968 15.6749 22.2259 15.7139C22.0577 15.8063 21.8654 16.1338 21.8654 16.3277C21.8654 16.5662 22.0834 16.8762 22.3236 16.9792C22.5759 17.0875 22.7871 17.0668 23.7051 16.8436C24.7658 16.5858 25.0313 16.3997 25.0439 15.905C25.0518 15.596 24.9323 15.3766 24.6921 15.2596C24.4534 15.1433 24.2314 15.1453 23.9204 15.2667ZM14.3701 24.0456C15.4129 24.2731 16.212 25.1383 16.3958 26.2388C16.584 27.3665 16.0121 28.538 15.023 29.0509C13.4301 29.8767 11.5495 28.9047 11.2482 27.0997C10.9399 25.2534 12.5748 23.654 14.3701 24.0456Z"/>
  </symbol>
  <symbol id="garage" viewBox="0 0 33 33">
    <path fill-rule="evenodd" clip-rule="evenodd" d="M8.30334 4.48558C3.92552 6.95262 0.271087 9.0442 0.182404 9.13353L0.0211633 9.29596L0.0042007 20.7635C-0.0083761 29.2796 0.00632909 32.278 0.0613445 32.4133C0.102042 32.5135 0.20788 32.6534 0.296563 32.7241C0.455869 32.8513 0.647616 32.8528 16.5 32.8528C32.3524 32.8528 32.5441 32.8513 32.7034 32.7241C32.7921 32.6534 32.898 32.5135 32.9387 32.4133C32.9937 32.278 33.0084 29.2796 32.9958 20.7635L32.9788 9.29596L32.8176 9.13353C32.7289 9.0442 29.0745 6.95262 24.6967 4.48558C18.2054 0.827471 16.6933 0 16.5 0C16.3067 0 14.7946 0.827471 8.30334 4.48558ZM24.0945 5.90087L31.5277 10.0931V20.7204V31.3476H30.0765H28.6253V22.6371C28.6253 13.077 28.6485 13.6395 28.2435 13.3967C28.0698 13.2926 27.2767 13.2851 16.4827 13.2851H4.90806L4.73031 13.427C4.35655 13.7253 4.37467 13.2535 4.37467 22.6742V31.3476H2.95575H1.53683L1.53954 20.6966L1.54225 10.0456L9.005 5.84112C13.334 3.40216 16.5084 1.65174 16.5645 1.67268C16.6177 1.69251 20.0062 3.59522 24.0945 5.90087ZM27.0774 16.2955V17.7353H16.5H5.92259V16.2955V14.8557H16.5H27.0774V16.2955ZM27.0774 20.7457V22.1854H16.5H5.92259V20.7457V19.3059H16.5H27.0774V20.7457ZM27.0774 25.1959V26.6356H16.5H5.92259V25.1959V23.7561H16.5H27.0774V25.1959ZM27.0774 29.7769V31.3476H16.5H5.92259V29.7769V28.2063H16.5H27.0774V29.7769Z"/>
  </symbol>
  <symbol id="timer" viewBox="0 0 29 32">
    <path d="M10.8739 0.0958447C9.84887 0.534356 9.85774 1.97555 10.8881 2.40025C11.0518 2.46777 11.3343 2.49703 11.822 2.49703H15.0562L15.7375 2.49565C16.5263 2.49409 16.8061 2.40237 17.1289 2.03964C17.3143 1.83126 17.4638 1.4774 17.4638 1.24664C17.4638 0.823446 17.1023 0.305347 16.6729 0.11285C16.4399 0.00844248 16.1978 -0.000935442 13.757 6.48692e-05C11.5209 0.00100266 11.0598 0.0163199 10.8739 0.0958447Z"/>
    <path fill-rule="evenodd" clip-rule="evenodd" d="M12.5212 4.80125L12.1568 4.84245C8.66221 5.23732 5.26138 7.08171 3.0635 9.77411C1.5045 11.6838 0.555952 13.7622 0.120494 16.2227C-0.0401647 17.1301 -0.0401647 19.5853 0.120494 20.5263C0.860221 24.8599 3.5885 28.5578 7.48601 30.5097C11.3894 32.4645 15.9292 32.4978 19.8411 30.6005C21.3131 29.8866 22.2904 29.204 23.4471 28.082C25.6266 25.968 26.985 23.3211 27.4492 20.2838C27.5766 19.45 27.5961 17.5329 27.4855 16.7202C27.1511 14.2654 26.2551 12.0859 24.7917 10.1677C24.596 9.91127 24.4359 9.67664 24.4359 9.64632C24.4359 9.61593 24.7909 9.24175 25.2248 8.81475L26.0137 8.03844L26.5288 8.5239C27.0878 9.05069 27.3344 9.18661 27.7315 9.18661C28.6628 9.18661 29.2723 8.2395 28.8782 7.40481C28.8007 7.24088 28.1078 6.51659 26.8674 5.30284C25.0588 3.53329 24.9602 3.44758 24.6495 3.37593C23.848 3.19106 23.1086 3.75192 23.106 4.54654C23.1046 5.01888 23.2318 5.26058 23.7683 5.80443L24.2422 6.28477L22.6153 7.88614L22.0176 7.4487C20.378 6.24888 18.5149 5.42413 16.5773 5.04038C16.1416 4.95411 15.6211 4.86502 15.4207 4.84238L15.0562 4.80125L13.8095 4.76596L12.5212 4.80125ZM23.1154 12.1802C21.2522 9.43163 18.2982 7.6787 14.9161 7.31472C12.8123 7.08833 10.7183 7.46945 8.75031 8.43694C7.55231 9.02587 6.82703 9.5481 5.80167 10.56C3.62577 12.7073 2.50775 15.3605 2.50775 18.377C2.50775 21.9978 4.248 25.3189 7.26654 27.4588C8.371 28.2418 10.0252 28.9571 11.4121 29.2513C15.9171 30.2071 20.533 28.3614 23.1143 24.572C25.6856 20.7976 25.686 15.9725 23.1154 12.1802Z"/>
    <path d="M13.7065 13.8294C12.7527 13.8294 11.9601 14.2361 11.3285 15.0495L10.0138 13.5816C10.3747 12.997 10.8967 12.5268 11.5798 12.1709C12.263 11.815 13.017 11.6371 13.8418 11.6371C15.105 11.6371 16.091 11.9612 16.7998 12.6094C17.5345 13.2448 17.9018 14.0391 17.9018 14.9923C17.9018 15.8311 17.7343 16.5111 17.3992 17.0322C17.0641 17.5405 16.5936 18.0362 15.9878 18.5191C15.9105 18.5827 15.8074 18.6653 15.6785 18.767C15.5625 18.8687 15.4658 18.9513 15.3885 19.0148C15.3241 19.0656 15.2338 19.1419 15.1178 19.2436C15.0147 19.3452 14.9374 19.4279 14.8858 19.4914C14.8343 19.5422 14.7634 19.6249 14.6732 19.7392C14.5958 19.8409 14.5443 19.9299 14.5185 20.0061C14.4927 20.0824 14.4541 20.1841 14.4025 20.3111C14.3638 20.4382 14.351 20.5526 14.3638 20.6543C14.3896 20.756 14.4025 20.8831 14.4025 21.0356L12.3725 21.0546C12.2952 20.5844 12.2887 20.1713 12.3532 19.8155C12.4305 19.4469 12.5916 19.1165 12.8365 18.8242C13.0943 18.5191 13.3005 18.3031 13.4552 18.176C13.6227 18.0362 13.887 17.8329 14.2478 17.566C15.0985 16.9813 15.5238 16.2823 15.5238 15.4689C15.5238 15.0114 15.3498 14.6238 15.0018 14.306C14.6538 13.9883 14.2221 13.8294 13.7065 13.8294ZM11.9472 23.7617C11.9472 23.3931 12.089 23.0691 12.3725 22.7894C12.669 22.4971 13.0363 22.351 13.4745 22.351C13.8741 22.351 14.2092 22.4971 14.4798 22.7894C14.7634 23.0691 14.9052 23.3931 14.9052 23.7617C14.9052 24.1811 14.7698 24.5433 14.4992 24.8483C14.2285 25.1407 13.887 25.2868 13.4745 25.2868C13.0363 25.2868 12.669 25.1407 12.3725 24.8483C12.089 24.5433 11.9472 24.1811 11.9472 23.7617Z"/>
  </symbol>
  <symbol id="message" viewBox="0 0 33 30">
    <path fill-rule="evenodd" clip-rule="evenodd" d="M2.72456 0.0891308C1.43099 0.410921 0.301125 1.62159 0.0693515 2.93429C0.0220429 3.20201 0 6.21379 0 12.4027C0 21.2395 0.00335156 21.492 0.127939 21.9921C0.425197 23.1853 1.24491 24.0992 2.41041 24.537L2.86816 24.7089L7.47584 24.742L12.0836 24.7751L13.6633 26.9714C14.5322 28.1795 15.3113 29.2416 15.3945 29.3318C15.6629 29.6223 16.1494 29.7915 16.6079 29.7537C17.3415 29.6932 17.4128 29.6227 19.1534 27.2358C20.0077 26.0644 20.7807 25.0241 20.8712 24.924L21.0358 24.742L25.3904 24.7409C30.1928 24.7396 30.2508 24.7354 31.0526 24.3314C31.5751 24.0681 32.2433 23.4148 32.539 22.8779C32.6527 22.6715 32.8036 22.2681 32.8741 21.9814C32.9998 21.4713 33.0022 21.2604 32.9851 12.1663L32.9677 2.87248L32.8001 2.43053C32.3461 1.2331 31.4127 0.368439 30.2775 0.0936966C29.9282 0.00913004 28.0734 -0.00337629 16.4677 0.000660139C5.88095 0.00429955 2.99068 0.0229598 2.72456 0.0891308ZM29.92 2.04819C30.0516 2.08571 30.1745 2.14143 30.1928 2.17206C30.2369 2.24525 17.5085 13.0909 17.186 13.2549C16.8362 13.4329 16.3838 13.4638 16.0075 13.3353C15.7535 13.2487 14.4777 12.1918 9.25842 7.74446C5.71866 4.72832 2.81827 2.2344 2.81312 2.20257C2.77921 1.9936 3.2126 1.98665 16.4677 1.98328C25.3572 1.98103 29.7589 2.00227 29.92 2.04819ZM7.30266 8.6606C11.669 12.3788 11.9177 12.602 11.8111 12.7074C11.1457 13.3654 2.03304 21.4888 1.99063 21.4618C1.95802 21.4411 1.93359 17.7123 1.93359 12.7554V4.0852L2.30748 4.4052C2.51315 4.58128 4.76095 6.49614 7.30266 8.6606ZM31.0143 21.4472C30.9854 21.4769 29.3811 20.0789 27.4491 18.3407C25.5171 16.6024 23.2922 14.6009 22.5048 13.8928L21.0732 12.6054L21.2519 12.4582C21.3502 12.3773 23.5914 10.4684 26.2324 8.21626L31.0341 4.12146L31.0505 12.7574C31.0595 17.5071 31.0432 21.4175 31.0143 21.4472ZM14.1124 14.4533C15.1749 15.3278 16.1963 15.5878 17.3646 15.281C17.9935 15.1158 18.3524 14.915 19.0242 14.3521L19.5588 13.9041L19.7315 14.0459C19.8265 14.1239 22.0367 16.1083 24.6432 18.4558L29.3822 22.7238L24.9875 22.7569L20.5927 22.79L20.274 22.9408C20.0987 23.0238 19.8594 23.1668 19.7422 23.2587C19.6249 23.3504 18.8597 24.3396 18.0416 25.4569C17.2235 26.574 16.5283 27.4881 16.4967 27.4881C16.465 27.4881 15.798 26.5948 15.0144 25.503C14.2307 24.4112 13.4976 23.4361 13.3851 23.3361C13.2727 23.2361 13.0211 23.0723 12.8262 22.9721L12.4717 22.79L8.04412 22.7569L3.61652 22.7238L5.9494 20.6274C7.23247 19.4743 9.44127 17.4882 10.8578 16.2139C12.4173 14.8111 13.4599 13.9182 13.5004 13.9508C13.5373 13.9804 13.8127 14.2065 14.1124 14.4533Z"/>
  </symbol>
  <symbol id="download" viewBox="0 0 26 34">
    <path fill-rule="evenodd" clip-rule="evenodd" d="M1.72456 0.0866638C1.03091 0.270014 0.496772 0.719282 0.176396 1.3888L0 1.75749V17.0145V32.2715L0.178702 32.6451C0.430106 33.1707 0.788731 33.5311 1.31141 33.7833L1.76044 34H12.9873H24.2141L24.6631 33.7833C25.1858 33.5311 25.5445 33.1707 25.7959 32.6451L25.9746 32.2715L25.9923 21.3512C26.0097 10.6554 26.0074 10.4257 25.8785 10.1826C25.8042 10.0425 23.5523 7.7889 20.7065 5.00667C16.5005 0.894654 15.6282 0.0720383 15.4372 0.0373361C15.3114 0.0144672 12.2443 -0.00221918 8.62145 0.000240559C3.62728 0.00369749 1.95962 0.024572 1.72456 0.0866638ZM14.0872 6.02879L14.1063 9.93446L14.298 10.3411C14.5267 10.8261 14.9192 11.22 15.4288 11.4757L15.8018 11.6629L19.8202 11.682L23.8387 11.7011L23.8215 21.7869L23.8044 31.8727H12.9873H2.1702L2.15284 17.081C2.14327 8.94558 2.14992 2.25196 2.16762 2.20623C2.19305 2.14061 3.44906 2.12313 8.13404 2.12313H14.0682L14.0872 6.02879ZM19.3456 9.55293C17.7322 9.56244 16.374 9.55592 16.3273 9.53837C16.2613 9.51358 16.2426 8.85649 16.2426 6.56302V3.61945L19.2608 6.57751L22.279 9.53558L19.3456 9.55293ZM12.5248 13.3997C12.4008 13.4616 12.2177 13.6173 12.1178 13.7457L11.9361 13.9793L11.9174 17.401L11.8986 20.8227L11.0641 20.0206C10.1727 19.1639 10.0098 19.076 9.49082 19.1714C9.17044 19.2303 8.73715 19.6551 8.67699 19.9691C8.56672 20.5456 8.579 20.5621 10.6013 22.5444C12.6292 24.5323 12.6362 24.5373 13.2416 24.4299C13.4615 24.3909 13.7504 24.1353 15.3733 22.5444C17.3956 20.5621 17.4078 20.5456 17.2976 19.9691C17.2374 19.6551 16.8041 19.2303 16.4837 19.1714C15.9645 19.0759 15.802 19.1637 14.9086 20.0224L14.0724 20.8261V17.4845C14.0724 13.7722 14.082 13.8566 13.6191 13.5106C13.3239 13.2898 12.8423 13.241 12.5248 13.3997ZM7.11757 26.6811C6.66922 26.8725 6.41022 27.3828 6.50639 27.8853C6.56587 28.196 6.90442 28.5633 7.21204 28.6508C7.38064 28.6988 9.27644 28.715 13.1349 28.7015C18.7448 28.6818 18.812 28.6801 18.997 28.5446C19.3511 28.2854 19.464 28.0711 19.464 27.6578C19.464 27.3448 19.4307 27.2325 19.2813 27.0405C18.9086 26.5616 19.2688 26.5873 12.977 26.5901C8.43074 26.5923 7.28393 26.61 7.11757 26.6811Z"/>
  </symbol>
  <symbol id="file" viewBox="0 0 34 31">
    <path fill-rule="evenodd" clip-rule="evenodd" d="M2.23904 4.68927C1.69343 4.86761 1.30447 5.12719 0.86526 5.60623C0.434453 6.07611 0.177919 6.61708 0.0657362 7.29231C0.00799532 7.63984 -0.0100764 10.7992 0.00514622 17.857L0.0268928 27.9259L0.191192 28.3683C0.517915 29.2476 1.23053 29.998 2.06327 30.3397L2.5015 30.5195L15.7369 30.5421C25.4129 30.5587 29.0927 30.5413 29.4198 30.4778C30.6563 30.2375 31.6978 29.1793 31.9314 27.9259C31.9932 27.5944 32.0105 24.6503 31.9943 17.2468L31.9774 9.54797H30.4197C30.4257 10.9795 30.426 13.0671 30.4191 15.3303L30.3971 22.6435L26.8535 18.4388C24.9045 16.1263 23.1688 14.1302 22.9964 14.0031C22.1985 13.4152 21.0403 13.4241 20.2094 14.0247C20.0415 14.146 17.7446 16.9151 13.5862 22.0097C13.5711 22.0282 12.9769 21.4548 12.2656 20.7355C10.7502 19.2031 10.5608 19.0845 9.62538 19.0829C9.61239 19.0828 9.59956 19.0828 9.58689 19.0828C9.37892 19.0823 9.21252 19.0819 9.05117 19.1103C8.40551 19.2237 7.84062 19.7969 5.01529 22.6639L4.88395 22.7971L1.63914 26.0897V16.726C1.63914 7.66204 1.64371 7.35349 1.78222 7.07949C1.86095 6.92388 2.02128 6.70397 2.13841 6.59092C2.16864 6.56176 2.19316 6.53454 2.21605 6.50913C2.23464 6.4885 2.25215 6.46906 2.27077 6.45074C2.57411 6.15235 3.17093 6.1523 13.4907 6.15143C14.2713 6.15137 15.1075 6.1513 16.0034 6.15109L22.9964 6.14951L23 4.54801C21.8624 4.5473 20.5375 4.54806 18.9924 4.54894C18.0762 4.54946 17.0825 4.55003 16.0045 4.55036C3.4495 4.55418 2.62681 4.56249 2.23904 4.68927ZM22.0953 15.3623C22.1899 15.4339 24.104 17.6721 26.3489 20.3361L30.4305 25.1799L30.4326 26.2712C30.4337 26.8715 30.3949 27.5227 30.3465 27.7184C30.2255 28.2071 29.6987 28.7431 29.2182 28.8661C28.7598 28.9836 3.24434 28.9952 2.8301 28.8782C2.68095 28.836 2.44789 28.7247 2.31223 28.6308C2.28089 28.6091 2.25065 28.5896 2.2223 28.5713C2.1346 28.5148 2.06497 28.47 2.03691 28.4067C1.92876 28.1628 2.43804 27.6452 4.91012 25.1323C5.11724 24.9218 5.33814 24.6972 5.57362 24.4577C7.98996 21.9993 9.31193 20.7075 9.44091 20.6787C9.54867 20.6547 9.73546 20.6724 9.85604 20.7181C9.97662 20.7637 10.7671 21.5015 11.6126 22.3575C12.4581 23.2135 13.2475 23.9509 13.3668 23.9962L13.3754 23.9994C13.4444 24.0256 13.5038 24.0481 13.5649 24.0552C13.9408 24.0986 14.3842 23.5575 17.5544 19.6886L17.6193 19.6093C19.9387 16.7787 21.2094 15.2867 21.3441 15.2355C21.5917 15.1416 21.8643 15.1876 22.0953 15.3623Z"/>
    <path d="M28.626 4.698H25.242V3.438H28.626V0H29.976V3.438H33.414V4.698H29.976V8.172H28.626V4.698Z"/>
  </symbol>
  <symbol id="exclamation" viewBox="0 0 31 31">
    <path d="M16.156 18.67H14.286V8H16.156V18.67ZM14 22.212C14 21.8893 14.1173 21.618 14.352 21.398C14.5867 21.1633 14.8947 21.046 15.276 21.046C15.584 21.046 15.8553 21.1633 16.09 21.398C16.3247 21.6327 16.442 21.904 16.442 22.212C16.442 22.564 16.332 22.8647 16.112 23.114C15.892 23.3487 15.6133 23.466 15.276 23.466C14.8947 23.466 14.5867 23.3487 14.352 23.114C14.1173 22.8647 14 22.564 14 22.212Z"/>
    <path fill-rule="evenodd" clip-rule="evenodd" d="M16.156 18.67H14.286V8H16.156V18.67ZM14 22.212C14 21.8893 14.1173 21.618 14.352 21.398C14.5867 21.1633 14.8947 21.046 15.276 21.046C15.584 21.046 15.8553 21.1633 16.09 21.398C16.3247 21.6327 16.442 21.904 16.442 22.212C16.442 22.564 16.332 22.8647 16.112 23.114C15.892 23.3487 15.6133 23.466 15.276 23.466C14.8947 23.466 14.5867 23.3487 14.352 23.114C14.1173 22.8647 14 22.564 14 22.212Z"/>
    <path fill-rule="evenodd" clip-rule="evenodd" d="M31 15.5C31 24.0604 24.0604 31 15.5 31C6.93959 31 0 24.0604 0 15.5C0 6.93959 6.93959 0 15.5 0C24.0604 0 31 6.93959 31 15.5ZM15.5 29C22.9558 29 29 22.9558 29 15.5C29 8.04416 22.9558 2 15.5 2C8.04416 2 2 8.04416 2 15.5C2 22.9558 8.04416 29 15.5 29Z"/>
  </symbol>
  <symbol id="like" viewBox="0 0 18 17">
    <path fill-rule="evenodd" clip-rule="evenodd" d="M9.63557 0.0578464C9.31478 0.133099 8.97613 0.319652 8.73123 0.55599C8.60458 0.678205 7.74238 1.83758 6.5859 3.44067C4.86767 5.8225 4.64567 6.11516 4.5925 6.06853C4.40881 5.90741 4.33714 5.90184 2.45326 5.90184H0.655923L0.451052 6.00557C0.30188 6.08108 0.214729 6.15856 0.130605 6.29035L0.0151058 6.47145L0.00323031 11.3192C-0.00554224 14.9093 0.00296212 16.2189 0.036022 16.3675C0.0718018 16.5281 0.11689 16.6032 0.26227 16.7441C0.532763 17.0062 0.562988 17.0095 2.58175 16.9956L4.30561 16.9836L4.47631 16.8908C4.70811 16.7648 4.86679 16.5382 4.89046 16.2994C4.90073 16.1959 4.91597 16.1112 4.92433 16.1112C4.93268 16.1112 5.1934 16.2757 5.50366 16.4768C5.81392 16.6778 6.12812 16.8741 6.20186 16.913C6.33115 16.9811 6.47435 16.9836 10.2242 16.9836H14.1125L14.2657 16.9037C14.35 16.8598 14.456 16.7846 14.5013 16.7367C14.6383 16.5917 17.7126 10.5936 17.8222 10.2574C17.9491 9.86812 18.0009 9.45878 18 8.85424C17.9983 7.77839 17.796 7.22661 17.187 6.63662C16.9474 6.4044 16.8224 6.31749 16.5358 6.18351C15.9514 5.91027 15.8657 5.90184 13.6771 5.90184H11.7637L12.1613 4.74168C12.6257 3.38644 12.6839 3.09441 12.6049 2.51879C12.5019 1.7689 12.2321 1.23942 11.68 0.703747C11.3938 0.426015 11.2545 0.321545 11.0287 0.215219C10.5634 -0.00381807 10.1146 -0.0544938 9.63557 0.0578464ZM10.3652 1.67523C10.7014 1.8724 10.958 2.34003 10.9826 2.80023L10.9985 3.0989L10.4147 4.80665C9.78129 6.65937 9.76011 6.75326 9.91062 7.0392C9.99513 7.19973 10.1723 7.36501 10.337 7.43688C10.4064 7.46721 11.1992 7.48507 13.059 7.49821C15.9612 7.51874 15.7775 7.50256 16.0445 7.76128C16.3 8.0089 16.3323 8.12035 16.3468 8.80327C16.3567 9.27219 16.3455 9.47842 16.3002 9.65714C16.2604 9.81455 15.77 10.8076 14.8225 12.6493L13.4044 15.4058H10.0999H6.79541L5.8474 14.793L4.89939 14.1803V11.3621V8.54387L7.38807 5.09745C9.22211 2.55755 9.9048 1.63933 9.98344 1.60663C10.1037 1.55654 10.1889 1.57184 10.3652 1.67523ZM3.29045 11.452V15.4058H2.46682H1.6432V11.452V7.49821H2.46682H3.29045V11.452Z"/>
  </symbol>
  <symbol id="angle-left" viewBox="0 0 7 10">
    <path d="M4.55375 4.92473e-05L6.10531 1.5516L1.55155 6.10536L-1.50025e-05 4.55381L4.55375 4.92473e-05Z"/>
    <path d="M6.10527 7.55596L4.55374 9.10757L-1.50025e-05 4.55381L1.55151 3.0022L6.10527 7.55596Z"/>
  </symbol>
  <symbol id="check" viewBox="0 0 11 9">
    <path d="M1.95218 2.39352L6.58979 7.03113L4.63711 8.98381L-0.000498801 4.3462L1.95218 2.39352Z"/>
    <path d="M10.9833 2.63761L4.63711 8.98381L2.68443 7.03113L9.03063 0.684932L10.9833 2.63761Z"/>
  </symbol>
  <symbol id="cross" viewBox="0 0 10 10">
    <path d="M3.92701 4.9848L1.00241 2.06021L2.09136 0.971263L5.01595 3.89586L7.98722 0.924593L9.15394 2.09132L6.18268 5.06258L9.15394 8.03385L8.065 9.12279L5.09373 6.15153L2.09136 9.1539L0.924632 7.98718L3.92701 4.9848Z"/>
  </symbol>
  <symbol id="angle-right" viewBox="0 0 6 10">
    <path d="M0.189761 9.18982L0.185647 7.50827L3.75911 4.81898L0.145175 2.54241L0.112861 0.8872L5.8399 4.8241L0.189761 9.18982Z"/>
  </symbol>
  <symbol id="filter" viewBox="0 0 19 16">
    <path fill-rule="evenodd" clip-rule="evenodd" d="M2.27648 0.0924358C2.13751 0.167728 2.05922 0.250491 1.98971 0.395618C1.89413 0.59519 1.89413 0.595727 1.89413 2.98338V5.37149L1.79875 5.39775C1.74624 5.4122 1.55405 5.50274 1.37154 5.59893C0.781611 5.90985 0.325126 6.49219 0.08348 7.24207C-0.0278267 7.58749 -0.0278267 8.41771 0.08348 8.76313C0.325126 9.51301 0.781611 10.0953 1.37154 10.4063C1.55405 10.5025 1.74624 10.593 1.79875 10.6075L1.89413 10.6337V13.0218C1.89413 15.4095 1.89413 15.41 1.98971 15.6096C2.11343 15.8679 2.38179 16.0257 2.64795 15.9966C2.83964 15.9756 3.08634 15.8096 3.1787 15.6396C3.2194 15.5647 3.2375 14.9472 3.2536 13.0845L3.27484 10.6282L3.49125 10.5508C4.23547 10.2845 4.89639 9.50545 5.10124 8.65308C5.18341 8.31137 5.18341 7.69383 5.10124 7.35212C4.89758 6.50481 4.24499 5.72969 3.50395 5.45496L3.27484 5.37001L3.2536 2.91722C3.2375 1.05737 3.2194 0.440534 3.1787 0.3656C3.08634 0.195555 2.83964 0.0296251 2.64795 0.0086435C2.51566 -0.00585127 2.41676 0.0164725 2.27648 0.0924358ZM8.86141 0.065191C8.42549 0.185757 8.02092 0.430647 7.69337 0.772214C7.17206 1.31581 6.95459 1.82595 6.9186 2.58943C6.89239 3.14582 6.95697 3.47683 7.1854 3.95695C7.46401 4.5426 7.95639 5.02088 8.52065 5.25401L8.81893 5.37726V10.415C8.81893 15.2322 8.82237 15.4595 8.89761 15.6086C9.13135 16.0718 9.73929 16.1247 10.0411 15.708L10.1572 15.5478L10.1683 10.4612L10.1795 5.37471L10.4307 5.27825C10.9906 5.06325 11.5307 4.54797 11.809 3.96317C12.0404 3.47683 12.105 3.14766 12.0787 2.58943C12.0427 1.82595 11.8253 1.31581 11.304 0.772214C10.9703 0.424205 10.5666 0.182984 10.1164 0.0624622C9.80098 -0.0219564 9.17159 -0.0205697 8.86141 0.065191ZM16.1473 0.0578544C15.9911 0.130955 15.8493 0.288518 15.7891 0.456147C15.7583 0.54155 15.7437 1.74475 15.7437 4.1958V7.80947L15.5632 7.86629C15.3081 7.94654 15.1218 8.05297 14.8243 8.28847C14.2071 8.77709 13.8341 9.58137 13.8326 10.4274C13.8318 10.8877 13.8934 11.1722 14.0907 11.6199C14.3203 12.1405 14.7729 12.6199 15.2778 12.877C15.4732 12.9765 15.658 13.0579 15.6884 13.0579C15.7325 13.0579 15.7437 13.2994 15.7437 14.2448C15.7437 15.5701 15.7564 15.6454 16.0156 15.8536C16.3474 16.12 16.8187 16.0041 17.0076 15.6096C17.0995 15.4177 17.1032 15.3644 17.1032 14.2374V13.0648L17.2625 13.0116C17.5209 12.9254 17.9249 12.673 18.1582 12.4522C18.4541 12.172 18.7651 11.6681 18.8901 11.2662C19.0327 10.8075 19.0371 10.0935 18.9 9.6355C18.6612 8.83712 17.9676 8.07288 17.2909 7.86248L17.1032 7.8041V4.19969V0.595235L17.0076 0.395618C16.8495 0.0654595 16.4588 -0.0879433 16.1473 0.0578544ZM9.93994 1.51771C10.3882 1.69429 10.6858 2.12166 10.7211 2.63935C10.747 3.01948 10.655 3.32021 10.4305 3.58872C10.1786 3.89016 9.89648 4.02101 9.49867 4.02101C9.10085 4.02101 8.81876 3.89016 8.56679 3.58872C8.34235 3.32021 8.25029 3.01948 8.27621 2.63935C8.33619 1.75938 9.154 1.20804 9.93994 1.51771ZM3.01 6.77569C3.67312 7.0136 4.0138 7.88973 3.7032 8.55823C3.32382 9.37482 2.30825 9.55417 1.69866 8.91224C1.06829 8.24843 1.32799 7.08934 2.17868 6.76983C2.39772 6.68756 2.77175 6.6902 3.01 6.77569ZM16.9379 9.24284C17.0448 9.29268 17.2118 9.42063 17.3091 9.52728C17.8823 10.1554 17.7095 11.2002 16.9646 11.6109C16.8817 11.6566 16.6905 11.6946 16.4833 11.7065C16.0895 11.7291 15.8746 11.6551 15.6019 11.4029C15.3333 11.1546 15.222 10.905 15.1999 10.5012C15.1819 10.1743 15.1903 10.1275 15.3153 9.86008C15.5473 9.3639 15.9565 9.10662 16.4666 9.13623C16.6203 9.14518 16.83 9.1926 16.9379 9.24284Z"/>
  </symbol>
  <symbol id="filter-sm" viewBox="0 0 21 20">
    <path fill-rule="evenodd" clip-rule="evenodd" d="M1.68093 0.0510196C0.893619 0.237784 0.234779 0.923304 0.0414181 1.75705C-0.0759122 2.26282 0.0628216 2.96113 0.371762 3.41988C0.444388 3.52775 2.13974 5.42927 4.13917 7.64548L7.77446 11.675L7.7875 15.5899C7.80034 19.4573 7.8017 19.5066 7.90079 19.6403C8.14231 19.9664 8.53332 20.0873 8.8516 19.9344C8.94237 19.8908 9.92503 19.1215 11.0353 18.2249C12.4912 17.0493 13.0778 16.5469 13.1391 16.4231C13.2165 16.2671 13.2242 16.0435 13.2242 13.9639L13.2243 11.6763L16.447 8.10345C18.2195 6.13838 19.8868 4.28834 20.152 3.99233C20.6876 3.39463 20.8848 3.04169 20.9729 2.52313C21.1159 1.68188 20.6822 0.759634 19.9303 0.305791C19.3863 -0.0225289 19.9866 -0.00321026 10.4779 0.0021833C5.60259 0.00497814 1.78566 0.0261602 1.68093 0.0510196ZM19.0974 1.64859C19.3382 1.76377 19.4843 2.09375 19.4082 2.35009C19.3679 2.48547 18.4137 3.57497 15.6033 6.69436C13.5402 8.98431 11.8161 10.9121 11.7721 10.9783C11.7015 11.0844 11.6892 11.3715 11.6677 13.4013L11.6434 15.7039L10.5246 16.6239C9.90922 17.1299 9.38931 17.5455 9.36927 17.5474C9.34923 17.5493 9.33186 16.1222 9.33074 14.376C9.32889 11.4774 9.3215 11.1877 9.24562 11.0468C9.19994 10.9619 7.48795 9.03452 5.44124 6.76379C3.39452 4.493 1.68166 2.56598 1.63481 2.4815C1.47239 2.18834 1.56637 1.84045 1.8561 1.66242C2.00894 1.56842 2.16684 1.56666 10.4686 1.56651C18.2838 1.56631 18.9384 1.57254 19.0974 1.64859Z"/>
  </symbol>
  <symbol id="lope" viewBox="0 0 20 20">
    <path fill-rule="evenodd" clip-rule="evenodd" d="M6.95077 0.0425519C5.21441 0.262049 3.57288 1.06908 2.32691 2.3158C-0.0305102 4.67463 -0.666568 8.25052 0.740395 11.2352C1.90302 13.7016 4.22164 15.4081 6.88438 15.7573C8.86016 16.0164 10.8832 15.5086 12.4982 14.3482C12.6902 14.2103 12.861 14.0974 12.8779 14.0974C12.8947 14.0974 14.2011 15.3897 15.781 16.9692C18.8087 19.996 18.8121 19.9989 19.1616 20C19.3341 20.0005 19.6715 19.8587 19.7749 19.7422C19.8875 19.6152 20 19.3247 20 19.1606C20 18.8115 19.9971 18.8082 16.9715 15.778C15.3929 14.1972 14.1014 12.8917 14.1014 12.8771C14.1014 12.8625 14.2156 12.6891 14.3552 12.4918C15.3261 11.1192 15.818 9.58791 15.82 7.93167C15.8226 5.78928 15.0013 3.80755 13.4865 2.30098C12.2936 1.11459 10.8212 0.36261 9.13895 0.0805945C8.60828 -0.00839306 7.50536 -0.0275512 6.95077 0.0425519ZM8.82636 1.72417C10.6082 2.01052 12.1294 2.97433 13.0951 4.4289C13.8133 5.51075 14.1432 6.59264 14.1476 7.8808C14.1497 8.50114 14.1055 8.87703 13.9632 9.44579C13.4131 11.6451 11.6506 13.4087 9.45261 13.9591C8.88419 14.1014 8.50852 14.1457 7.88856 14.1436C6.60117 14.1392 5.51993 13.8091 4.43874 13.0904C2.71316 11.9435 1.67647 9.9995 1.67584 7.9097C1.67553 6.85843 1.89103 5.97758 2.38009 5.03082C3.17029 3.5011 4.57335 2.36241 6.26696 1.87626C6.98105 1.67131 8.08808 1.6055 8.82636 1.72417Z"/>
  </symbol>
  <symbol id="cabinet" viewBox="0 0 20 20">
    <path d="M15.3501 7.79682C16.3251 6.98813 16.9472 5.768 16.9472 4.40524C16.9472 1.97621 14.971 0 12.542 0C10.113 0 8.13684 1.97621 8.13684 4.40524C8.13684 4.72274 8.1709 5.0324 8.23504 5.33103C7.98418 5.2865 7.72614 5.26318 7.4627 5.26318C5.03368 5.26318 3.05754 7.23939 3.05754 9.66842C3.05754 11.0311 3.67953 12.2511 4.65438 13.0598C1.92731 14.1716 0 16.8516 0 19.9736H1.56285C1.56285 16.7203 4.2095 14.0737 7.46266 14.0737C9.89169 14.0737 11.8678 12.0975 11.8678 9.66846C11.8678 9.35095 11.8338 9.04126 11.7696 8.74262C12.0205 8.78715 12.2785 8.81047 12.542 8.81047C14.4591 8.81047 16.1649 9.73018 17.2431 11.151L18.3022 9.97182C17.5194 9.02188 16.5066 8.26851 15.3501 7.79682ZM7.4627 12.5108C5.89547 12.5108 4.62039 11.2357 4.62039 9.66842C4.62039 8.10112 5.89547 6.82606 7.4627 6.82606C9.02993 6.82606 10.305 8.10116 10.305 9.66842C10.305 11.2357 9.02993 12.5108 7.4627 12.5108ZM12.542 7.24755C10.9748 7.24755 9.69969 5.97249 9.69969 4.4052C9.69969 2.8379 10.9748 1.56288 12.542 1.56288C14.1092 1.56288 15.3843 2.83794 15.3843 4.40524C15.3843 5.97257 14.1093 7.24755 12.542 7.24755Z"/>
    <path d="M18.8372 11.7149L13.409 17.7587L10.3457 14.8427L9.26824 15.9748L13.4968 20L20 12.7592L18.8372 11.7149Z"/>
  </symbol>
  <symbol id="chat" viewBox="0 0 20 20">
    <path fill-rule="evenodd" clip-rule="evenodd" d="M8.76904 0.043058C8.66163 0.0701484 8.39797 0.123313 8.18314 0.161232C1.83439 1.28234 -1.80506 8.29675 0.918777 14.1621C1.17868 14.7218 1.2247 14.8907 1.19825 15.188C1.17443 15.4561 0.303225 18.2304 0.101127 18.6818C0.0217175 18.8592 0 18.9699 0 19.1976V19.4875L0.25608 19.7437L0.51212 20H0.798042C1.02158 20 1.13404 19.9778 1.31344 19.898C1.77361 19.6934 4.54084 18.8246 4.80813 18.8008C5.10526 18.7743 5.27404 18.8204 5.83327 19.0805C10.7082 21.348 16.5506 19.2755 18.9441 14.4295C22.2308 7.7752 17.4533 0.0519318 10.019 0.00107375C9.27898 -0.00396905 8.90607 0.00854023 8.76904 0.043058ZM11.308 1.66387C18.063 2.78951 20.7814 10.9468 16.0357 15.8511C13.3962 18.5788 9.55533 19.1853 6.02951 17.4313L5.41747 17.1268L5.0621 17.1271C4.7263 17.1274 4.65509 17.144 3.76674 17.43C2.10289 17.9657 2.03266 17.8954 2.5679 16.2303C2.85371 15.3412 2.87035 15.2699 2.87062 14.9339L2.87093 14.5782L2.56669 13.9657C1.56874 11.9565 1.32168 9.97566 1.82006 7.97937C2.87941 3.73587 7.05652 0.955453 11.308 1.66387ZM5.72234 9.15825C4.85352 9.61519 5.12675 10.8917 6.09341 10.8917C7.05277 10.8917 7.33666 9.6123 6.47581 9.16822C6.29418 9.07452 5.89163 9.0692 5.72234 9.15825ZM9.62837 9.15825C8.75955 9.61519 9.03278 10.8917 9.99944 10.8917C10.9588 10.8917 11.2427 9.6123 10.3818 9.16822C10.2002 9.07452 9.79766 9.0692 9.62837 9.15825ZM13.5344 9.15825C12.6656 9.61519 12.9388 10.8917 13.9055 10.8917C14.8648 10.8917 15.1487 9.6123 14.2879 9.16822C14.1062 9.07452 13.7037 9.0692 13.5344 9.15825Z"/>
  </symbol>
  <symbol id="chat-fill" viewBox="0 0 20 20">
    <path fill-rule="evenodd" clip-rule="evenodd" d="M11.308 1.66387C18.063 2.78951 20.7814 10.9468 16.0357 15.8511C13.3962 18.5788 9.55533 19.1853 6.02951 17.4313L5.41747 17.1268L5.0621 17.1271C4.7263 17.1274 4.65509 17.144 3.76674 17.43C2.10289 17.9657 2.03266 17.8954 2.5679 16.2303C2.85371 15.3412 2.87035 15.2699 2.87062 14.9339L2.87093 14.5782L2.56669 13.9657C1.56874 11.9565 1.32168 9.97566 1.82006 7.97937C2.87941 3.73587 7.05652 0.955453 11.308 1.66387ZM6.09341 10.8917C5.12675 10.8917 4.85352 9.61519 5.72234 9.15825C5.89163 9.0692 6.29418 9.07452 6.47581 9.16822C7.33666 9.6123 7.05277 10.8917 6.09341 10.8917ZM9.99944 10.8917C9.03278 10.8917 8.75955 9.61519 9.62837 9.15825C9.79766 9.0692 10.2002 9.07452 10.3818 9.16822C11.2427 9.6123 10.9588 10.8917 9.99944 10.8917ZM13.9055 10.8917C12.9388 10.8917 12.6656 9.61519 13.5344 9.15825C13.7037 9.0692 14.1062 9.07452 14.2879 9.16822C15.1487 9.6123 14.8648 10.8917 13.9055 10.8917Z"/>
    <path fill-rule="evenodd" clip-rule="evenodd" d="M8.18314 0.161232C8.39797 0.123313 8.66163 0.0701484 8.76904 0.043058C8.90607 0.00854023 9.27898 -0.00396905 10.019 0.00107375C17.4533 0.0519318 22.2308 7.7752 18.9441 14.4295C16.5506 19.2755 10.7082 21.348 5.83327 19.0805C5.27404 18.8204 5.10526 18.7743 4.80813 18.8008C4.54084 18.8246 1.77361 19.6934 1.31344 19.898C1.13404 19.9778 1.02158 20 0.798042 20H0.51212L0.25608 19.7437L0 19.4875V19.1976C0 18.9699 0.0217175 18.8592 0.101127 18.6818C0.303225 18.2304 1.17443 15.4561 1.19825 15.188C1.2247 14.8907 1.17868 14.7218 0.918777 14.1621C-1.80506 8.29675 1.83439 1.28234 8.18314 0.161232ZM16.0357 15.8511C20.7814 10.9468 18.063 2.78951 11.308 1.66387C7.05652 0.955453 2.87941 3.73587 1.82006 7.97937C1.32168 9.97566 1.56874 11.9565 2.56669 13.9657L2.87093 14.5782L2.87062 14.9339C2.87035 15.2699 2.85371 15.3412 2.5679 16.2303C2.03266 17.8954 2.10289 17.9657 3.76674 17.43C4.65509 17.144 4.7263 17.1274 5.0621 17.1271L5.41747 17.1268L6.02951 17.4313C9.55533 19.1853 13.3962 18.5788 16.0357 15.8511Z"/>
  </symbol>
  <symbol id="phone" viewBox="0 0 20 20">
    <path fill-rule="evenodd" clip-rule="evenodd" d="M10.8301 0.112772C10.5644 0.390084 10.5849 0.749525 10.8804 0.997089C11.0026 1.09955 11.1431 1.14763 11.9785 1.37291C15.213 2.24522 17.8382 4.90157 18.7169 8.1912C18.97 9.13919 19.1033 9.34802 19.455 9.34802C20.1384 9.34802 20.1725 8.80946 19.5945 7.1434C18.4758 3.91851 15.7957 1.331 12.5674 0.358967C12.3406 0.290715 11.9953 0.183175 11.8001 0.120043C11.3127 -0.0374934 10.9765 -0.0400343 10.8301 0.112772ZM3.28221 1.27198C2.51651 1.51411 0.736231 3.22907 0.315985 4.12937C-0.684221 6.2721 0.736781 10.1189 3.91713 13.8782C6.80339 17.2899 11.4219 19.9877 14.393 19.9974L15.1782 20L15.5904 19.8232C16.5573 19.4083 18.3745 17.6424 18.6866 16.8144C19.0556 15.8354 18.8043 15.3511 16.99 13.5445C14.749 11.313 14.2058 11.2269 12.5358 12.8379C11.6186 13.7228 11.4947 13.7371 10.5038 13.0729C9.16472 12.1755 7.72562 10.7291 6.8419 9.3927C6.25397 8.50358 6.27058 8.39572 7.1329 7.505C8.79037 5.79277 8.70231 5.25578 6.38726 2.95664C4.636 1.21744 4.20103 0.981452 3.28221 1.27198ZM4.20696 2.49369C4.50675 2.63934 6.77641 4.89266 6.91756 5.18483C7.17063 5.70865 7.03785 5.98049 6.04742 6.96617C4.95531 8.05301 4.89795 8.27532 5.44438 9.30326C6.50155 11.292 8.99288 13.7155 10.9474 14.6563C11.7648 15.0498 11.9669 14.9796 13.0546 13.924C14.4318 12.5877 14.4131 12.5851 16.2022 14.3674C18.0164 16.1748 18.0192 16.1964 16.6138 17.6025C14.865 19.3523 13.3529 19.2834 9.81912 17.2931C4.4192 14.2517 -0.220238 7.05107 1.49946 4.38065C2.27364 3.17844 3.64667 2.22154 4.20696 2.49369ZM10.772 3.7745C10.1558 4.05271 10.4583 4.60734 11.3895 4.90713C13.2895 5.5187 14.534 6.75206 15.1207 8.60498C15.3833 9.43429 15.6567 9.68694 16.0591 9.47205C16.893 9.02681 15.6932 6.35263 14.0702 5.03867C12.9709 4.14876 11.3333 3.52108 10.772 3.7745Z"/>
  </symbol>
  <symbol id="phone-fill" viewBox="0 0 20 20">
    <path fill-rule="evenodd" clip-rule="evenodd" d="M10.8301 0.944647C10.5644 1.23478 10.5849 1.61085 10.8804 1.86986C11.0026 1.97705 11.1431 2.02736 11.9785 2.26306C15.213 3.17571 17.8382 5.9549 18.7169 9.39664C18.97 10.3885 19.1033 10.607 19.455 10.607C20.1384 10.607 20.1725 10.0435 19.5945 8.3004C18.4758 4.92638 15.7957 2.21921 12.5674 1.20223C12.3406 1.13082 11.9953 1.01831 11.8001 0.952255C11.3127 0.787433 10.9765 0.784775 10.8301 0.944647ZM3.28221 2.15746C2.51651 2.41078 0.736231 4.20505 0.315985 5.14699C-0.684221 7.3888 0.736781 11.4135 3.91713 15.3467C6.80339 18.9161 11.4219 21.7387 14.393 21.7488L15.1782 21.7515L15.5904 21.5665C16.5573 21.1325 18.3745 19.2849 18.6866 18.4186C19.0556 17.3944 18.8043 16.8876 16.99 14.9975C14.749 12.6629 14.2058 12.5727 12.5358 14.2583C11.6186 15.184 11.4947 15.199 10.5038 14.5041C9.16472 13.5652 7.72562 12.0519 6.8419 10.6537C6.25397 9.72346 6.27058 9.61062 7.1329 8.67871C8.79037 6.88731 8.70231 6.32548 6.38726 3.92003C4.636 2.1004 4.20103 1.8535 3.28221 2.15746ZM4.20696 3.43566C4.50675 3.58805 6.77641 5.94557 6.91756 6.25125C7.17063 6.79929 7.03785 7.0837 6.04742 8.11496C4.95531 9.25207 4.89795 9.48466 5.44438 10.5601C6.50155 12.6408 8.99288 15.1764 10.9474 16.1608C11.7648 16.5724 11.9669 16.499 13.0546 15.3946C14.4318 13.9965 14.4131 13.9937 16.2022 15.8585C18.0164 17.7494 18.0192 17.772 16.6138 19.2432C14.865 21.0738 13.3529 21.0018 9.81912 18.9194C4.4192 15.7374 -0.220238 8.20379 1.49946 5.40988C2.27364 4.15208 3.64667 3.15093 4.20696 3.43566ZM10.772 4.77571C10.1558 5.06678 10.4583 5.64705 11.3895 5.96071C13.2895 6.60056 14.534 7.89096 15.1207 9.82956C15.3833 10.6972 15.6567 10.9615 16.0591 10.7367C16.893 10.2709 15.6932 7.47306 14.0702 6.09833C12.9709 5.16727 11.3333 4.51056 10.772 4.77571Z" fill="black"/>
    <path d="M4.20696 3.43566C4.50675 3.58805 6.77641 5.94557 6.91756 6.25125C7.17063 6.79929 7.03785 7.0837 6.04742 8.11496C4.95531 9.25207 4.89795 9.48466 5.44438 10.5601C6.50155 12.6408 8.99288 15.1764 10.9474 16.1608C11.7648 16.5724 11.9669 16.499 13.0546 15.3946C14.4318 13.9965 14.4131 13.9937 16.2022 15.8585C18.0164 17.7494 18.0192 17.772 16.6138 19.2432C14.865 21.0738 13.3529 21.0018 9.81912 18.9194C4.4192 15.7374 -0.220238 8.20379 1.49946 5.40988C2.27364 4.15208 3.64667 3.15093 4.20696 3.43566Z" fill="black"/>
  </symbol>
  <symbol id="vk" viewBox="0 0 19 12">
    <path fill-rule="evenodd" clip-rule="evenodd" d="M18.5984 1.4002C18.6984 1.0002 18.5984 0.700195 17.9984 0.700195H15.9984C15.5984 0.700195 15.2984 0.900196 15.0984 1.3002C14.4984 2.7002 13.6984 4.1002 12.6984 5.3002C12.1984 5.8002 11.9984 5.9002 11.7984 5.9002C11.6984 5.9002 11.4984 5.8002 11.4984 5.3002V1.4002C11.4984 0.900195 11.3984 0.700195 10.8984 0.700195H7.7984C7.4984 0.700195 7.2984 0.900195 7.2984 1.10019C7.2984 1.60019 7.9984 1.7002 8.0984 3.0002V5.9002C8.0984 6.5002 7.9984 6.7002 7.6984 6.7002C6.9984 6.7002 5.3984 4.3002 4.49844 1.5002C4.29844 1.0002 4.09843 0.700195 3.59843 0.700195H1.59843C0.998428 0.700195 0.898438 1.0002 0.898438 1.3002C0.898438 1.8002 1.59844 4.40019 3.99844 7.80019C5.2984 9.90019 7.4984 11.2002 9.9984 11.4002C11.1984 11.4002 11.3984 11.1002 11.3984 10.6002V8.80019C11.3984 8.20019 11.4984 8.1002 11.8984 8.1002C12.1984 8.1002 12.6984 8.2002 13.8984 9.4002C15.1984 10.7002 15.4984 11.3002 16.1984 11.3002H18.1984C18.7984 11.3002 18.9984 11.0002 18.8984 10.5002C18.4984 9.6002 17.8984 8.90019 17.1984 8.20019C16.6984 7.70019 16.0984 7.1002 15.7984 6.8002C15.4984 6.4002 15.5984 6.3002 15.7984 5.9002C15.9984 5.9002 18.3984 2.5002 18.5984 1.4002Z"/>
  </symbol>
  <symbol id="telegram" viewBox="0 0 17 14">
    <path d="M0.25531 6.5122C1.98465 5.5596 3.91506 4.7646 5.7187 3.9655C8.8218 2.6566 11.9372 1.3705 15.084 0.17307C15.6962 -0.0309499 16.7963 -0.23048 16.9042 0.67685C16.8451 1.9612 16.6021 3.238 16.4355 4.5148C16.0124 7.3225 15.5235 10.1207 15.0467 12.9192C14.8825 13.8514 13.7147 14.334 12.9675 13.7374C11.1718 12.5245 9.3624 11.3234 7.5896 10.0824C7.0089 9.4923 7.5474 8.6449 8.066 8.2236C9.545 6.7661 11.1135 5.5277 12.5151 3.9949C12.8932 3.0818 11.7761 3.8513 11.4076 4.0871C9.3829 5.4824 7.4077 6.9628 5.273 8.1891C4.18264 8.7893 2.91176 8.2763 1.82186 7.9414C0.844619 7.5368 -0.58739 7.1292 0.25521 6.5122H0.25531Z"/>
  </symbol>
  <symbol id="facebook" viewBox="0 0 10 19">
    <path d="M6.4002 17.9999V9.79987H9.1002L9.5002 6.59987H6.30019V4.59987C6.30019 3.6999 6.60019 3.0999 7.9002 3.0999H9.6002V0.199904C8.8002 0.0999043 8.0002 0.0999044 7.1002 0.0999044C5.0002 -0.100096 3.2002 1.4999 3.0002 3.5999C3.0002 3.7999 3.0002 3.99987 3.0002 4.29987V6.69987H0.200195V9.89987H3.0002V18.0999L6.4002 17.9999Z"/>
  </symbol>
  <symbol id="odnoklasniki" viewBox="0 0 10 16">
    <path d="M6.73081 11.6269L9.12201 13.9352C9.61181 14.4071 9.61181 15.1734 9.12201 15.6457C8.63261 16.1181 7.83951 16.1181 7.35071 15.6457L4.99981 13.3774L2.65091 15.6457C2.40601 15.8817 2.08501 15.9998 1.76411 15.9998C1.44371 15.9998 1.12331 15.8817 0.878313 15.6457C0.389013 15.1734 0.389013 14.4076 0.877813 13.9352L3.26921 11.6269C2.39851 11.4354 1.55881 11.1024 0.785413 10.634C0.200113 10.2778 0.0243128 9.5315 0.393113 8.966C0.760913 8.3998 1.53431 8.2293 2.12061 8.5855C3.87161 9.6488 6.12741 9.6491 7.87941 8.5855C8.46581 8.2293 9.23891 8.3998 9.60741 8.966C9.97621 9.531 9.79991 10.2778 9.21461 10.634C8.44121 11.1029 7.60151 11.4354 6.73081 11.6269Z"/>
    <path fill-rule="evenodd" clip-rule="evenodd" d="M0.711914 4.1291C0.711914 6.4053 2.63041 8.2569 4.98921 8.2569C7.34861 8.2569 9.26651 6.4053 9.26651 4.1291C9.26651 1.85207 7.34861 0 4.98921 0C2.63041 0 0.711914 1.85207 0.711914 4.1291ZM6.76021 4.1291C6.76021 3.1863 5.96581 2.41977 4.98921 2.41977C4.01341 2.41977 3.21821 3.1863 3.21821 4.1291C3.21821 5.071 4.01341 5.8381 4.98921 5.8381C5.96581 5.8381 6.76021 5.071 6.76021 4.1291Z"/>
  </symbol>
  <symbol id="whatsapp" viewBox="0 0 16 16">
    <path fill-rule="evenodd" clip-rule="evenodd" d="M3.8849 14.7379L3.5957 14.5663L0.598971 15.3525L1.39886 12.4306L1.2106 12.1311C0.418001 10.8704 -0.000609334 9.4134 6.65718e-07 7.9173C0.00173067 3.5517 3.5537 0 7.9212 0C10.0361 0.00073 12.0241 0.82536 13.519 2.32202C15.0139 3.8187 15.8367 5.808 15.8359 7.9237C15.8342 12.2896 12.2822 15.8416 7.9181 15.8416H7.9149C6.4941 15.8411 5.1006 15.4594 3.8849 14.7379ZM11.7367 9.8081C11.8781 9.8817 11.9736 9.9314 12.0143 10.0047C12.065 10.0957 12.065 10.5329 11.8962 11.0431C11.7272 11.5531 10.9173 12.0186 10.5278 12.0813C10.1786 12.1375 9.7366 12.161 9.251 11.9948C8.9566 11.8941 8.579 11.7598 8.0954 11.5348C6.195 10.6509 4.9107 8.6669 4.668 8.2919C4.651 8.2656 4.6391 8.2472 4.6324 8.2377L4.6308 8.2354C4.5235 8.0812 3.8047 7.0481 3.8047 5.9789C3.8047 4.9731 4.2634 4.4459 4.4745 4.2032C4.489 4.1866 4.5023 4.1713 4.5142 4.1573C4.7 3.9387 4.9196 3.884 5.0547 3.884C5.1899 3.884 5.3252 3.8854 5.4433 3.8918C5.4578 3.8926 5.473 3.8925 5.4887 3.8924C5.6068 3.8916 5.7541 3.8907 5.8994 4.2666C5.9553 4.4113 6.037 4.6257 6.1233 4.8519C6.2977 5.3093 6.4905 5.8148 6.5244 5.8879C6.5751 5.9972 6.6088 6.1247 6.5413 6.2705C6.5311 6.2923 6.5217 6.313 6.5128 6.3327C6.462 6.4443 6.4247 6.5264 6.3386 6.6347C6.3047 6.6773 6.2697 6.7232 6.2347 6.7692C6.1649 6.8606 6.0952 6.9521 6.0345 7.0173C5.933 7.1262 5.8274 7.2443 5.9456 7.4629C6.0639 7.6815 6.4707 8.3965 7.0733 8.9755C7.7211 9.5979 8.2842 9.861 8.5695 9.9944C8.6253 10.0204 8.6704 10.0415 8.7035 10.0593C8.9062 10.1687 9.0244 10.1504 9.1427 10.0047C9.2609 9.859 9.6494 9.3671 9.7845 9.1485C9.9197 8.93 10.0549 8.9664 10.2406 9.0392C10.4265 9.1122 11.4231 9.6403 11.6258 9.7496C11.6654 9.771 11.7024 9.7902 11.7367 9.8081Z"/>
  </symbol>
  <symbol id="viber" viewBox="0 0 30 30">
    <path d="M19.0115 13.1858C18.9468 12.6702 18.7853 12.2653 18.4984 11.9067C18.1259 11.4449 17.6499 11.1684 16.9451 11.0044C16.4858 10.8951 16.3002 10.9076 16.1341 11.0565C15.9793 11.196 15.9491 11.4756 16.0674 11.6566C16.1505 11.788 16.2465 11.8351 16.5133 11.8865C16.8686 11.9506 17.1141 12.0339 17.3375 12.1592C17.8116 12.4277 18.0324 12.848 18.056 13.5284C18.0671 13.8479 18.0952 13.9461 18.209 14.0594C18.4198 14.2665 18.7949 14.2262 18.954 13.9784C19.0124 13.8849 19.0213 13.8443 19.0275 13.6274C19.0316 13.4931 19.0257 13.2932 19.0115 13.1858Z"/>
    <path d="M20.8685 13.7674C20.7749 12.1877 20.1451 10.9167 19.0179 10.0225C18.3828 9.52001 17.6152 9.1745 16.7737 9.00647C16.4655 8.94638 15.898 8.89767 15.8006 8.92553C15.7087 8.95133 15.5788 9.04892 15.5209 9.13718C15.4596 9.23289 15.4458 9.44657 15.4981 9.57018C15.5824 9.77681 15.7393 9.84981 16.1786 9.88752C16.856 9.94565 17.5546 10.1791 18.0824 10.5247C18.685 10.9182 19.1641 11.4565 19.474 12.0889C19.7417 12.6324 19.9064 13.4155 19.9018 14.1168C19.9003 14.3704 19.9402 14.5136 20.0442 14.6184C20.2012 14.7794 20.4299 14.8146 20.6318 14.7077C20.8556 14.5922 20.9079 14.3896 20.8685 13.7674Z"/>
    <path d="M22.9236 19.8507C22.8921 19.7604 22.8186 19.6211 22.7661 19.5411C22.4353 19.0511 20.6581 17.6866 19.7707 17.2404C19.2641 16.985 18.8887 16.8999 18.6104 16.9798C18.3111 17.0624 18.1536 17.1991 17.6522 17.8104C17.4501 18.0555 17.2427 18.285 17.1876 18.3211C17.0511 18.414 16.7833 18.4888 16.5943 18.4888C16.1559 18.4862 15.3604 18.2076 14.7488 17.8413C14.2736 17.5577 13.6646 17.0495 13.1973 16.5465C12.646 15.9559 12.2706 15.4348 11.974 14.8467C11.5907 14.091 11.4936 13.6293 11.6537 13.2914C11.6931 13.2063 11.7456 13.116 11.7692 13.0876C11.7928 13.0618 12.0396 12.8632 12.3126 12.6465C12.8482 12.2287 12.9348 12.1333 13.0345 11.847C13.1605 11.4832 13.1264 11.1118 12.9322 10.7378C12.7825 10.4541 12.3914 9.83508 12.1079 9.43529C11.7325 8.90912 10.7979 7.78452 10.6115 7.63229C10.2755 7.36407 9.84498 7.31761 9.36978 7.4982C8.86841 7.68908 7.92857 8.43192 7.52691 8.95038C7.16464 9.41981 7.02555 9.75254 7.00453 10.191C6.98616 10.5521 7.01765 10.7017 7.21192 11.1634C8.7319 14.7848 11 17.6763 14.1161 19.9719C15.7437 21.1713 17.4317 22.0844 19.1827 22.7086C20.2039 23.0723 20.6475 23.0903 21.1699 22.7912C21.3904 22.6622 21.9365 22.1128 22.241 21.713C22.745 21.0475 22.9314 20.7406 22.9839 20.4955C23.0207 20.3279 22.9918 20.0364 22.9236 19.8507Z"/>
    <path d="M22.7591 14.13C22.7254 13.2364 22.5721 12.5035 22.2523 11.6863C21.9366 10.8824 21.6171 10.3579 21.0137 9.64844C20.4432 8.98323 20.0001 8.60341 19.2973 8.18062C18.3168 7.59155 17.1236 7.20173 15.7864 7.03779C15.3303 6.98049 15.2272 6.98458 15.0872 7.07617C14.8161 7.24966 14.8197 7.6824 15.0917 7.85329C15.1817 7.90765 15.2616 7.92746 15.6264 7.9743C16.1864 8.04826 16.5465 8.11797 16.9737 8.23233C18.6491 8.68165 19.9375 9.60008 20.7989 10.9635C21.5197 12.0998 21.8189 13.2363 21.7765 14.6878C21.7617 15.1784 21.7724 15.2648 21.8489 15.3827C21.9953 15.6024 22.3814 15.6459 22.5795 15.4636C22.7028 15.3524 22.726 15.269 22.7503 14.849C22.7619 14.6299 22.7644 14.3065 22.7591 14.13Z"/>
  </symbol>
  <symbol id="video" viewBox="0 0 34 21">
    <path fill-rule="evenodd" clip-rule="evenodd" d="M2.88216 0.0551732C1.80246 0.214777 1.08149 0.693325 0.381836 1.71481L0 2.27228V10.5038V18.7353L0.381836 19.2928C0.988125 20.1778 1.5203 20.5866 2.42668 20.8634C2.95402 21.0244 20.1372 21.0535 20.7852 20.8945C22.4869 20.4769 23.2123 19.4318 23.2998 17.2717C23.3893 15.0613 23.1829 15.0673 28.3707 17.1226C32.8377 18.8923 32.854 18.8967 33.6563 18.5253L34 18.3662V10.5038V2.64136L33.6563 2.48228C32.854 2.1109 32.8377 2.11524 28.3707 3.885C23.1829 5.94027 23.3893 5.94631 23.2998 3.73591C23.2138 1.6133 22.5701 0.643978 20.9093 0.136716C20.5234 0.0189025 3.64418 -0.0575152 2.88216 0.0551732ZM20.4649 2.16951C21.3535 2.58176 21.3132 2.18502 21.3132 10.5038C21.3132 18.8226 21.3535 18.4258 20.4649 18.8381L20.0879 19.0129H11.6496H3.21134L2.82472 18.8158C2.50717 18.6539 2.40125 18.5541 2.23171 18.2573L2.02539 17.8959V10.5038V3.11169L2.2195 2.76508C2.43239 2.38477 2.7121 2.17766 3.18425 2.05064C3.41786 1.98783 5.36821 1.97226 11.7871 1.98205L20.0879 1.99466L20.4649 2.16951ZM31.6253 5.12549C31.9814 5.31007 31.9746 5.20507 31.9746 10.5038C31.9746 17.0924 32.4663 16.6132 27.6582 14.7106C22.9562 12.8499 23.3086 13.1908 23.3086 10.5038C23.3086 7.81819 22.9619 8.15501 27.625 6.31092C31.2441 4.87962 31.1849 4.89723 31.6253 5.12549Z"/>
  </symbol>
  <symbol id="video-fill" viewBox="0 0 34 21">
    <path fill-rule="evenodd" clip-rule="evenodd" d="M2.88216 0.0551732C1.80246 0.214777 1.08149 0.693325 0.381836 1.71481L0 2.27228V10.5038V18.7353L0.381836 19.2928C0.988125 20.1778 1.5203 20.5866 2.42668 20.8634C2.95402 21.0244 20.1372 21.0535 20.7852 20.8945C22.4869 20.4769 23.2123 19.4318 23.2998 17.2717C23.3893 15.0613 23.1829 15.0673 28.3707 17.1226C32.8377 18.8923 32.854 18.8967 33.6563 18.5253L34 18.3662V10.5038V2.64136L33.6563 2.48228C32.854 2.1109 32.8377 2.11524 28.3707 3.885C23.1829 5.94027 23.3893 5.94631 23.2998 3.73591C23.2138 1.6133 22.5701 0.643978 20.9093 0.136716C20.5234 0.0189025 3.64418 -0.0575152 2.88216 0.0551732ZM20.4649 2.16951C21.3535 2.58176 21.3132 2.18502 21.3132 10.5038C21.3132 18.8226 21.3535 18.4258 20.4649 18.8381L20.0879 19.0129H11.6496H3.21134L2.82472 18.8158C2.50717 18.6539 2.40125 18.5541 2.23171 18.2573L2.02539 17.8959V10.5038V3.11169L2.2195 2.76508C2.43239 2.38477 2.7121 2.17766 3.18425 2.05064C3.41786 1.98783 5.36821 1.97226 11.7871 1.98205L20.0879 1.99466L20.4649 2.16951ZM31.6253 5.12549C31.9814 5.31007 31.9746 5.20507 31.9746 10.5038C31.9746 17.0924 32.4663 16.6132 27.6582 14.7106C22.9562 12.8499 23.3086 13.1908 23.3086 10.5038C23.3086 7.81819 22.9619 8.15501 27.625 6.31092C31.2441 4.87962 31.1849 4.89723 31.6253 5.12549Z"/>
    <path d="M20.4649 2.16951C21.3535 2.58176 21.3132 2.18502 21.3132 10.5038C21.3132 18.8226 21.3535 18.4258 20.4649 18.8381L20.0879 19.0129H11.6496H3.21134L2.82472 18.8158C2.50717 18.6539 2.40125 18.5541 2.23171 18.2573L2.02539 17.8959V10.5038V3.11169L2.2195 2.76508C2.43239 2.38477 2.7121 2.17766 3.18425 2.05064C3.41786 1.98783 5.36821 1.97226 11.7871 1.98205L20.0879 1.99466L20.4649 2.16951Z"/>
  </symbol>
  <symbol id="heart-fill" viewBox="0 0 24 24">
    <path d="M19.9999 9.62787C19.9871 10.8067 19.5159 11.9342 18.6865 12.7711C18.0976 13.3907 17.4786 13.9649 16.8747 14.5694L15.984 15.4459L13.7948 17.6522L12.6927 18.7251C12.5074 18.9016 12.2615 19 12.0057 19C11.75 19 11.5041 18.9016 11.3188 18.7251L10.3828 17.8033L8.35967 15.7934L7.00088 14.4334L5.37033 12.9222C4.7316 12.2916 4.29082 11.488 4.10213 10.6101C4.0114 10.2038 3.98088 9.78624 4.01154 9.37097C4.07713 8.26602 4.54432 7.22326 5.32504 6.43931C5.98292 5.75015 6.83691 5.28054 7.77086 5.09436C8.51487 4.94495 9.28398 4.97826 10.0123 5.19144C10.7407 5.40462 11.4065 5.79131 11.9529 6.31841C11.9529 6.31841 11.9529 6.31841 12.0435 6.31841C12.7014 5.68487 13.531 5.25916 14.4289 5.09436C14.7912 5.0192 15.1614 4.98875 15.531 5.00369C16.5287 5.04834 17.4859 5.41122 18.2628 6.03928C19.0397 6.66735 19.5955 7.52767 19.849 8.4945C19.951 8.86356 20.0018 9.24493 19.9999 9.62787Z"/>
  </symbol>
  <symbol id="main-angle-left" viewBox="0 0 8 12">
    <path d="M3.1898 5.98719C2.49069 6.68631 1.35721 6.68631 0.658095 5.9872L6.03797 0.607319C6.38753 0.257763 6.95427 0.257763 7.30383 0.607318C7.65338 0.956874 7.65338 1.52362 7.30383 1.87317L3.1898 5.98719Z"/>
    <path d="M0.658095 5.9872C1.35721 5.28808 2.49069 5.28808 3.1898 5.9872L7.30382 10.1012C7.65338 10.4508 7.65338 11.0175 7.30383 11.3671C6.95427 11.7166 6.38753 11.7166 6.03797 11.3671L0.658095 5.9872Z"/>
  </symbol>
  <symbol id="main-angle-right" viewBox="0 0 8 12">
    <path d="M4.8102 6.0128C5.50931 5.31369 6.64279 5.31369 7.34191 6.0128L1.96203 11.3927C1.61247 11.7422 1.04573 11.7422 0.696175 11.3927C0.346619 11.0431 0.346619 10.4764 0.696175 10.1268L4.8102 6.0128Z"/>
    <path d="M7.34191 6.0128C6.64279 6.71192 5.50931 6.71192 4.8102 6.0128L0.696175 1.89878C0.346619 1.54922 0.346619 0.982483 0.696175 0.632927C1.04573 0.283371 1.61247 0.283371 1.96203 0.632927L7.34191 6.0128Z"/>
  </symbol>
  <symbol id="arrow-left-long" viewBox="0 0 35 8">
    <path d="M34.3536 4.35355C34.5488 4.15829 34.5488 3.84171 34.3536 3.64645L31.1716 0.464466C30.9763 0.269204 30.6597 0.269204 30.4645 0.464466C30.2692 0.659728 30.2692 0.976311 30.4645 1.17157L33.2929 4L30.4645 6.82843C30.2692 7.02369 30.2692 7.34027 30.4645 7.53553C30.6597 7.7308 30.9763 7.7308 31.1716 7.53553L34.3536 4.35355ZM0 4.5H34V3.5H0V4.5Z"/>
  </symbol>
  <symbol id="map-marker" viewBox="0 0 13 17">
    <path d="M6.07143 0C2.72364 0 0 2.68109 0 5.97656C0 7.09 0.31332 8.1766 0.906296 9.1193L5.72583 16.7646C5.81815 16.911 5.9808 17 6.15572 17H6.15973C6.33618 16.9986 6.49916 16.9069 6.58979 16.7579L11.2865 9.03855C11.8467 8.11577 12.1429 7.05696 12.1429 5.97656C12.1429 2.68109 9.41921 0 6.07143 0ZM10.4181 8.52716L6.14806 15.5452L1.76635 8.5945C1.27277 7.80984 1.00516 6.90459 1.00516 5.97656C1.00516 3.23033 3.28161 0.989453 6.07143 0.989453C8.86125 0.989453 11.1343 3.23033 11.1343 5.97656C11.1343 6.87706 10.8844 7.75917 10.4181 8.52716Z"/>
    <path d="M6.07143 2.98828C4.39754 2.98828 3.03571 4.32882 3.03571 5.97656C3.03571 7.61378 4.37538 8.96484 6.07143 8.96484C7.78839 8.96484 9.10714 7.59578 9.10714 5.97656C9.10714 4.32882 7.74532 2.98828 6.07143 2.98828ZM6.07143 7.97539C4.94967 7.97539 4.04087 7.07781 4.04087 5.97656C4.04087 4.87807 4.9555 3.97773 6.07143 3.97773C7.18736 3.97773 8.09861 4.87807 8.09861 5.97656C8.09861 7.06174 7.21097 7.97539 6.07143 7.97539Z"/>
    <path fill-rule="evenodd" clip-rule="evenodd" d="M10.4181 8.52716L6.14806 15.5452L1.76635 8.5945C1.27277 7.80984 1.00516 6.90459 1.00516 5.97656C1.00516 3.23033 3.28161 0.989453 6.07143 0.989453C8.86125 0.989453 11.1343 3.23033 11.1343 5.97656C11.1343 6.87706 10.8844 7.75917 10.4181 8.52716ZM3.03571 5.97656C3.03571 4.32882 4.39754 2.98828 6.07143 2.98828C7.74532 2.98828 9.10714 4.32882 9.10714 5.97656C9.10714 7.59578 7.78839 8.96484 6.07143 8.96484C4.37538 8.96484 3.03571 7.61378 3.03571 5.97656Z"/>
  </symbol>
  <symbol id="agree" viewBox="0 0 12 10">
    <path d="M9.15105 0.6115L11.4388 2.89924L5.03312 9.30492L2.74537 7.01718L9.15105 0.6115Z"/>
    <path d="M7.32086 7.01718L5.03312 9.30492L8.20244e-05 4.27189L2.28783 1.98414L7.32086 7.01718Z"/>
  </symbol>
  <symbol id="star-2" viewBox="0 0 10 9">
    <path d="M4.00967 3.33517L5.4039 0.314331L6.56576 3.33517H9.5866L7.26288 5.65889L8.19236 8.9121L5.17153 7.51786L2.38306 8.9121L3.31255 5.65889L0.988831 3.33517H4.00967Z"/>
  </symbol>
  <symbol id="couple" viewBox="0 0 88 67">
    <path fill-rule="evenodd" clip-rule="evenodd" d="M18.7305 0.209147C16.0423 0.727851 13.8983 1.62017 11.5636 3.19217C8.84711 5.02117 6.70689 7.54101 5.19158 10.6946C3.84392 13.4992 3.22349 16.3888 3.22349 19.8605C3.22349 23.4586 2.14237 28.3127 0.484503 32.158C-0.221739 33.7962 -0.156566 35.1114 0.684493 36.1972C1.16564 36.818 4.29136 38.9022 6.21302 39.8836L7.74089 40.6637L6.47096 41.3018C4.63408 42.2248 2.95867 43.9653 2.05261 45.8919C1.67327 46.6983 1.27862 47.7747 1.17544 48.2834C1.05748 48.8662 0.988003 51.9545 0.988003 56.6256C0.988003 64.7075 0.99471 64.7699 1.98589 65.8431C2.24091 66.1193 2.7592 66.4908 3.13751 66.6685C3.77497 66.9681 4.40159 66.9922 11.68 66.9957L19.5348 66.9995L19.8911 66.5395C20.364 65.9293 20.3413 65.3329 19.8254 64.8093L19.4034 64.3807H15.2685H11.1337V57.4972V50.6135L10.6806 50.2518C10.1158 49.8006 9.5721 49.7912 9.04624 50.2235L8.64024 50.5571L8.59158 57.4689L8.54291 64.3807H6.33976C4.42377 64.3807 4.09946 64.3392 3.85201 64.0614C3.59682 63.7751 3.56741 62.9929 3.56741 56.4853C3.56741 49.6765 3.58908 49.1571 3.91787 48.0764C4.57028 45.9319 6.28869 44.1216 8.51317 43.235C9.3642 42.8958 9.90278 42.8319 12.4241 42.7703L15.3481 42.6987L15.6542 43.9047C16.4194 46.9209 18.9028 48.8784 21.9672 48.8807C25.0018 48.883 27.5175 46.9103 28.2719 43.9376L28.5863 42.6987L31.5103 42.7703C34.0316 42.8319 34.5702 42.8958 35.4212 43.235C37.6457 44.1216 39.3641 45.9319 40.0165 48.0764C40.3455 49.1574 40.367 49.6763 40.367 56.5155C40.367 63.3536 40.3475 63.8206 40.0524 64.0918C39.7948 64.3285 39.3457 64.3807 37.5649 64.3807H35.3914L35.3428 57.4689L35.2941 50.5571L34.8881 50.2235C34.3623 49.7912 33.8185 49.8006 33.2538 50.2518L32.8007 50.6135V57.4972V64.3807H28.6659H24.5309L24.1089 64.8093C23.5709 65.3554 23.5709 66.0248 24.1089 66.5709L24.5309 66.9995H32.2826C40.7313 66.9995 40.7446 66.9981 41.8073 65.9864C42.0793 65.7275 42.4453 65.2013 42.6203 64.8172C42.9147 64.1717 42.939 63.5495 42.94 56.6115C42.9414 48.2054 42.8982 47.7944 41.7844 45.6304C40.8916 43.8958 39.0924 42.0927 37.4488 41.2856L36.1887 40.6666L37.6149 39.9386C40.8892 38.2671 43.1615 36.5966 43.6519 35.5004C44.105 34.4872 44.0548 33.6817 43.4418 32.1299C41.507 27.2329 40.96 24.7396 40.7109 19.684C40.4913 15.2324 40.043 13.2345 38.6147 10.3454C36.2408 5.54354 31.7916 1.90144 26.6306 0.535279C24.5574 -0.0134543 20.7083 -0.17233 18.7305 0.209147ZM63.4956 0.300807C61.6029 0.718947 60.821 1.00772 58.9371 1.98419C55.3373 3.8502 52.3081 7.27529 50.7724 11.2161C50.0119 13.1678 49.6576 15.2798 49.6551 17.8774C49.6532 19.7869 49.5957 20.2993 49.3127 20.9327C48.905 21.8449 48.8518 23.6123 49.2062 24.4735C49.544 25.2943 50.6196 26.4542 51.4342 26.876C51.8121 27.0719 52.5787 27.2741 53.1376 27.3256C53.6966 27.3771 54.1766 27.5058 54.2041 27.6118C54.2318 27.7177 54.3841 28.404 54.5429 29.1371C55.1236 31.8185 56.8009 34.4354 59.1347 36.3019L60.4863 37.3828V38.7479V40.1128L57.8639 40.1158C54.7525 40.1195 53.3512 40.3758 51.5444 41.2714C49.8824 42.0955 47.9267 44.0523 47.1186 45.6997C46.0511 47.8761 46.0262 48.1424 46.0795 56.8395L46.1276 64.7002L46.6435 65.4436C46.9272 65.8525 47.5004 66.37 47.9172 66.5933L48.6752 66.9995H66.8814C86.8085 66.9995 85.7399 67.0537 86.8609 65.9864C87.8372 65.0569 87.9921 64.4142 87.9962 61.2739C88 58.4836 87.9919 58.4206 87.5778 58.0004C87.3457 57.7647 86.9553 57.5717 86.7103 57.5717C86.4653 57.5717 86.0749 57.7647 85.8428 58.0004C85.4325 58.4167 85.4206 58.5018 85.4206 61.0167C85.4206 64.526 85.5398 64.3807 82.6594 64.3807H80.4337V57.845C80.4337 53.7456 80.3672 51.1313 80.2551 50.8321C79.896 49.8732 79.0842 49.6313 78.3074 50.2518L77.8543 50.6135V57.4972V64.3807H67.0208H56.1873V57.5639V50.7469L55.7652 50.3184C55.2273 49.7722 54.568 49.7722 54.0301 50.3184L53.6079 50.7469V57.5639V64.3807H51.3991C49.4585 64.3807 49.1548 64.3409 48.8988 64.0537C48.6324 63.755 48.6116 63.0657 48.6572 56.0663L48.707 48.4058L49.2611 47.2183C50.2743 45.0462 52.3015 43.4182 54.6051 42.9263C55.1064 42.8193 56.6258 42.7317 57.9819 42.7317H60.4473L60.562 43.5081C60.7293 44.6412 61.5886 46.2587 62.4529 47.0676C65.4868 49.9068 70.1163 49.4059 72.3593 45.9954C72.9779 45.0551 73.1333 44.6593 73.4602 43.1922L73.5717 42.6924L76.5297 42.7708C79.0433 42.8375 79.6333 42.9066 80.4542 43.2308C82.5396 44.0547 84.1099 45.6571 84.9307 47.7988C85.2094 48.5261 85.3222 49.3125 85.4018 51.084C85.4995 53.2566 85.5339 53.4354 85.9126 53.7465C86.4647 54.2001 87.0718 54.1653 87.5778 53.6513C87.9766 53.2467 88 53.1127 88 51.235C88 47.028 86.559 44.0353 83.5277 41.9465C81.4977 40.5479 80.2876 40.2331 76.6076 40.146L73.5553 40.0739L73.5598 38.6529L73.5643 37.2321L74.4297 36.6359C75.5296 35.8782 77.2518 33.986 78.0131 32.6986C78.6914 31.5514 79.4892 29.3706 79.6644 28.1841L79.7849 27.3679H80.5085C83.5643 27.3679 85.8751 24.1149 84.7874 21.3445C84.6029 20.8744 84.4717 19.7333 84.3861 17.8528C84.3041 16.0477 84.1345 14.5343 83.907 13.5753C82.3793 7.13614 77.5608 2.16926 71.178 0.454793C69.2004 -0.0763061 65.5354 -0.149807 63.4956 0.300807ZM26.3157 3.17192C29.2518 4.05429 31.5235 5.47248 33.6897 7.77548C36.7265 11.0038 37.8591 14.0851 38.1316 19.8605C38.3631 24.7672 38.8399 27.1489 40.4832 31.6037C41.0061 33.0214 41.393 34.2893 41.3432 34.4212C41.1931 34.8183 38.3593 36.6228 36.0679 37.7805C33.276 39.1912 30.6532 40.1128 29.4308 40.1128H28.5017L28.502 38.6725L28.5024 37.2321L29.2685 36.7408C30.5129 35.9424 32.4932 33.6682 33.2791 32.1345C34.6967 29.3679 34.7428 29.0448 34.8149 21.3445C34.8768 14.7327 34.8685 14.519 34.5273 13.9638C34.3342 13.6494 33.9778 13.3154 33.7351 13.2218C32.7825 12.8541 32.3729 13.0055 30.8832 14.2754C29.551 15.4113 27.3905 16.7179 26.845 16.7179C26.6724 16.7179 26.6101 16.4381 26.6101 15.6617C26.6101 14.3392 26.2657 13.6303 25.4566 13.2869C24.6556 12.9472 24.2501 13.0676 22.7671 14.0855C21.2606 15.1196 20.8128 15.3528 19.3878 15.846C18.4131 16.1832 17.7923 16.2443 14.5388 16.3234C8.89079 16.4606 9.15578 16.1318 9.15699 22.996C9.15767 27.672 9.18209 28.0643 9.5525 29.3657C10.1545 31.4813 11.1734 33.3068 12.629 34.8778C13.3281 35.6322 14.2446 36.4706 14.6659 36.7408L15.432 37.2321L15.4323 38.6725L15.4327 40.1128H14.5036C12.6186 40.1128 7.73487 38.011 4.33693 35.7371C3.34627 35.0742 2.53565 34.4193 2.53565 34.2819C2.53565 34.1445 2.87854 33.1415 3.29778 32.0529C4.95118 27.7598 5.8029 23.6736 5.8029 20.0351C5.8029 14.8439 7.20369 11.0394 10.3592 7.66148C12.3078 5.57514 14.6597 4.08432 17.2732 3.27842C19.1943 2.68587 19.9979 2.58984 22.4831 2.65601C24.3579 2.70577 25.0951 2.80511 26.3157 3.17192ZM70.718 3.01758C72.1628 3.41844 74.426 4.52272 75.678 5.43756C79.2004 8.01188 81.4664 12.2006 81.7566 16.6743L81.8614 18.2892H80.908C79.9096 18.2892 79.7459 18.1599 79.7459 17.3698C79.7459 16.6188 79.0247 15.4666 78.2371 14.9595C77.025 14.1791 76.3904 14.1665 73.5901 14.8675C68.6173 16.1123 65.2178 16.1069 60.2743 14.846C57.9162 14.2445 57.6841 14.215 56.9242 14.4214C55.3841 14.8397 54.3871 15.9469 54.1884 17.4599L54.0794 18.2892H53.1558H52.2322V17.0598C52.2322 13.3313 53.9064 9.58003 56.8411 6.73336C58.9151 4.72157 61.3331 3.41949 64.0975 2.82571C65.548 2.51407 69.2948 2.62266 70.718 3.01758ZM24.0307 17.2159C24.0307 18.153 24.6379 19.0119 25.5213 19.3245C26.1542 19.5484 26.3475 19.5409 27.403 19.2507C28.784 18.8713 30.1203 18.189 31.3965 17.2122L32.3135 16.51L32.2444 22.2445C32.1791 27.6582 32.1533 28.0425 31.7847 29.1137C31.1776 30.8783 30.4385 32.0632 29.1164 33.3912C27.7043 34.8097 26.3145 35.616 24.4441 36.1017C22.014 36.7326 19.3685 36.4032 17.0983 35.1868C15.643 34.4069 13.6133 32.3192 12.8904 30.8582C11.8796 28.8155 11.7842 28.2211 11.6962 23.4206L11.6158 19.0368L14.9429 18.9488C18.8482 18.8453 20.2077 18.5513 22.3971 17.3365C23.1537 16.9168 23.8309 16.5666 23.9017 16.5584C23.9726 16.5501 24.0307 16.8459 24.0307 17.2159ZM59.3454 17.3238C64.5408 18.7496 68.8754 18.7737 74.2272 17.4063C76.1867 16.9056 76.3596 16.8876 76.746 17.1446C76.9742 17.2965 77.2098 17.6183 77.2697 17.8599C77.3293 18.1014 77.3402 20.3984 77.2937 22.9644C77.2287 26.5647 77.1445 27.8653 76.9251 28.6612C75.4063 34.1716 69.8864 37.4888 64.5439 36.1017C62.6014 35.5971 61.2822 34.8221 59.7926 33.3098C58.3031 31.7975 57.5398 30.4581 57.0428 28.4859C56.7453 27.3045 56.7032 26.5461 56.7032 22.3641C56.7032 17.8236 56.72 17.5738 57.0471 17.2417C57.4772 16.805 57.4526 16.8042 59.3454 17.3238ZM54.1238 22.8512V24.7944L53.3125 24.7015C52.2035 24.5746 51.5444 23.848 51.5444 22.7519C51.5444 22.1255 51.6427 21.8826 52.0735 21.4453C52.5048 21.0074 52.7431 20.9081 53.3632 20.9081H54.1238V22.8512ZM81.7903 21.355C83.1452 22.5125 82.2804 24.7462 80.4767 24.7483L79.9179 24.749V22.8285V20.9081H80.5925C81.0655 20.9081 81.4235 21.0416 81.7903 21.355ZM20.4625 38.9267C21.9011 39.1268 23.6885 39.0129 25.4494 38.6093L25.9223 38.5009V40.6396C25.9223 43.1212 25.746 43.8667 24.9304 44.8341C23.3914 46.6596 20.8343 46.7923 19.1986 45.1318C18.2255 44.1436 18.1101 43.7321 18.0418 41.0059L17.9789 38.4944L18.4683 38.606C18.7376 38.6674 19.6351 38.8118 20.4625 38.9267ZM64.5274 38.8005C66.3436 39.191 67.9712 39.1397 70.4341 38.6138L71.01 38.4909L70.9462 40.9168C70.8774 43.5233 70.7362 44.0318 69.7956 45.0605C67.9666 47.0608 64.6139 46.537 63.4846 44.0743C63.1115 43.2603 63.069 42.9326 63.0675 40.8548C63.0664 39.5824 63.1239 38.5415 63.1947 38.5415C63.2657 38.5415 63.8655 38.658 64.5274 38.8005Z"/>
  </symbol>
  <symbol id="man" viewBox="0 0 43 67">
    <path fill-rule="evenodd" clip-rule="evenodd" d="M17.874 0.296099C15.9332 0.714269 15.1315 1.00306 13.1999 1.9796C9.50875 3.84574 6.40265 7.27107 4.82809 11.2122C4.04821 13.164 3.68499 15.2762 3.68234 17.8739C3.6804 19.7835 3.62151 20.296 3.33129 20.9294C2.91323 21.8417 2.85875 23.6092 3.22215 24.4705C3.56844 25.2913 4.67134 26.4514 5.50658 26.8732C5.89414 27.0691 6.68019 27.2713 7.25324 27.3228C7.82646 27.3743 8.31858 27.503 8.34679 27.609C8.37518 27.715 8.53139 28.4013 8.69414 29.1345C9.28958 31.816 11.0094 34.4331 13.4025 36.2997L14.7884 37.3807V38.7459V40.1109L12.0995 40.1139C8.90908 40.1176 7.47222 40.3739 5.6196 41.2696C3.91544 42.0937 1.91013 44.0507 1.08159 45.6982C-0.0130255 47.8748 -0.0385929 48.141 0.0160672 56.8388L0.0654384 64.7L0.594406 65.4435C0.885339 65.8524 1.47302 66.3699 1.90043 66.5932L2.67766 66.9995H21.3456C41.7783 66.9995 40.6826 67.0537 41.832 65.9863C42.833 65.0568 42.9919 64.414 42.9961 61.2735C43 58.483 42.9917 58.42 42.5671 57.9997C42.3291 57.764 41.9288 57.5711 41.6776 57.5711C41.4263 57.5711 41.0261 57.764 40.788 57.9997C40.3673 58.4161 40.3552 58.5012 40.3552 61.0163C40.3552 64.5258 40.4774 64.3805 37.5239 64.3805H35.2418V57.8443C35.2418 53.7447 35.1736 51.1302 35.0586 50.8309C34.6904 49.872 33.858 49.63 33.0616 50.2506L32.597 50.6123V57.4965V64.3805H21.4886H10.3803V57.5632V50.7457L9.94744 50.3173C9.39591 49.7709 8.71988 49.7709 8.16835 50.3173L7.73547 50.7457V57.5632V64.3805H5.47061C3.48081 64.3805 3.16942 64.3407 2.90688 64.0535C2.63375 63.7548 2.61242 63.0654 2.65914 56.0655L2.71028 48.4045L3.27839 47.2169C4.31728 45.0447 6.39595 43.4165 8.75797 42.9246C9.27195 42.8176 10.8299 42.73 12.2204 42.73H14.7484L14.866 43.5064C15.0375 44.6396 15.9186 46.2573 16.8048 47.0662C19.9157 49.9056 24.6626 49.4046 26.9626 45.994C27.5968 45.0536 27.7562 44.6577 28.0914 43.1906L28.2057 42.6907L31.2388 42.7691C33.8161 42.8358 34.421 42.9049 35.2628 43.2292C37.4011 44.0531 39.0112 45.6556 39.8528 47.7974C40.1386 48.5248 40.2543 49.3112 40.3359 51.0829C40.4361 53.2556 40.4714 53.4344 40.8596 53.7456C41.4258 54.1992 42.0482 54.1644 42.5671 53.6504C42.976 53.2457 43 53.1118 43 51.2339C43 47.0266 41.5224 44.0337 38.4142 41.9448C36.3327 40.546 35.0919 40.2312 31.3186 40.1441L28.1889 40.072L28.1935 38.6509L28.1981 37.23L29.0855 36.6338C30.2133 35.876 31.9791 33.9837 32.7597 32.6962C33.4553 31.5489 34.2733 29.3679 34.4529 28.1813L34.5765 27.3651H35.3185C38.4518 27.3651 40.8212 24.1119 39.7059 21.3413C39.5167 20.8711 39.3822 19.7299 39.2944 17.8493C39.2103 16.0441 39.0364 14.5306 38.8032 13.5716C37.2367 7.13191 32.296 2.16468 25.7512 0.450097C23.7235 -0.0810401 19.9656 -0.154547 17.874 0.296099ZM25.2796 3.01307C26.761 3.41395 29.0816 4.51831 30.3654 5.43322C33.9772 8.00771 36.3006 12.1967 36.5983 16.6707L36.7056 18.2858H35.7281C34.7044 18.2858 34.5365 18.1564 34.5365 17.3663C34.5365 16.6152 33.797 15.463 32.9895 14.9558C31.7466 14.1753 31.0959 14.1628 28.2245 14.8638C23.1256 16.1087 19.6399 16.1033 14.571 14.8423C12.1531 14.2408 11.915 14.2113 11.1359 14.4177C9.55671 14.836 8.53439 15.9433 8.33074 17.4564L8.21895 18.2858H7.27192H6.32489V17.0562C6.32489 13.3275 8.04157 9.57598 11.0507 6.72911C13.1773 4.71718 15.6566 3.415 18.4912 2.82118C19.9784 2.50952 23.8203 2.61812 25.2796 3.01307ZM13.6185 17.3202C18.9457 18.7462 23.3903 18.7703 28.8778 17.4028C30.887 16.9021 31.0644 16.8841 31.4606 17.1411C31.6945 17.293 31.9361 17.6148 31.9975 17.8564C32.0587 18.0979 32.0698 20.3951 32.0222 22.9613C31.9555 26.5619 31.8691 27.8625 31.6441 28.6585C30.0868 34.1693 24.4269 37.4867 18.9489 36.0995C16.9571 35.5949 15.6044 34.8198 14.0771 33.3074C12.5498 31.795 11.7671 30.4555 11.2575 28.4832C10.9525 27.3017 10.9093 26.5432 10.9093 22.361C10.9093 17.8201 10.9266 17.5703 11.2619 17.2382C11.7029 16.8015 11.6777 16.8006 13.6185 17.3202ZM8.26444 22.8481V24.7914L7.43256 24.6985C6.29545 24.5716 5.6196 23.8449 5.6196 22.7488C5.6196 22.1223 5.72046 21.8794 6.16215 21.4421C6.60436 21.0042 6.84874 20.9048 7.48456 20.9048H8.26444V22.8481ZM36.6328 21.3518C38.0221 22.5094 37.1353 24.7432 35.2859 24.7453L34.7128 24.746V22.8254V20.9048H35.4045C35.8896 20.9048 36.2567 21.0384 36.6328 21.3518ZM18.932 38.7985C20.7943 39.1891 22.4632 39.1377 24.9885 38.6118L25.579 38.4889L25.5136 40.915C25.443 43.5216 25.2983 44.0302 24.3338 45.059C22.4584 47.0594 19.0206 46.5356 17.8627 44.0726C17.4801 43.2587 17.4366 42.9309 17.435 40.853C17.4339 39.5805 17.4928 38.5395 17.5655 38.5395C17.6383 38.5395 18.2533 38.656 18.932 38.7985Z"/>
  </symbol>
  <symbol id="child" viewBox="0 0 54 48">
    <path fill-rule="evenodd" clip-rule="evenodd" d="M25.3046 0.0462958C15.5929 0.834586 7.54793 7.87078 5.61967 17.263C5.3837 18.4121 5.14869 20.7456 5.14425 21.9835L5.14267 22.4158L4.43002 22.6309C2.99343 23.0643 1.57384 24.1848 0.812941 25.4855C0.0867798 26.7273 -0.182865 28.4148 0.126266 29.7848C0.658587 32.1447 2.31224 33.8953 4.63949 34.5625C5.28763 34.7482 5.27211 34.7231 5.41295 35.8155C5.77233 38.6027 7.2274 41.4327 9.24466 43.2681C11.5452 45.3611 14.7111 46.7156 18.9393 47.4157C23.6441 48.1948 30.3502 48.1948 35.0551 47.4157C40.9935 46.4324 44.8735 44.1571 47.0392 40.3879C47.7602 39.1331 48.3972 37.2446 48.5814 35.8155C48.7223 34.7231 48.7067 34.7482 49.3549 34.5625C51.6821 33.8953 53.3358 32.1447 53.8681 29.7848C54.087 28.8151 54.0331 27.7761 53.7092 26.7165C53.1302 24.8228 51.4987 23.2146 49.5643 22.6309L48.8517 22.4158L48.8501 21.9835C48.8457 20.7456 48.6107 18.4121 48.3747 17.263C46.5584 8.41647 39.1344 1.46732 30.1645 0.217781C28.735 0.0186 26.5819 -0.0573032 25.3046 0.0462958ZM29.7287 2.39825C33.9769 3.00944 37.7826 4.88682 40.8139 7.86662C43.8247 10.8263 45.6868 14.4795 46.3624 18.7522C46.6027 20.2722 46.6101 34.0211 46.3714 35.4782C45.8247 38.8154 44.3839 41.0821 41.7077 42.8152C39.3284 44.3559 35.8785 45.2907 31.2221 45.6562C29.3892 45.8001 24.6051 45.8001 22.7723 45.6562C18.1159 45.2907 14.666 44.3559 12.2867 42.8152C9.61049 41.0821 8.16968 38.8154 7.623 35.4782C7.39696 34.0985 7.39463 20.3994 7.62025 18.844C8.65143 11.7317 13.4902 5.8418 20.3544 3.34366L21.3659 2.97549L22.4131 3.07836C24.4324 3.27692 26.2572 3.97306 27.7231 5.10432C29.7844 6.69496 31.0011 9.15749 30.7159 11.162C30.3693 13.5977 28.0678 15.3331 25.7336 14.9188C25.4161 14.8625 24.9885 14.7315 24.7834 14.6278C23.4221 13.9394 22.6331 12.0583 23.1874 10.8225C23.5872 9.931 24.1798 9.48745 25.1839 9.32804C25.9465 9.20685 26.2086 9.05764 26.4162 8.62627C26.6282 8.18564 26.5186 7.71054 26.1308 7.38871C25.5014 6.86634 23.8479 7.16173 22.6838 8.00447C20.7914 9.37437 20.2203 11.9526 21.3345 14.0942C23.2236 17.725 27.907 18.2852 31.0201 15.253C33.2084 13.1214 33.5978 10.0845 32.0815 6.97431C31.2683 5.30642 29.6993 3.62083 28.0352 2.62732L27.3812 2.23687H27.9938C28.3308 2.23687 29.1115 2.30954 29.7287 2.39825ZM5.14267 28.5765V32.4264L4.85233 32.3185C3.92663 31.9743 3.13174 31.2653 2.67765 30.379C1.89352 28.8486 2.13509 27.1257 3.30889 25.8754C3.79687 25.3556 4.75435 24.7267 5.05778 24.7267C5.10445 24.7267 5.14267 26.4592 5.14267 28.5765ZM49.7615 25.0982C50.0005 25.2334 50.4366 25.6035 50.7305 25.9207C52.6277 27.9677 51.7921 31.333 49.142 32.3185L48.8517 32.4264V28.5696V24.7127L49.0892 24.7825C49.2199 24.821 49.5224 24.9631 49.7615 25.0982ZM14.9086 27.5277C13.4263 28.2066 13.1486 29.9972 14.3627 31.0484C15.727 32.2298 17.827 31.2694 17.827 29.4642C17.827 27.9398 16.2677 26.9052 14.9086 27.5277ZM37.6077 27.4554C36.7237 27.76 36.1673 28.536 36.1673 29.4642C36.1673 31.7287 39.256 32.366 40.2086 30.298C40.9543 28.6792 39.3006 26.8718 37.6077 27.4554ZM21.16 32.4723C20.7993 32.8019 20.698 33.3493 20.9194 33.7717C21.3298 34.5543 23.3873 35.7931 24.9384 36.1914C26.1059 36.4913 27.8885 36.4913 29.0559 36.1914C30.6071 35.7931 32.6646 34.5543 33.075 33.7717C33.4495 33.0572 32.9395 32.2233 32.1279 32.2233C31.7687 32.2233 31.5938 32.3047 31.114 32.6951C29.8037 33.761 28.5737 34.2151 26.9972 34.2151C25.4207 34.2151 24.1906 33.761 22.8804 32.6951C22.1789 32.1245 21.6198 32.052 21.16 32.4723Z"/>
  </symbol>
  <symbol id="arrow-right" viewBox="0 0 42 16">
    <path d="M41.7071 8.7071C42.0976 8.31657 42.0976 7.68341 41.7071 7.29288L35.3431 0.928924C34.9526 0.5384 34.3195 0.5384 33.9289 0.928925C33.5384 1.31945 33.5384 1.95261 33.9289 2.34314L39.5858 7.99999L33.9289 13.6568C33.5384 14.0474 33.5384 14.6805 33.9289 15.0711C34.3195 15.4616 34.9526 15.4616 35.3431 15.0711L41.7071 8.7071ZM2.19623e-07 9L41 8.99999L41 6.99999L-2.19623e-07 7L2.19623e-07 9Z"/>
  </symbol>
  <symbol id="man-2" viewBox="0 0 38 49">
    <path fill-rule="evenodd" clip-rule="evenodd" d="M17.4509 0.0628857C13.3511 0.63718 9.79126 3.20263 8.27351 6.67656C7.16277 9.21903 7.07454 12.1012 8.01783 15.0285C8.46815 16.426 9.75108 18.9868 10.3778 19.7394C10.4655 19.8447 10.6349 20.2326 10.7542 20.6014C11.1581 21.8498 11.8068 22.9375 12.6972 23.8594L13.2115 24.3917L13.028 25.1173C12.6307 26.6872 12.0778 27.1212 9.57264 27.8298C7.90364 28.3019 6.88539 28.6852 6.08036 29.1441C2.72398 31.0576 0.930643 34.9777 0.241228 41.9077C0.186454 42.4584 0.0996495 44.0179 0.0482869 45.3736C-0.0577551 48.1708 -0.0243979 48.4156 0.512919 48.781L0.834931 49H19.0018H37.1686L37.4906 48.781C38.0242 48.418 38.0563 48.181 37.9532 45.3665C37.6804 37.9241 36.4521 33.446 33.9382 30.73C32.6284 29.3147 31.28 28.6223 28.0992 27.7318C25.9593 27.1326 25.3582 26.6294 24.9755 25.1173L24.792 24.3917L25.3063 23.8594C26.1967 22.9375 26.8455 21.8498 27.2493 20.6014C27.3687 20.2326 27.538 19.8447 27.6257 19.7394C27.9484 19.3519 28.671 18.0815 29.1784 17.0096C30.6405 13.9207 30.9963 11.0443 30.2659 8.21679C29.235 4.22585 25.7975 1.14558 21.3207 0.201095C20.4149 0.0100153 18.3538 -0.0636391 17.4509 0.0628857ZM21.0663 2.49147C24.3519 3.2056 27.0483 5.52414 27.9588 8.41793C28.4739 10.0555 28.482 11.8651 27.9823 13.7052L27.7743 14.4715L27.6552 13.2742C27.4435 11.1473 27.0688 9.94427 26.426 9.3285C25.6174 8.55374 24.3133 8.4184 22.8397 8.95649C21.3877 9.48654 20.6501 9.64285 19.3334 9.69946C17.8332 9.76382 16.7278 9.59391 15.4809 9.10725C14.026 8.53937 12.9604 8.46534 12.1627 8.87661C11.3256 9.30829 10.6984 10.7383 10.4651 12.7474C10.4101 13.2216 10.3402 13.8034 10.3098 14.0405L10.2546 14.4715L10.0747 13.8968C9.26949 11.3243 9.64495 8.38182 11.0398 6.33271C12.3685 4.38091 14.8047 2.84748 17.2012 2.4546C17.5921 2.39052 17.9759 2.32252 18.0541 2.30336C18.3775 2.22434 20.4255 2.35221 21.0663 2.49147ZM24.9244 11.1054C25.2823 11.6576 25.3852 12.715 25.3919 15.9082L25.3984 18.9731L25.1405 19.7414C24.2238 22.4726 21.9341 24.0973 19.0018 24.0973C17.8985 24.0973 16.9708 23.888 16.0167 23.4239C14.4626 22.668 13.4475 21.4823 12.8624 19.7394L12.6051 18.9731L12.6054 16.0518C12.6057 13.0819 12.6845 12.1536 13.006 11.3347C13.1845 10.8797 13.2477 10.8791 14.9113 11.3142C16.8919 11.8322 18.3835 11.9935 19.902 11.8537C21.2198 11.7325 22.8258 11.4006 23.5979 11.09C24.2775 10.8165 24.7405 10.8219 24.9244 11.1054ZM15.996 25.9262C16.9328 26.2454 17.897 26.396 19.0018 26.396C20.1065 26.396 21.0708 26.2454 22.0075 25.9262C22.3317 25.8159 22.6341 25.7256 22.6796 25.7256C22.7251 25.7256 22.8165 25.9088 22.8828 26.1326C23.0251 26.6136 23.3985 27.3791 23.6755 27.7577L23.8727 28.0273L23.3938 28.5287C23.1305 28.8044 22.0498 29.9566 20.9924 31.0892C19.9349 32.2218 19.0392 33.1485 19.0018 33.1485C18.9643 33.1485 18.0686 32.2218 17.0111 31.0892C15.9537 29.9566 14.873 28.8044 14.6097 28.5287L14.1308 28.0273L14.328 27.7577C14.605 27.3791 14.9784 26.6136 15.1208 26.1326C15.187 25.9088 15.2784 25.7256 15.3239 25.7256C15.3694 25.7256 15.6718 25.8159 15.996 25.9262ZM15.2978 32.478C16.8712 34.1637 18.2738 35.6182 18.4144 35.7101C18.555 35.802 18.8193 35.8772 19.0018 35.8772C19.1842 35.8772 19.4484 35.802 19.5888 35.7101C19.7731 35.5894 24.045 31.0819 25.5446 29.4256C25.6139 29.3491 26.047 29.4739 29.2036 30.4799C31.3724 31.1711 32.6294 32.2726 33.67 34.3936C34.8687 36.8372 35.6804 41.3497 35.6804 45.5711V46.7013H33.5956H31.5107V43.8248C31.5107 40.7113 31.4778 40.4726 31.0058 40.1599C30.6974 39.9557 30.0103 39.9483 29.7308 40.1462C29.2579 40.481 29.2364 40.6387 29.2364 43.7752V46.7013H19.0018H8.76714V43.7752C8.76714 40.6387 8.74563 40.481 8.27275 40.1462C7.99319 39.9483 7.30615 39.9557 6.99769 40.1599C6.52566 40.4726 6.49278 40.7113 6.49278 43.8248V46.7013H4.40795H2.32312V45.5711C2.32312 44.9495 2.36747 43.8611 2.42158 43.1527C2.90962 36.7695 4.26893 33.1097 6.77802 31.4238C7.60712 30.8667 8.23769 30.6084 10.0338 30.0901C10.8226 29.8624 11.6172 29.6089 11.7996 29.5267C11.982 29.4445 12.2001 29.3853 12.2841 29.3952C12.3681 29.405 13.7243 30.7923 15.2978 32.478Z"/>
  </symbol>
  <symbol id="done" viewBox="0 0 67 67">
    <path fill-rule="evenodd" clip-rule="evenodd" d="M30.3965 0.0770901C22.5469 0.840325 15.3668 4.22245 9.79309 9.78218C4.58514 14.9771 1.40783 21.3432 0.243569 28.9155C-0.0811898 31.0274 -0.0811898 35.9802 0.243569 38.0921C1.40704 45.6595 4.55787 51.9783 9.77566 57.208C14.9711 62.4154 21.338 65.5923 28.9112 66.7565C31.0233 67.0812 35.9767 67.0812 38.0888 66.7565C45.657 65.5931 51.9765 62.4427 57.2069 57.2255C62.4149 52.0306 65.5922 45.6645 66.7564 38.0921C67.0812 35.9802 67.0812 31.0274 66.7564 28.9155C65.593 21.3482 62.4421 15.0294 57.2243 9.79962C52.0641 4.62753 45.6218 1.39879 38.22 0.275044C36.5817 0.0263564 32.0882 -0.087303 30.3965 0.0770901ZM37.7611 5.51019C43.8134 6.45565 49.1492 9.16997 53.4928 13.5133C57.8706 17.8905 60.5526 23.1894 61.5205 29.3743C61.6798 30.392 61.7463 31.6071 61.7463 33.5038C61.7463 35.4005 61.6798 36.6156 61.5205 37.6333C60.5526 43.8182 57.8706 49.1171 53.4928 53.4944C49.1151 57.8716 43.8156 60.5533 37.63 61.5212C35.6438 61.832 31.3562 61.832 29.37 61.5212C23.1844 60.5533 17.8849 57.8716 13.5072 53.4944C9.12941 49.1171 6.44743 43.8182 5.47945 37.6333C5.16858 35.6474 5.16858 31.3603 5.47945 29.3743C6.44743 23.1894 9.12941 17.8905 13.5072 13.5133C18.336 8.68492 24.0614 6.01753 31.2056 5.26793C32.2722 5.15597 36.4915 5.31198 37.7611 5.51019ZM45.431 22.306C45.1385 22.4315 42.0607 25.4116 36.9437 30.5235L28.9153 38.5439L25.5372 35.1883C23.6792 33.3426 21.9799 31.7418 21.7611 31.6307C20.4134 30.9467 18.8949 31.4383 18.2235 32.7757C17.8297 33.5601 17.8078 34.2837 18.1561 35.0029C18.3231 35.3479 20.0236 37.1382 22.9744 40.0752C26.5704 43.6546 27.6423 44.6489 28.0443 44.7779C28.7117 44.9919 29.7248 44.8662 30.2596 44.5028C30.8909 44.074 48.1378 26.8454 48.6195 26.1625C48.9862 25.6428 49.0357 25.4686 49.0361 24.699C49.0365 23.9394 48.9851 23.7525 48.6432 23.267C47.9129 22.2303 46.5537 21.8237 45.431 22.306Z"/>
  </symbol>
</svg>

